<?xml version="1.0" encoding="UTF-8"?>
<svg xmlns="http://www.w3.org/2000/svg" width="369.46" height="484" xmlns:xlink="http://www.w3.org/1999/xlink" viewBox="0 0 369.46 484">
	<defs>
		<style>
			.j{
				fill:url(#h);
			}

			.k{
				fill:url(#d);
			}

			.l{
				fill:url(#e);
			}

			.m{
				fill:url(#c);
			}

			.n{
				fill:#030305;
			}

			.o{
				fill:#fff;
			}

			.p{
				fill:#414246;
			}

			.q{
				fill:#0a0a0b;
			}

			.r{
				fill:#a3a5ab;
			}

			.s{
				fill:#4f5155;
			}

			.t{
				fill:url(#f);
				stroke:#000;
				stroke-miterlimit:10;
			}

			@keyframes scan {
				0% {
					transform: translateY(0px);
					opacity: 5%;
				}

				10% {
					transform: translateY(13px);
					opacity: 100%;
				}

				90% {
					transform: translateY(120px);
					opacity: 100%;
				}

				100% {
					transform: translateY(133px);
					opacity: 5%;
				}
			}

			.qr-code {
				animation: 3s linear 0s infinite normal scan;
			}
		</style>
		<radialGradient id="c" cx="184.73" cy="84.96" fx="184.73" fy="84.96" r="155.63" gradientTransform="translate(17.39 164.58) rotate(-30.03) scale(1 .17)" gradientUnits="userSpaceOnUse">
			<stop offset="0" stop-color="#66686c"/>
			<stop offset=".48" stop-color="#5c5e62"/>
			<stop offset="1" stop-color="#4c4e52"/>
		</radialGradient>
		<radialGradient id="d" cx="169.44" cy="225.35" fx="169.44" fy="225.35" r="196.45" gradientTransform="translate(362.5 55.04) rotate(89.74) scale(1 .86)" gradientUnits="userSpaceOnUse">
			<stop offset="0" stop-color="#484a4d"/>
			<stop offset=".35" stop-color="#3e4043"/>
			<stop offset=".95" stop-color="#242628"/>
			<stop offset="1" stop-color="#222426"/>
		</radialGradient>
		<radialGradient id="e" cx="223.86" cy="89.52" fx="223.86" fy="89.52" r="154.13" gradientTransform="translate(17.47 180.7) rotate(-31.03) scale(1 .32)" gradientUnits="userSpaceOnUse">
			<stop offset="0" stop-color="#9b9da2"/>
			<stop offset=".3" stop-color="#919398"/>
			<stop offset=".81" stop-color="#767a7e"/>
			<stop offset="1" stop-color="#6b6f73"/>
		</radialGradient>
		<radialGradient id="f" cx="205.25" cy="151" fx="205.25" fy="151" r="245" gradientTransform="translate(287.41 -155.24) rotate(55.36) scale(1 1.6)" gradientUnits="userSpaceOnUse">
			<stop offset="0" stop-color="#333538"/>
			<stop offset=".37" stop-color="#2a2b2e"/>
			<stop offset=".92" stop-color="#161617"/>
		</radialGradient>
		<linearGradient id="h" x1="46.32" y1="34.36" x2="54.58" y2="48.69" gradientUnits="userSpaceOnUse">
			<stop offset="0" stop-color="#0300d4" stop-opacity="0"/>
			<stop offset=".11" stop-color="#0201d5" stop-opacity=".08"/>
			<stop offset=".33" stop-color="#0204da" stop-opacity=".29"/>
			<stop offset=".65" stop-color="#0109e1" stop-opacity=".63"/>
			<stop offset=".97" stop-color="#000fe9"/>
		</linearGradient>
	</defs>
	<g id="a">
		<path class="o" d="m73.11,126.69l-3.38,1.95-.1.06-3.38,1.95v13.62l3.38-1.95.1-.06,3.38-1.95.1-.06,3.38-1.95v-13.62l-3.38,1.95-.1.06Zm.1,9.11l-3.59,2.07v-4.72l3.59-2.07v4.72Z"/>
		<polygon class="o" points="55.7 86.3 52.33 88.25 52.33 92.7 55.7 90.75 55.7 86.3"/>
		<polygon class="o" points="62.67 82.28 59.29 84.23 59.29 88.68 62.67 86.73 62.67 82.28"/>
		<polygon class="o" points="59.19 88.88 55.81 90.83 55.81 95.27 59.19 93.32 59.19 88.88"/>
		<polygon class="o" points="66.25 162.6 69.63 160.65 69.63 156.21 66.25 158.16 66.25 162.6"/>
		<polygon class="o" points="55.81 168.63 59.19 166.68 59.19 162.24 55.81 164.19 55.81 168.63"/>
		<polygon class="o" points="59.19 125.56 55.81 127.51 55.81 131.95 59.19 130 59.19 125.56"/>
		<polygon class="o" points="73.11 108.35 69.74 110.3 69.74 114.74 73.11 112.79 73.11 108.35"/>
		<polygon class="o" points="80.08 141.01 76.7 142.96 76.7 147.4 76.7 147.54 76.7 151.99 80.08 150.04 80.18 149.98 83.56 148.03 83.56 143.58 83.56 143.44 83.56 139 80.18 140.95 80.08 141.01"/>
		<polygon class="o" points="41.78 76 38.4 77.95 38.4 82.4 41.78 80.45 41.78 76"/>
		<polygon class="o" points="52.22 83.73 48.85 85.68 48.85 90.12 52.22 88.17 52.22 83.73"/>
		<path class="o" d="m10.44,112.3l17.41-10.05v-22.92l-17.41,10.05v22.92Zm3.48-20.35l10.44-6.03v13.76l-10.44,6.03v-13.76Z"/>
		<path class="o" d="m73.11,76.11l17.41-10.05v-22.92l-17.41,10.05v22.92Zm3.48-20.35l10.44-6.03v13.76l-10.44,6.03v-13.76Z"/>
		<path class="o" d="m27.85,161.85l-17.41,10.05v22.92l17.41-10.05v-22.92Zm-3.48,20.35l-10.44,6.03v-13.75l10.44-6.03v13.75Z"/>
		<polygon class="o" points="45.26 78.58 41.88 80.53 41.88 84.97 45.26 83.03 45.26 78.58"/>
		<polygon class="o" points="48.74 81.15 45.36 83.1 45.36 87.55 48.74 85.6 48.74 81.15"/>
		<polygon class="o" points="45.26 87.75 41.88 89.7 41.88 94.14 45.26 92.2 45.26 87.75"/>
		<polygon class="o" points="83.66 134.21 87.14 132.2 87.14 136.79 90.52 134.84 90.52 130.39 90.52 130.25 90.52 125.81 87.14 127.76 87.04 127.82 83.66 129.77 83.66 134.21"/>
		<polygon class="o" points="59.19 134.73 55.7 136.74 55.7 132.15 52.33 134.1 52.33 138.69 48.74 140.76 48.74 136.17 48.74 136.03 48.74 131.45 52.22 129.44 52.22 124.99 48.74 127 48.74 122.42 45.36 124.37 45.36 128.95 41.78 131.02 41.78 126.44 38.4 128.39 38.4 132.97 34.92 134.98 34.82 135.04 31.44 136.99 31.44 141.58 27.96 143.59 27.96 148.03 31.33 146.09 31.44 146.02 34.82 144.08 34.92 144.01 38.3 142.07 38.3 137.48 41.88 135.41 41.88 139.99 41.88 140.13 41.88 144.58 45.36 142.57 45.36 147.15 48.74 145.2 48.85 145.14 52.33 143.13 52.33 147.86 48.85 149.87 48.85 154.31 48.85 154.45 48.85 158.9 52.22 156.95 52.33 156.89 55.7 154.94 55.81 154.88 59.19 152.93 59.19 148.48 55.7 150.49 55.7 145.77 59.29 143.7 59.29 148.28 62.67 146.33 62.67 141.89 62.67 141.75 62.67 137.3 59.19 139.31 59.19 134.73"/>
		<polygon class="o" points="34.82 116.7 31.44 118.65 31.44 123.1 34.82 121.15 34.82 116.7"/>
		<polygon class="o" points="38.4 164.93 38.4 165.07 38.4 169.51 41.78 167.57 41.78 163.12 41.78 162.98 41.78 158.53 38.4 160.48 38.4 164.93"/>
		<polygon class="o" points="31.33 114.13 27.96 116.08 27.96 120.53 31.33 118.58 31.33 114.13"/>
		<polygon class="o" points="20.89 120.16 17.51 122.11 17.41 122.17 14.03 124.12 14.03 128.57 17.41 126.62 17.51 126.56 20.89 124.61 20.99 124.55 24.37 122.6 24.37 118.15 20.99 120.1 20.89 120.16"/>
		<path class="o" d="m87.04,86.55v-4.58l-3.38,1.95-.1.06-3.38,1.95-.1.06-3.38,1.95v4.59l-3.48,2.01v4.45l3.48-2.01v4.58l3.48-2.01v4.59l3.38-1.95v-4.58l3.48-2.01.1-.06,3.38-1.95v-4.45l-3.48,2.01v-4.59Zm-3.38,6.53l-3.59,2.07v-4.72l3.59-2.07v4.72Z"/>
		<path class="o" d="m0,81.65v132.96l100.96-58.29V23.35L0,81.65Zm69.63-31.03l24.37-14.07v32.09l-24.37,14.07v-32.09Zm-10.44,6.03l3.48-2.01.1-.06,3.48-2.01v4.72l-3.48,2.01-.1.06-3.48,2.01v-4.72Zm7.07,5.09v4.72l-3.59,2.07v-4.72l3.59-2.07Zm-10.55,6.09l3.59-2.07v4.72l-3.59,2.07v-4.72ZM6.96,86.8l24.37-14.07v32.09l-24.37,14.07v-32.09Zm0,73.5v-13.89l3.59-2.07v18.48l-3.59,2.07v-4.59Zm24.37,27.06l-24.37,14.07v-32.09l24.37-14.07v32.09Zm-13.93-28.5v-9.31l3.59-2.07v9.31l-3.59,2.07Zm20.99,24.56l-3.59,2.07v-4.72l3.59-2.07v4.72Zm6.96-4.02l-3.59,2.07v-4.72l3.59-2.07v4.72Zm48.74-92.47v9.31l-3.48,2.01v4.45l3.48-2.01v9.31l-3.59,2.07v-4.58l-3.48,2.01v-9.17l-3.38,1.95v13.62l3.48-2.01v9.17l3.38-1.95.1-.06,3.48-2.01v32.23l-3.48,2.01-.1.06-3.38,1.95-.1.06-3.38,1.95-.1.06-3.38,1.95-.1.06-3.38,1.95-.1.06-3.48,2.01v-4.59l-3.38,1.95v4.59l-3.59,2.07v-4.59l-3.38,1.95-.1.06-3.38,1.95v4.59l-3.59,2.07v-4.59l-3.38,1.95v4.59l-3.59,2.07v-9.31l3.48-2.01v-4.45l-3.48,2.01v-4.58l-3.38,1.95v4.58l-3.48,2.01v4.59l-3.48,2.01-.1.06-3.48,2.01v-18.48l3.48-2.01.1-.06,3.48-2.01v4.59l3.38-1.95v-9.03l-3.38,1.95-.1.06-3.38,1.95-.1.06-3.48,2.01v-4.58l-3.38,1.95-.1.06-3.48,2.01v-4.59l-3.48,2.01v-9.17l-3.48,2.01v-4.72l3.48-2.01.1-.06,3.38-1.95v-4.45l-3.48,2.01v-4.59l-3.38,1.95v4.59l-3.48,2.01v4.58l-3.59,2.07v-4.72l3.48-2.01v-4.45l-3.48,2.01v-4.58l-3.38,1.95v9.17l-3.59,2.07v-18.48l3.59-2.07v4.59l3.38-1.95v-4.59l3.48-2.01.1-.06,3.38-1.95.1-.06,3.38-1.95.1-.06,3.38-1.95.1-.06,3.48-2.01v4.59l3.38-1.95.1-.06,3.38-1.95v-4.45l-3.48,2.01v-27.65l3.48-2.01v-9.17l3.48-2.01.1-.06,3.38-1.95.1-.06,3.38-1.95.1-.06,3.48-2.01v4.72l-3.48,2.01v4.45l3.48-2.01v9.17l3.38-1.95.1-.06,3.38-1.95.1-.06,3.48-2.01v9.17l3.48-2.01v9.31l-3.48,2.01-.1.06-3.38,1.95v4.58l-3.59,2.07v-4.58l-3.48,2.01v-4.59l-3.48,2.01v-4.58l-3.38,1.95v4.58l-3.59,2.07v-4.58l-3.38,1.95v9.03l3.48-2.01v9.17l3.38-1.95.1-.06,3.38-1.95.1-.06,3.48-2.01v4.72l-3.48,2.01-.1.06-3.38,1.95-.1.06-3.38,1.95v4.45l3.38-1.95.1-.06,3.48-2.01v4.59l3.38-1.95.1-.06,3.38-1.95.1-.06,3.48-2.01v4.59l3.38-1.95v-4.59l3.48-2.01v-4.45l-3.38,1.95-.1.06-3.38,1.95-.1.06-3.48,2.01v-4.72l3.48-2.01v-4.59l3.48-2.01v-4.58l3.59-2.07v4.72l-3.48,2.01v4.45l3.38-1.95.1-.06,3.38-1.95v-4.59l3.48-2.01v-4.45l-3.48,2.01v-4.72l3.48-2.01.1-.06,3.38-1.95.1-.06,3.38-1.95.1-.06,3.38-1.95.1-.06,3.48-2.01v4.59l3.48-2.01v4.58l3.48-2.01v4.59Zm-45.26,12.38v4.72l-3.59,2.07v-4.72l3.59-2.07Z"/>
		<polygon class="o" points="62.77 155.44 66.15 153.49 66.15 149.05 62.77 151 62.77 155.44"/>
		<polygon class="o" points="87.14 146.1 83.66 148.11 83.66 152.55 87.04 150.6 87.14 150.54 90.52 148.59 90.52 144.15 90.52 144.01 90.52 139.56 87.14 141.51 87.14 146.1"/>
		<polygon class="o" points="80.08 117.94 80.08 113.5 76.7 115.45 76.59 115.51 73.22 117.46 73.11 117.52 69.63 119.53 69.63 114.94 66.25 116.89 66.25 121.34 66.25 121.48 66.25 125.92 69.63 123.97 69.74 123.91 73.11 121.96 73.22 121.9 76.59 119.95 76.7 119.89 80.08 117.94"/>
		<polygon class="o" points="38.3 119.28 34.92 121.23 34.92 125.67 38.3 123.73 38.3 119.28"/>
		<polygon class="o" points="80.18 122.47 83.56 120.52 83.56 116.07 80.18 118.02 80.18 122.47"/>
		<polygon class="o" points="80.08 104.33 76.7 106.28 76.7 110.72 80.08 108.77 80.08 104.33"/>
		<polygon class="o" points="34.82 125.87 31.44 127.82 31.44 132.27 34.82 130.32 34.82 125.87"/>
		<polygon class="o" points="31.33 123.3 27.96 125.25 27.96 129.7 31.33 127.75 31.33 123.3"/>
		<polygon class="o" points="31.33 132.47 27.96 134.42 27.96 138.86 31.33 136.92 31.33 132.47"/>
		<polygon points="62.77 59.3 66.25 57.29 66.25 52.56 62.77 54.57 62.67 54.63 59.19 56.64 59.19 61.37 62.67 59.36 62.77 59.3"/>
		<polygon points="59.29 65.75 55.7 67.82 55.7 72.55 59.29 70.48 59.29 65.75"/>
		<polygon points="62.67 68.53 66.25 66.46 66.25 61.73 62.67 63.8 62.67 68.53"/>
		<polygon points="45.26 106.09 48.85 104.02 48.85 99.29 45.26 101.36 45.26 106.09"/>
		<path d="m90.62,79.76l-3.48,2.01v-4.59l-3.48,2.01-.1.06-3.38,1.95-.1.06-3.38,1.95-.1.06-3.38,1.95-.1.06-3.48,2.01v4.72l3.48-2.01v4.45l-3.48,2.01v4.59l-3.38,1.95-.1.06-3.38,1.95v-4.45l3.48-2.01v-4.72l-3.59,2.07v4.58l-3.48,2.01v4.59l-3.48,2.01v4.72l3.48-2.01.1-.06,3.38-1.95.1-.06,3.38-1.95v4.45l-3.48,2.01v4.59l-3.38,1.95v-4.59l-3.48,2.01-.1.06-3.38,1.95-.1.06-3.38,1.95v-4.59l-3.48,2.01-.1.06-3.38,1.95v-4.45l3.38-1.95.1-.06,3.38-1.95.1-.06,3.48-2.01v-4.72l-3.48,2.01-.1.06-3.38,1.95-.1.06-3.38,1.95v-9.17l-3.48,2.01v-9.03l3.38-1.95v4.58l3.59-2.07v-4.58l3.38-1.95v4.58l3.48-2.01v4.59l3.48-2.01v4.58l3.59-2.07v-4.58l3.38-1.95.1-.06,3.48-2.01v-9.31l-3.48,2.01v-9.17l-3.48,2.01-.1.06-3.38,1.95-.1.06-3.38,1.95v-9.17l-3.48,2.01v-4.45l3.48-2.01v-4.72l-3.48,2.01-.1.06-3.38,1.95-.1.06-3.38,1.95-.1.06-3.48,2.01v9.17l-3.48,2.01v27.65l3.48-2.01v4.45l-3.38,1.95-.1.06-3.38,1.95v-4.59l-3.48,2.01-.1.06-3.38,1.95-.1.06-3.38,1.95-.1.06-3.38,1.95-.1.06-3.48,2.01v4.59l-3.38,1.95v-4.59l-3.59,2.07v18.48l3.59-2.07v-9.17l3.38-1.95v4.58l3.48-2.01v4.45l-3.48,2.01v4.72l3.59-2.07v-4.58l3.48-2.01v-4.59l3.38-1.95v4.59l3.48-2.01v4.45l-3.38,1.95-.1.06-3.48,2.01v4.72l3.48-2.01v9.17l3.48-2.01v4.59l3.48-2.01.1-.06,3.38-1.95v4.58l3.48-2.01.1-.06,3.38-1.95.1-.06,3.38-1.95v9.03l-3.38,1.95v-4.59l-3.48,2.01-.1.06-3.48,2.01v18.48l3.48-2.01.1-.06,3.48-2.01v-4.59l3.48-2.01v-4.58l3.38-1.95v4.58l3.48-2.01v4.45l-3.48,2.01v9.31l3.59-2.07v-4.59l3.38-1.95v4.59l3.59-2.07v-4.59l3.38-1.95.1-.06,3.38-1.95v4.59l3.59-2.07v-4.59l3.38-1.95v4.59l3.48-2.01.1-.06,3.38-1.95.1-.06,3.38-1.95.1-.06,3.38-1.95.1-.06,3.38-1.95.1-.06,3.48-2.01v-32.23l-3.48,2.01-.1.06-3.38,1.95v-9.17l-3.48,2.01v-13.62l3.38-1.95v9.17l3.48-2.01v4.58l3.59-2.07v-9.31l-3.48,2.01v-4.45l3.48-2.01v-13.89l-3.48,2.01v-4.58Zm-31.33,4.47l3.38-1.95v4.45l-3.38,1.95v-4.45Zm-3.48,6.6l3.38-1.95v4.45l-3.38,1.95v-4.45Zm-3.48-2.57l3.38-1.95v4.45l-3.38,1.95v-4.45Zm-3.48-2.57l3.38-1.95v4.45l-3.38,1.95v-4.45Zm-3.48-2.57l3.38-1.95v4.45l-3.38,1.95v-4.45Zm-3.48-2.57l3.38-1.95v4.45l-3.38,1.95v-4.45Zm0,9.17l3.38-1.95v4.45l-3.38,1.95v-4.45Zm-3.48-11.74l3.38-1.95v4.45l-3.38,1.95v-4.45Zm-14.03,44.64l-3.38,1.95-.1.06-3.38,1.95-.1.06-3.38,1.95v-4.45l3.38-1.95.1-.06,3.38-1.95.1-.06,3.38-1.95v4.45Zm17.41,40.38v4.59l-3.38,1.95v-9.03l3.38-1.95v4.45Zm14.03-35.47l3.38-1.95v4.45l-3.38,1.95v-4.45Zm-20.89-6.28l3.38-1.95v4.45l-3.38,1.95v-4.45Zm-3.48-2.57l3.38-1.95v4.45l-3.38,1.95v-4.45Zm0,9.17l3.38-1.95v4.45l-3.38,1.95v-4.45Zm-3.48-11.74l3.38-1.95v4.45l-3.38,1.95v-4.45Zm0,9.17l3.38-1.95v4.45l-3.38,1.95v-4.45Zm0,9.17l3.38-1.95v4.45l-3.38,1.95v-4.45Zm31.23,32.27l-3.38,1.95v-4.45l3.38-1.95v4.45Zm3.48-24.94v4.59l-3.38,1.95v-4.59l-3.59,2.07v4.72l3.48-2.01v4.45l-3.38,1.95-.1.06-3.38,1.95-.1.06-3.38,1.95v-9.03l3.48-2.01v-4.72l-3.48,2.01-.1.06-3.38,1.95v-4.59l-3.48,2.01v-9.17l-3.59,2.07v4.59l-3.38,1.95-.1.06-3.38,1.95-.1.06-3.38,1.95v-4.45l3.48-2.01v-4.59l3.38-1.95.1-.06,3.48-2.01v-4.59l3.38-1.95v4.58l3.59-2.07v-4.59l3.38-1.95v4.58l3.48-2.01v4.45l-3.48,2.01v9.31l3.59-2.07v-4.59l3.38-1.95v4.59l3.48-2.01v4.58l3.48-2.01v4.45Zm3.48,11.74l-3.38,1.95v-4.45l3.38-1.95v4.45Zm3.59-43.2l3.38-1.95v4.45l-3.38,1.95v-4.45Zm-.1,50.36l-3.38,1.95v-4.45l3.38-1.95v4.45Zm6.96-31.53v9.17l-3.38,1.95-.1.06-3.38,1.95-.1.06-3.38,1.95v-13.62l3.38-1.95.1-.06,3.38-1.95.1-.06,3.38-1.95v4.45Zm0-9.17l-3.38,1.95-.1.06-3.38,1.95-.1.06-3.38,1.95v-9.03l3.38-1.95v4.59l3.48-2.01.1-.06,3.38-1.95.1-.06,3.38-1.95v4.45l-3.38,1.95-.1.06Zm.1-9.23v-4.45l3.38-1.95v4.45l-3.38,1.95Zm6.86,32.72v4.58l-3.38,1.95-.1.06-3.38,1.95v-9.03l3.38-1.95.1-.06,3.38-1.95v4.45Zm0-22.92l-3.38,1.95v-4.45l3.38-1.95v4.45Zm6.96,23.49v4.59l-3.38,1.95-.1.06-3.38,1.95v-4.45l3.48-2.01v-4.59l3.38-1.95v4.45Zm-3.48-16.19l.1-.06,3.38-1.95v9.03l-3.38,1.95v-4.58l-3.48,2.01v-4.45l3.38-1.95Zm3.48-34.24l-3.38,1.95-.1.06-3.48,2.01v4.58l-3.38,1.95v-4.59l-3.48,2.01v-4.58l-3.48,2.01v-4.45l3.48-2.01v-4.59l3.38-1.95.1-.06,3.38-1.95.1-.06,3.38-1.95v9.17l3.48-2.01v4.45Z"/>
		<polygon points="80.08 95.16 83.66 93.09 83.66 88.36 80.08 90.43 80.08 95.16"/>
		<polygon points="10.55 158.22 10.55 158.09 10.55 153.64 10.55 153.5 10.55 149.05 10.55 148.92 10.55 144.33 6.96 146.4 6.96 150.99 6.96 151.12 6.96 155.57 6.96 155.71 6.96 160.16 6.96 160.29 6.96 164.88 10.55 162.81 10.55 158.22"/>
		<polygon points="20.99 152.06 20.99 147.47 17.41 149.54 17.41 154.13 17.41 154.26 17.41 158.85 20.99 156.78 20.99 152.19 20.99 152.06"/>
		<polygon points="69.63 137.87 73.22 135.8 73.22 131.07 69.63 133.14 69.63 137.87"/>
		<polygon points="34.82 185.48 38.4 183.41 38.4 178.68 34.82 180.76 34.82 185.48"/>
		<polygon points="41.78 181.46 45.36 179.39 45.36 174.66 41.78 176.73 41.78 181.46"/>
		<path d="m31.33,72.73l-24.37,14.07v32.09l24.37-14.07v-32.09Zm-3.48,29.52l-17.41,10.05v-22.92l17.41-10.05v22.92Z"/>
		<path d="m94,36.54l-24.37,14.07v32.09l24.37-14.07v-32.09Zm-3.48,29.52l-17.41,10.05v-22.92l17.41-10.05v22.92Z"/>
		<path d="m6.96,201.42l24.37-14.07v-32.09l-24.37,14.07v32.09Zm3.48-29.52l17.41-10.05v22.92l-17.41,10.05v-22.92Z"/>
		<polygon points="24.37 85.92 13.93 91.95 13.93 105.7 24.37 99.67 24.37 85.92"/>
		<polygon points="87.04 49.73 76.59 55.76 76.59 69.52 87.04 63.49 87.04 49.73"/>
		<polygon points="13.93 188.23 24.37 182.2 24.37 168.45 13.93 174.48 13.93 188.23"/>
	</g>
	<g id="b">
		<polygon class="m" points="161.46 92 319.46 0 349.46 0 162.46 108 161.46 92"/>
		<polygon class="k" points="162.46 464 161.46 109 162.46 108 179.46 125 179.46 481.13 162.46 464"/>
		<polygon class="p" points="185.46 484 179.46 481.13 179.46 125 185.46 128 185.46 484"/>
		<polygon class="l" points="349.46 0 367.46 16 369.46 21 185.46 128 179.46 125 162.46 108 349.46 0"/>
		<polygon class="q" points="186.96 128.86 367.96 23.61 367.96 377.13 186.96 481.4 186.96 128.86"/>
		<path class="s" d="m366.46,26.21v350.05l-178,102.54V129.73L366.46,26.21m3-5.21l-184,107v356l184-106V21h0Z"/>
		<polygon class="t" points="202.46 146 352.46 59 352.46 348 202.46 433.26 202.46 146"/>
		<polygon class="r" points="200.46 92.75 227.96 76.5 232.96 80 204.96 96.75 200.46 92.75"/>
		<polygon class="n" points="200.46 95.5 200.46 92.75 204.96 96.75 232.96 80 232.96 82.7 204.96 99.5 200.46 95.5"/>
	</g>
	<g id="g" class="qr-code">
		<polyline id="i" class="j" points="0 81.65 100.96 23.5 100.96 1.5 0 59.65 0 81.65"/>
	</g>
</svg>