<svg version="1.1" id="Layer_1" xmlns="http://www.w3.org/2000/svg" x="0" y="0" viewBox="0 0 390 390" style="enable-background:new 0 0 390 390" xml:space="preserve"><style>.st2{fill:url(#SVGID_00000182509386215233479990000015576078443857426099_)}.st4{fill:url(#SVGID_00000060717539986488140190000004337075051891544247_)}</style><circle cx="195" cy="195" r="182" style="fill:#140f1e;stroke:#000;stroke-width:.9333;stroke-miterlimit:10"/><linearGradient id="SVGID_1_" gradientUnits="userSpaceOnUse" x1="146.006" y1="358.2" x2="146.006" y2="52.72" gradientTransform="matrix(1 0 0 -1 0 392)"><stop offset="0" style="stop-color:#4d2d78"/><stop offset="1" style="stop-color:#8561a9"/></linearGradient><path d="M180.2 68.5c-1-3.2-1-6.7.2-10v.1L97.7 294.3c-2.5 8.2 2.1 16.9 10.2 19.4 7.8 2.4 16.1-1.6 19-9.2l68-193.9-14.7-41.8v-.3z" style="fill:url(#SVGID_1_)"/><linearGradient id="SVGID_00000124144907371395134180000017236611030898189203_" gradientUnits="userSpaceOnUse" x1="236.294" y1="370.07" x2="236.294" y2="51.45" gradientTransform="matrix(1 0 0 -1 0 392)"><stop offset="0" style="stop-color:#8561a9"/><stop offset="1" style="stop-color:#4d2d78"/></linearGradient><path style="fill:url(#SVGID_00000124144907371395134180000017236611030898189203_)" d="M292.3 294.3 209.6 58.6c0-.2-.1-.3-.2-.4-3.1-8-12.1-11.9-20.1-8.8-7.6 3-11.6 11.3-9.2 19.1l.1.4L263 304.6c2.9 8.1 11.9 12.2 19.9 9.3 7.9-2.9 12.1-11.6 9.4-19.6z"/><path d="M201.5 194.2h-13c-7.1 0-12.9 5.8-12.9 12.9 0 7.1 5.8 12.9 12.9 13 4.4.1 8.8.1 13 0 7.3-.3 12.9-5.8 12.9-13 0-7.1-5.8-12.9-12.9-12.9z" style="fill:#8561a9"/><linearGradient id="SVGID_00000055676533381279333930000006288837126692235183_" gradientUnits="userSpaceOnUse" x1="332.887" y1="59.112" x2="57.112" y2="334.887" gradientTransform="matrix(1 0 0 -1 0 392)"><stop offset="0" style="stop-color:#8561a9"/><stop offset="1" style="stop-color:#4d2d78"/></linearGradient><path style="fill:url(#SVGID_00000055676533381279333930000006288837126692235183_)" d="M195 0C87.3 0 0 87.3 0 195s87.3 195 195 195 195-87.3 195-195S302.7 0 195 0zm0 377C94.5 377 13 295.5 13 195S94.5 13 195 13s182 81.5 182 182-81.5 182-182 182z"/></svg>