<?xml version="1.0" encoding="utf-8"?>
<!-- Generator: Adobe Illustrator 27.4.0, SVG Export Plug-In . SVG Version: 6.00 Build 0)  -->
<svg version="1.1" id="b" xmlns="http://www.w3.org/2000/svg" xmlns:xlink="http://www.w3.org/1999/xlink" x="0px" y="0px"
	 viewBox="0 0 142 142" style="enable-background:new 0 0 142 142;" xml:space="preserve">
<style type="text/css">
	.st0{fill:#FFFFFF;}
</style>
<g>
	<circle class="st0" cx="71" cy="71" r="71"/>
</g>
<g id="c">
	<path d="M77.7,61.9l35.1-35.1L99.5,13.5L71,41.9L42.6,13.5L29.3,26.8l35.1,35.1c1.8,1.8,4.2,2.8,6.7,2.8
		C73.4,64.7,75.8,63.8,77.7,61.9z M128.5,99.4L100.1,71l28.4-28.4l-13.3-13.3L80.1,64.3c-3.7,3.7-3.7,9.6,0,13.3l35.1,35.1
		L128.5,99.4L128.5,99.4L128.5,99.4z M71,100.1l28.4,28.4l13.3-13.3L77.6,80.1c-3.7-3.7-9.6-3.7-13.3,0l-35.1,35.1l13.3,13.3
		L71,100.1C71,100.1,71,100.1,71,100.1z M61.9,77.7c1.8-1.8,2.8-4.2,2.8-6.7c0-2.5-1-4.9-2.8-6.7L26.8,29.3L13.5,42.6L41.9,71
		L13.5,99.5l13.3,13.3L61.9,77.7L61.9,77.7L61.9,77.7z"/>
</g>
</svg>
