<?xml version="1.0" encoding="utf-8"?>
<!-- Generator: Adobe Illustrator 27.4.0, SVG Export Plug-In . SVG Version: 6.00 Build 0)  -->
<svg version="1.1" id="Layer_1" xmlns="http://www.w3.org/2000/svg" xmlns:xlink="http://www.w3.org/1999/xlink" x="0px" y="0px"
	 viewBox="0 0 24 24" style="enable-background:new 0 0 24 24;" xml:space="preserve">
<style type="text/css">
	.st0{fill:#C0CAF8;}
</style>
<circle class="st0" cx="12" cy="12" r="12"/>
<path d="M12.7,21v-5h0.1c1.6-0.3,2.8-1.6,3.2-3.1h3.9c-0.3,3.3-2.7,6-5.9,6.9V21H12.7z M14,16.8C14,16.8,14,16.8,14,16.8l0,1.8
	c2.1-0.6,3.7-2.3,4.4-4.3h-1.8C16.1,15.4,15.2,16.3,14,16.8L14,16.8z M9.9,21v-1.3c-4.2-1.2-6.7-5.6-5.5-9.8
	c0.7-2.3,2.3-4.2,4.5-5.2c0.3-0.1,0.6-0.2,0.9-0.3V3h1.3v5.1C9,8.6,7.6,10.7,8.1,12.9c0.3,1.6,1.6,2.8,3.1,3.1v5H9.9z M6.5,8.1
	c-2.2,3-1.5,7.3,1.5,9.5c0.6,0.4,1.2,0.7,1.8,0.9v-1.8c-2.6-1.2-3.7-4.2-2.5-6.8c0.5-1.1,1.4-2,2.5-2.5V5.7C8.5,6.1,7.4,7,6.5,8.1z
	 M16,11.4c-0.3-1.7-1.6-3-3.3-3.3V3H14v1.4c3.2,0.9,5.6,3.7,5.9,7H16z M14,7.4c1.2,0.5,2.2,1.5,2.7,2.7c0,0,0,0,0,0h1.8
	C17.8,8,16.2,6.3,14,5.6L14,7.4z"/>
</svg>
