<?xml version="1.0" encoding="utf-8"?>
<!-- Generator: Adobe Illustrator 27.4.0, SVG Export Plug-In . SVG Version: 6.00 Build 0)  -->
<svg version="1.1" id="Layer_1" xmlns="http://www.w3.org/2000/svg" xmlns:xlink="http://www.w3.org/1999/xlink" x="0px" y="0px"
	 viewBox="0 0 24 24" style="enable-background:new 0 0 24 24;" xml:space="preserve">
<style type="text/css">
	.st0{fill:#FFFFFF;}
	.st1{fill:#FE4350;}
</style>
<circle class="st0" cx="12" cy="12" r="12"/>
<path class="st1" d="M19.4,14.9H9V9.2H7.5v6.4c0,0.4,0.4,0.8,0.8,0.8h9.1l-1.9,1.6H5.4V8.7h10.4c0.2,0,0.4-0.1,0.5-0.2l3.7-3.2
	c0.2-0.2,0.3-0.5,0.2-0.9C20,4.2,19.7,4,19.4,4H8.3C7.8,4,7.5,4.3,7.5,4.8v1.9H9V5.6h8.3l-1.9,1.6H4.6C4.2,7.2,3.8,7.5,3.8,8v10.9
	c0,0.4,0.4,0.8,0.8,0.8h11.1c0.2,0,0.4-0.1,0.5-0.2l3.7-3.2c0.2-0.2,0.3-0.5,0.2-0.9C20,15.1,19.7,14.9,19.4,14.9z"/>
</svg>
