<?xml version="1.0" encoding="utf-8"?>
<!-- Generator: Adobe Illustrator 27.4.0, SVG Export Plug-In . SVG Version: 6.00 Build 0)  -->
<svg version="1.1" id="Layer_1" xmlns="http://www.w3.org/2000/svg" xmlns:xlink="http://www.w3.org/1999/xlink" x="0px" y="0px"
	 viewBox="0 0 24 24" style="enable-background:new 0 0 24 24;" xml:space="preserve">
<style type="text/css">
	.st0{fill:#545090;}
	.st1{fill:#FFFFFF;}
</style>
<circle class="st0" cx="12" cy="12" r="12"/>
<path class="st1" d="M7.7,18.4C6.6,17.6,6,16.3,6,15c0-1.9,0-3.8,0-5.6c0-0.9,0.5-1.5,1.2-2c1.5-1,4-1,5.5,0
	c0.8,0.5,1.2,1.3,1.2,2.2c0,0.5,0,1.1,0,1.6h-3.6V8.8H8.7v5.4c0,2.1,1,3.6,3,4.3c1.3,0.5,2.8,0.5,4.2,0.2c0.1,0,0.2-0.1,0.3-0.1
	c0,0,0,0,0.1,0c-0.6,0.5-1.3,0.9-2,1.1c-0.7,0.2-1.4,0.3-2.2,0.3C10.6,20,9,19.4,7.7,18.4z M11.3,16.6c-0.7-0.5-1.2-1.3-1.1-2.2
	c0-0.5,0-1.1,0-1.6h3.6v2.4h1.5v-0.4c0-1.7,0-3.4,0-5c0-2-0.9-3.3-2.7-4C11.2,5.1,9.5,4.9,8,5.4c-0.1,0-0.3,0.1-0.5,0.1
	C8,5,8.7,4.6,9.4,4.4c2.5-0.8,4.8-0.4,6.9,1.2C17.3,6.4,18,7.7,18,9c0,1.9,0,3.8,0,5.7c0,0.9-0.5,1.5-1.1,1.9
	c-0.8,0.5-1.8,0.8-2.7,0.8C13.1,17.4,12.1,17.1,11.3,16.6L11.3,16.6z"/>
</svg>
