<svg width="1500" height="1500" fill="none" xmlns="http://www.w3.org/2000/svg"><path fill="#14151A" d="M0 0h1500v1500H0z"/><path d="M390.181 439.196c5.898-7.415 12.149-14.55 18.4-21.684.281-.353.915-.426 1.196-.779.561-.706 1.476-1.132 2.038-1.838l.562-.706c4.357-4.029 8.995-8.411 14.34-12.231 18.915-14.359 38.545-25.268 59.243-32.446 66.387-23.307 140.287-8.943 198.24 45.768 80.919 75.85 73.672 198.04 9.078 279.256-81.627 121.073-221.903 289.99-27.678 441.304 34.921 27.21 60.828 49.64 170.83 81.43-71.943 13.26-138.652 9.13-212.902-9.83-52.522-29.65-135.096-93.12-163.189-178.85-42.461-130.006 74.754-324.351 131.403-399.203 77.777-103.589-48.073-215.731-140.725-90.537-48.433 65.244-133.162 249.87-103.718 386.817 17.216 77.663 40.164 134.273 131.151 212.033-16.873-9.96-33.257-21.25-49.151-33.89-211.401-196.916-186.875-501.395-39.118-664.614Z" fill="url(#a)"/><path d="M1109.82 1060.8c-5.9 7.42-12.15 14.55-18.4 21.69-.28.35-.92.42-1.2.78-.56.7-1.47 1.13-2.04 1.83l-.56.71c-4.35 4.03-8.99 8.41-14.34 12.23-18.91 14.36-38.54 25.27-59.24 32.45-66.387 23.3-140.287 8.94-198.24-45.77-80.919-75.85-73.672-198.04-9.078-279.256 81.627-121.073 221.898-289.99 27.678-441.307-34.921-27.207-60.828-49.64-170.83-81.428 71.943-13.254 138.652-9.131 212.902 9.833 52.522 29.646 135.098 93.12 163.188 178.85 42.46 130.004-74.753 324.349-131.402 399.201-77.777 103.589 48.073 215.727 140.722 90.537 48.44-65.244 133.16-249.87 103.72-386.817-17.22-77.66-40.16-134.269-131.15-212.03 16.87 9.954 33.26 21.249 49.15 33.883 211.4 196.92 186.88 501.399 39.12 664.614Z" fill="url(#b)"/><defs><linearGradient id="a" x1="275" y1="750" x2="1225" y2="750" gradientUnits="userSpaceOnUse"><stop stop-color="#0082FA"/><stop offset="1" stop-color="#00F2FE"/></linearGradient><linearGradient id="b" x1="275" y1="750" x2="1225" y2="750" gradientUnits="userSpaceOnUse"><stop stop-color="#0082FA"/><stop offset="1" stop-color="#00F2FE"/></linearGradient></defs></svg>