<?xml version="1.0" encoding="utf-8"?>
<!-- Generator: Adobe Illustrator 27.4.0, SVG Export Plug-In . SVG Version: 6.00 Build 0)  -->
<svg version="1.1" id="body_1" xmlns="http://www.w3.org/2000/svg" xmlns:xlink="http://www.w3.org/1999/xlink" x="0px" y="0px"
	 viewBox="0 0 24 24" style="enable-background:new 0 0 24 24;" xml:space="preserve">
<style type="text/css">
	.st0{fill:#FFFFFF;}
	.st1{fill:#040D21;}
</style>
<circle class="st0" cx="12" cy="12" r="12"/>
<path class="st1" d="M4.9,4.1c0,0,4.3,2.5,5.6,5.3c0.5-0.1,1-0.2,1.6-0.2c0.6,0,1.1,0.1,1.6,0.2c1.4-2.8,5.6-5.3,5.6-5.3
	c0.2,1.6,0,5.5-1.7,8.7c-0.1-0.2-0.2-0.3-0.3-0.5c0.6-1.2,0.7-1.9,0.7-3.3c-0.3,1.3-0.5,2-1.1,2.8c-0.4-0.5-0.8-1-1.4-1.7l0,0l0,0
	c0.2-1.3,0.5-2.1,1.2-3.5c-1.4,1.6-2,2.9-2,4l0,0l0,0c0,0.7,0.2,1.3,0.7,1.8l0,0l0.1-0.6l0.4,0.2c0-0.1-0.1-0.3-0.1-0.4
	c0-0.1-0.1-0.2-0.1-0.4c0,0,0,0,0,0c0,0,0,0,0,0c0.5,0.4,1,0.9,1.8,1.8l0,0l0,0l0,0c0,0.2,0.1,0.4,0.1,0.6c0,0.3-0.1,0.8-0.1,1.3
	c0.2,0.1,0.3,0.2,0.4,0.4c-0.2,0-0.3,0-0.5,0.1c0,0,0,0,0,0.1c0.6,0.5,0.8,0.9,1.2,1.6c-0.6-0.5-0.9-0.8-1.3-1c0,0.1,0,0.1-0.1,0.2
	c0.3,0.6,0.4,1,0.2,1.7c-0.3-0.2-0.5-0.4-0.6-0.5c-0.1,0.3-0.3,0.7-0.4,1c-0.1,0.1-0.2,0.2-0.3,0.3c-0.2,0.3-0.4,0.5-1,0.6
	c0,0.8-0.1,1.1-0.3,1.5c-0.1,0.2-0.2,0.4-0.3,0.6c-0.1,0.2-0.3,0.3-0.4,0.5c-0.9,0.5-1,0.4-1.8,0l0,0l-0.1-0.1c-1,0.5-1,0.5-1.8,0.1
	c-0.2-0.2-0.4-0.4-0.6-0.6c-0.1-0.2-0.1-0.4-0.2-0.5c-0.2-0.4-0.3-0.7-0.3-1.5c-0.6-0.1-0.8-0.3-1-0.6C8.1,18.7,8,18.6,8,18.6
	c-0.2-0.4-0.3-0.7-0.5-1.1c-0.2,0.1-0.4,0.3-0.6,0.5c-0.1-0.7-0.1-1.1,0.2-1.7c0-0.1,0-0.1-0.1-0.2c-0.4,0.2-0.8,0.5-1.3,1
	c0.4-0.7,0.6-1.1,1.2-1.6c0,0,0,0,0-0.1c-0.2-0.1-0.3-0.1-0.5-0.1c0.1-0.2,0.2-0.3,0.4-0.4c-0.1-0.5-0.2-0.9-0.2-1.3
	c0-0.2,0-0.4,0.1-0.6c0.8-0.9,1.3-1.4,1.8-1.9c0,0.1-0.1,0.2-0.1,0.4c0,0.1-0.1,0.2-0.1,0.4l0,0l0.4-0.2l0.1,0.6
	c1.2-1.6,0.8-3.4-1.3-5.9c0.7,1.4,1,2.2,1.2,3.5l0,0l0,0c-0.7,0.7-1.1,1.2-1.4,1.7C6.6,11,6.4,10.2,6.1,9c0,1.4,0.2,2.2,0.7,3.3
	c-0.1,0.1-0.2,0.3-0.3,0.5C4.8,9.5,4.7,5.7,4.9,4.1z M10.6,16.1l-0.5-0.9l-1.4-0.2C8.8,15.9,9.4,16.3,10.6,16.1z M14.2,15.2
	l-0.5,0.9c1.1,0.2,1.8-0.2,1.8-1.1l0,0L14.2,15.2z M11.2,19.9c-0.2,0.1-0.3,0.3-0.3,0.6c0,0.4,0.5,0.8,1.2,0.8
	c0.7,0,1.2-0.4,1.2-0.8c0-0.2-0.1-0.4-0.4-0.6C12.6,20,12.3,20,12,20C11.7,20,11.4,20,11.2,19.9z"/>
</svg>
