<svg xmlns:osb="http://www.openswatchbook.org/uri/2009/osb" xmlns="http://www.w3.org/2000/svg" xmlns:xlink="http://www.w3.org/1999/xlink" id="svg8" version="1.1" viewBox="0 0 264.583 264.583" height="1000" width="1000"><defs id="defs2"><radialGradient gradientUnits="userSpaceOnUse" gradientTransform="matrix(1 0 0 1.40065 0 -10.328)" r="11.343" fy="25.778" fx="25.051" cy="25.778" cx="25.051" id="radialGradient1672" xlink:href="#linearGradient923"/><radialGradient gradientUnits="userSpaceOnUse" gradientTransform="matrix(1 0 0 1.40065 0 -10.328)" r="11.343" fy="25.778" fx="25.051" cy="25.778" cx="25.051" id="radialGradient1672-5" xlink:href="#linearGradient923"/><radialGradient gradientUnits="userSpaceOnUse" gradientTransform="matrix(1 0 0 1.40065 0 -10.328)" r="11.343" fy="25.778" fx="25.051" cy="25.778" cx="25.051" id="radialGradient1672-0" xlink:href="#linearGradient923"/><radialGradient gradientUnits="userSpaceOnUse" gradientTransform="matrix(1 0 0 1.40065 0 -10.328)" r="11.343" fy="25.778" fx="25.051" cy="25.778" cx="25.051" id="radialGradient1672-5-6" xlink:href="#linearGradient923"/><radialGradient gradientUnits="userSpaceOnUse" gradientTransform="matrix(1 0 0 1.40065 0 -10.328)" r="11.343" fy="25.778" fx="25.051" cy="25.778" cx="25.051" id="radialGradient1672-8" xlink:href="#linearGradient923"/><radialGradient gradientUnits="userSpaceOnUse" gradientTransform="matrix(1 0 0 1.40065 0 -10.328)" r="11.343" fy="25.778" fx="25.051" cy="25.778" cx="25.051" id="radialGradient1672-4" xlink:href="#linearGradient923"/><radialGradient gradientUnits="userSpaceOnUse" gradientTransform="matrix(1 0 0 1.40065 0 -10.328)" r="11.343" fy="25.778" fx="25.051" cy="25.778" cx="25.051" id="radialGradient1672-5-62" xlink:href="#linearGradient923"/><radialGradient gradientUnits="userSpaceOnUse" gradientTransform="matrix(1 0 0 1.40065 0 -10.328)" r="11.343" fy="25.778" fx="25.051" cy="25.778" cx="25.051" id="radialGradient1672-3" xlink:href="#linearGradient923"/><radialGradient gradientUnits="userSpaceOnUse" gradientTransform="matrix(1 0 0 1.40065 0 -10.328)" r="11.343" fy="25.778" fx="25.051" cy="25.778" cx="25.051" id="radialGradient1672-5-8" xlink:href="#linearGradient923"/><radialGradient gradientUnits="userSpaceOnUse" gradientTransform="matrix(1 0 0 1.40065 0 -10.328)" r="11.343" fy="25.778" fx="25.051" cy="25.778" cx="25.051" id="radialGradient1672-37" xlink:href="#linearGradient923"/><radialGradient gradientUnits="userSpaceOnUse" gradientTransform="matrix(1 0 0 1.40065 0 -10.328)" r="11.343" fy="25.778" fx="25.051" cy="25.778" cx="25.051" id="radialGradient1672-5-5" xlink:href="#linearGradient923"/><radialGradient gradientUnits="userSpaceOnUse" gradientTransform="matrix(1 0 0 1.40065 0 -10.328)" r="11.343" fy="25.778" fx="25.051" cy="25.778" cx="25.051" id="radialGradient1672-0-4" xlink:href="#linearGradient923"/><radialGradient gradientUnits="userSpaceOnUse" gradientTransform="matrix(1 0 0 1.40065 0 -10.328)" r="11.343" fy="25.778" fx="25.051" cy="25.778" cx="25.051" id="radialGradient1672-5-6-1" xlink:href="#linearGradient923"/><radialGradient gradientUnits="userSpaceOnUse" gradientTransform="matrix(1 0 0 1.40065 0 -10.328)" r="11.343" fy="25.778" fx="25.051" cy="25.778" cx="25.051" id="radialGradient1672-8-7" xlink:href="#linearGradient923"/><radialGradient gradientUnits="userSpaceOnUse" gradientTransform="matrix(1 0 0 1.40065 0 -10.328)" r="11.343" fy="25.778" fx="25.051" cy="25.778" cx="25.051" id="radialGradient1672-4-6" xlink:href="#linearGradient923"/><radialGradient gradientUnits="userSpaceOnUse" gradientTransform="matrix(1 0 0 1.40065 0 -10.328)" r="11.343" fy="25.778" fx="25.051" cy="25.778" cx="25.051" id="radialGradient1672-5-62-8" xlink:href="#linearGradient923"/><radialGradient gradientUnits="userSpaceOnUse" gradientTransform="matrix(1 0 0 1.40065 0 -10.328)" r="11.343" fy="25.778" fx="25.051" cy="25.778" cx="25.051" id="radialGradient1672-3-6" xlink:href="#linearGradient923"/><radialGradient gradientUnits="userSpaceOnUse" gradientTransform="matrix(1 0 0 1.40065 0 -10.328)" r="11.343" fy="25.778" fx="25.051" cy="25.778" cx="25.051" id="radialGradient1672-5-8-6" xlink:href="#linearGradient923"/><radialGradient gradientUnits="userSpaceOnUse" gradientTransform="matrix(1 0 0 1.40065 0 -10.328)" r="11.343" fy="25.778" fx="25.051" cy="25.778" cx="25.051" id="radialGradient1672-2" xlink:href="#linearGradient923"/><radialGradient gradientUnits="userSpaceOnUse" gradientTransform="matrix(1 0 0 1.40065 0 -10.328)" r="11.343" fy="25.778" fx="25.051" cy="25.778" cx="25.051" id="radialGradient1672-5-0" xlink:href="#linearGradient923"/><radialGradient gradientUnits="userSpaceOnUse" gradientTransform="matrix(1 0 0 1.40065 0 -10.328)" r="11.343" fy="25.778" fx="25.051" cy="25.778" cx="25.051" id="radialGradient1672-0-9" xlink:href="#linearGradient923"/><radialGradient gradientUnits="userSpaceOnUse" gradientTransform="matrix(1 0 0 1.40065 0 -10.328)" r="11.343" fy="25.778" fx="25.051" cy="25.778" cx="25.051" id="radialGradient1672-5-6-4" xlink:href="#linearGradient923"/><radialGradient gradientUnits="userSpaceOnUse" gradientTransform="matrix(1 0 0 1.40065 0 -10.328)" r="11.343" fy="25.778" fx="25.051" cy="25.778" cx="25.051" id="radialGradient1672-8-0" xlink:href="#linearGradient923"/><radialGradient gradientUnits="userSpaceOnUse" gradientTransform="matrix(1 0 0 1.40065 0 -10.328)" r="11.343" fy="25.778" fx="25.051" cy="25.778" cx="25.051" id="radialGradient1672-4-9" xlink:href="#linearGradient923"/><radialGradient gradientUnits="userSpaceOnUse" gradientTransform="matrix(1 0 0 1.40065 0 -10.328)" r="11.343" fy="25.778" fx="25.051" cy="25.778" cx="25.051" id="radialGradient1672-5-62-5" xlink:href="#linearGradient923"/><radialGradient gradientUnits="userSpaceOnUse" gradientTransform="matrix(1 0 0 1.40065 0 -10.328)" r="11.343" fy="25.778" fx="25.051" cy="25.778" cx="25.051" id="radialGradient1672-3-1" xlink:href="#linearGradient923"/><radialGradient gradientUnits="userSpaceOnUse" gradientTransform="matrix(1 0 0 1.40065 0 -10.328)" r="11.343" fy="25.778" fx="25.051" cy="25.778" cx="25.051" id="radialGradient1672-5-8-8" xlink:href="#linearGradient923"/><linearGradient osb:paint="gradient" id="linearGradient982"><stop id="stop978" offset="0" style="stop-color:#f0827d;stop-opacity:1"/><stop id="stop980" offset="1" style="stop-color:#f0827d;stop-opacity:0"/></linearGradient><linearGradient id="linearGradient923"><stop id="stop919" offset="0" style="stop-color:#000;stop-opacity:1"/><stop id="stop921" offset="1" style="stop-color:#000;stop-opacity:0"/></linearGradient><linearGradient id="linearGradient915"><stop id="stop911" offset="0" style="stop-color:#ff6255;stop-opacity:1"/><stop id="stop913" offset="1" style="stop-color:#ff6255;stop-opacity:0"/></linearGradient><linearGradient osb:paint="solid" id="linearGradient868"><stop id="stop866" offset="0" style="stop-color:#000;stop-opacity:1"/></linearGradient><linearGradient osb:paint="gradient" id="linearGradient1607"><stop id="stop1603" offset="0" style="stop-color:#ff6255;stop-opacity:1"/><stop id="stop1605" offset="1" style="stop-color:#da5b51;stop-opacity:0"/></linearGradient><linearGradient id="linearGradient6891-7"><stop style="stop-color:#ff8c8c;stop-opacity:1" offset="0" id="stop6887"/><stop style="stop-color:#ff8c8c;stop-opacity:0" offset="1" id="stop6889"/></linearGradient><linearGradient xlink:href="#linearGradient6891-7" id="linearGradient6893" x1="116.284" y1="131.068" x2="330.483" y2="131.068" gradientUnits="userSpaceOnUse" gradientTransform="matrix(1.01763 0 0 1.04328 -52.786 -431.941)"/><linearGradient gradientUnits="userSpaceOnUse" y2="-360.589" x2="294.478" y1="-366.637" x1="-5.883" id="linearGradient917" xlink:href="#linearGradient915"/><linearGradient gradientTransform="translate(-161.774 -52.917)" gradientUnits="userSpaceOnUse" y2="137.557" x2="1492.865" y1="137.557" x1="956.327" id="linearGradient925" xlink:href="#linearGradient923"/></defs><g transform="translate(0 -32.417)" id="layer1"><ellipse ry="90.663" rx="92.929" style="opacity:1;fill:#fff;fill-opacity:1;fill-rule:nonzero;stroke:none;stroke-width:13.73553276;stroke-miterlimit:4;stroke-dasharray:none;stroke-opacity:1;paint-order:normal" id="circle1199" cx="130.538" cy="169.522"/><ellipse ry="90.663" rx="92.929" cy="167.5" cx="130.538" id="path1185" style="opacity:1;fill:#000;fill-opacity:1;fill-rule:nonzero;stroke:#fff;stroke-width:6.84095478;stroke-miterlimit:4;stroke-dasharray:none;stroke-opacity:1;paint-order:normal"/><g transform="matrix(2.41703 0 0 2.55573 70.439 106.283)" id="g1265" style="clip-rule:evenodd;fill:#fff;fill-opacity:1;fill-rule:evenodd;stroke-linejoin:round;stroke-miterlimit:2"><g style="fill:#fff;fill-opacity:1" transform="matrix(.72135 0 0 .81144 6.546 5.103)" id="g1229"><path style="fill:#fff;fill-opacity:1" d="M27.411 7.92c0-.84-.766-1.521-1.711-1.521h-.002c-.944 0-1.71.681-1.71 1.521v35.117c0 .84.766 1.521 1.71 1.521h.002c.945 0 1.711-.681 1.711-1.521V7.92z" id="path1227"/></g><g style="fill:#fff;fill-opacity:1" transform="matrix(.0006 -.72135 .25857 .00021 18.428 54.784)" id="g1233"><path style="fill:#fff;fill-opacity:1" d="M27.411 11.171c0-2.635-.766-4.772-1.711-4.772h-.002c-.944 0-1.71 2.137-1.71 4.772v28.614c0 2.636.766 4.773 1.71 4.773h.002c.945 0 1.711-2.137 1.711-4.773V11.171z" id="path1231"/></g><g style="fill:#fff;fill-opacity:1" transform="matrix(.0006 -.72135 .57933 .00048 10.275 38.64)" id="g1237"><path style="fill:#fff;fill-opacity:1" d="M27.411 8.529c0-1.177-.766-2.13-1.711-2.13h-.002c-.944 0-1.71.953-1.71 2.13v33.899c0 1.176.766 2.13 1.71 2.13h.002c.945 0 1.711-.954 1.711-2.13V8.529z" id="path1235"/></g><g style="fill:#fff;fill-opacity:1" transform="matrix(.50952 -.51062 .39386 .393 1.942 23.243)" id="g1241"><path style="fill:#fff;fill-opacity:1" d="M27.411 8.617c0-1.225-.766-2.218-1.711-2.218h-.002c-.944 0-1.71.993-1.71 2.218V42.34c0 1.225.766 2.218 1.71 2.218h.002c.945 0 1.711-.993 1.711-2.218V8.617z" id="path1239"/></g><g style="fill:#fff;fill-opacity:1" transform="matrix(-.51096 -.50918 .39274 -.39411 28.195 43.26)" id="g1245"><path style="fill:#fff;fill-opacity:1" d="M27.411 8.617c0-1.225-.766-2.218-1.711-2.218h-.002c-.944 0-1.71.993-1.71 2.218V42.34c0 1.225.766 2.218 1.71 2.218h.002c.945 0 1.711-.993 1.711-2.218V8.617z" id="path1243"/></g></g><ellipse ry="79.882" rx="81.879" cy="168.119" cx="130.574" id="path1267" style="opacity:1;fill:none;fill-opacity:1;fill-rule:nonzero;stroke:#f0827d;stroke-width:3.92990994;stroke-miterlimit:4;stroke-dasharray:none;stroke-opacity:1;paint-order:normal"/></g><style type="text/css" id="style1053">.st0{fill:#043bea}</style></svg>