<svg version="1.1" id="Layer_1" xmlns="http://www.w3.org/2000/svg" x="0" y="0" viewBox="0 0 2000 2210" style="enable-background:new 0 0 2000 2210" xml:space="preserve"><style>.st2{fill:#ff564f}</style><path d="M198.5 1841.3 321.6 2210l845-1105L321.6 0 192.5 360.7l561.3 744.1-555.3 736.5z" style="opacity:.2;fill:#ff564f;enable-background:new"/><path d="M1999.7 2209.8h-401l-845.2-1105L1598.7 0h401l-833.3 1104.8 833.3 1105z" style="fill:#f08179"/><path class="st2" d="M0 0h321.4v2209.8H0V0z"/><path id="_x30_" class="st2" d="M2000 2209.8h-401l-845.2-1105L1599 0h401l-833.3 1104.8 833.3 1105z"/><path id="_x30__1_" class="st2" d="M2000 2209.8h-401l-845.2-1105L1599 0h401l-833.3 1104.8 833.3 1105z"/><path id="_x30__2_" class="st2" d="M2000 2209.8h-401l-845.2-1105L1599 0h401l-833.3 1104.8 833.3 1105z"/><path id="_x30__3_" class="st2" d="M2000 2209.8h-401l-845.2-1105L1599 0h401l-833.3 1104.8 833.3 1105z"/></svg>