<svg version="1.1" id="Layer_1" xmlns="http://www.w3.org/2000/svg" x="0" y="0" viewBox="0 0 80 80" style="enable-background:new 0 0 80 80" xml:space="preserve"><style>.st1{fill:#e53935}</style><circle cx="40" cy="40" r="36.3" style="fill:#22242f"/><path class="st1" d="M40 0c22.1 0 40 17.9 40 40S62.1 80 40 80 0 62.1 0 40 17.9 0 40 0zm0 3.7C20 3.7 3.7 20 3.7 40S20 76.3 40 76.3 76.3 60 76.3 40 60 3.7 40 3.7z"/><path class="st1" d="M63.5 25.3v-3.4H52.8c-.6-2.2-1.2-4.1-1.8-5.9l-3.6.6c.7 1.7 1.3 3.5 1.8 5.3H37.9v3.4h25.6zM36 50.5V28.8h-5.3c1.1-1.6 2.2-3.6 3.3-6v-2.5h-8.6c.5-1 .9-2.1 1.3-3.2l-3.4-1c-1.6 5.1-4 9.2-7.3 12.4l.8 3.7c.7-.6 1.4-1.3 2-1.9v20.2H36zm-8.9-21.7h-7c1.4-1.7 2.7-3.6 3.8-5.5h6.6c-1.1 2.1-2.2 4-3.4 5.5zM48.7 64c2.6 0 4-1.5 4-4.3V44.8H61V30H40.6v14.8H49v14c0 1.3-.5 2-1.6 2-1.2 0-2.5-.1-3.7-.3l.7 3.5h4.3zM25.9 38.1H22v-6.2h3.9v6.2zm6.9 0H29v-6.2h3.8v6.2zm24.6 3.4H44.2v-8.2h13.3v8.2zm-24.6 5.9H29v-6.2h3.8v6.2zm-6.9 0H22v-6.2h3.9v6.2zm35.3 14.2 2.8-1.9c-1.4-3.3-3.4-7.2-6-11.6l-2.8 1.7c2.5 4.2 4.6 8.2 6 11.8zm-21.9.9c2.3-3.6 4.3-7.9 6-12.8l-3-1.5c-1.6 4.7-3.6 8.8-5.8 12.2l2.8 2.1zm-4.4-3.6 2.6-.6c-.7-2.5-1.5-4.7-2.3-6.6l-2.5.7c.9 2.2 1.6 4.3 2.2 6.5zM29.4 62l2.7-.3c-.3-4-.9-7.1-1.7-9.4l-2.6.3c.8 2.2 1.3 5.3 1.6 9.4zm-10 1.4c1.1-3.1 1.8-6.6 2.1-10.5l-2.8-.4c-.3 3.8-1 7.1-2.1 10-.1 0 2.8.9 2.8.9zm4.4-.7 2.7-.3c-.1-4.1-.4-7.4-.7-9.8l-2.5.3c.2 2.3.4 5.6.5 9.8z"/></svg>