<svg xmlns="http://www.w3.org/2000/svg" viewBox="0 0 368.5 372.8" style="enable-background:new 0 0 368.5 372.8" xml:space="preserve"><circle cx="184.2" cy="184.2" r="184.2" style="fill:#fff"/><path d="M79 181c0 8.4-6.8 15.2-15.2 15.2-8.4 0-15.2-6.8-15.2-15.2 0-8.4 6.8-15.2 15.2-15.2 8.4 0 15.2 6.8 15.2 15.2m241.7 0c0 8.4-6.8 15.2-15.2 15.2-8.4 0-15.2-6.8-15.2-15.2 0-8.4 6.8-15.2 15.2-15.2 8.4 0 15.2 6.8 15.2 15.2m-120.8 60.1c0 8.4-6.8 15.2-15.2 15.2s-15.2-6.8-15.2-15.2c0-8.4 6.8-15.2 15.2-15.2 8.4 0 15.2 6.8 15.2 15.2M139 211.4c0 8.4-6.8 15.2-15.2 15.2s-15.2-6.8-15.2-15.2c0-8.4 6.8-15.2 15.2-15.2S139 203 139 211.4m120.9 0c0 8.4-6.8 15.2-15.2 15.3-8.4 0-15.2-6.8-15.3-15.2 0-8.4 6.8-15.2 15.2-15.3h.1c8.4.1 15.2 6.8 15.2 15.2M74.1 227.1c0 5.7-4.6 10.3-10.3 10.3-5.7 0-10.3-4.6-10.3-10.3 0-5.7 4.6-10.3 10.3-10.3 5.7 0 10.3 4.6 10.3 10.3m241.7 0c0 5.7-4.6 10.3-10.3 10.3-5.7 0-10.3-4.6-10.3-10.3 0-5.7 4.6-10.3 10.3-10.3 5.7 0 10.3 4.6 10.3 10.3m-120.9 60.8c0 5.7-4.6 10.3-10.3 10.3-5.7 0-10.3-4.6-10.3-10.3 0-5.7 4.6-10.3 10.3-10.3 5.7.1 10.3 4.6 10.3 10.3m-60.8-30.4c0 5.7-4.6 10.3-10.3 10.3-5.7 0-10.3-4.6-10.3-10.3 0-5.7 4.6-10.3 10.3-10.3 5.7 0 10.3 4.6 10.3 10.3m120.9 0c0 5.7-4.6 10.3-10.3 10.3-5.7 0-10.3-4.6-10.3-10.3 0-5.7 4.6-10.3 10.3-10.3 5.7 0 10.2 4.6 10.3 10.3m-185.9 5.8c0 3-2.4 5.4-5.4 5.4s-5.4-2.4-5.4-5.4c0-3 2.4-5.4 5.4-5.4s5.4 2.4 5.4 5.4m241.8 0c0 3-2.4 5.4-5.4 5.4-3 0-5.4-2.4-5.4-5.4 0-3 2.4-5.4 5.4-5.4 3 0 5.4 2.4 5.4 5.4M190 324.1c0 3-2.4 5.4-5.4 5.4-3 0-5.4-2.4-5.4-5.4s2.4-5.4 5.4-5.4c3 0 5.4 2.4 5.4 5.4m-60.9-30.4c0 3-2.4 5.4-5.4 5.4s-5.4-2.4-5.4-5.4c0-3 2.4-5.4 5.4-5.4s5.4 2.4 5.4 5.4m120.9 0c0 3-2.4 5.4-5.4 5.4-3 0-5.4-2.4-5.4-5.4 0-3 2.4-5.4 5.4-5.4 3 0 5.4 2.4 5.4 5.4M204.8 63.9c0 11.4-9.2 20.6-20.6 20.6-11.4 0-20.6-9.2-20.6-20.6s9.2-20.6 20.6-20.6c11.4 0 20.6 9.2 20.6 20.6m0 60.8c0 11.4-9.2 20.6-20.6 20.6-11.4 0-20.6-9.2-20.6-20.6s9.2-20.6 20.6-20.6c11.4 0 20.6 9.2 20.6 20.6m0 60c0 11.4-9.2 20.6-20.6 20.6-11.4 0-20.6-9.2-20.6-20.6 0-11.4 9.2-20.6 20.6-20.6 11.4.1 20.6 9.3 20.6 20.6m120.9-60c0 11.4-9.2 20.6-20.6 20.6-11.4 0-20.6-9.2-20.6-20.6s9.2-20.6 20.6-20.6c11.4 0 20.6 9.2 20.6 20.6m-241.8 0c0 11.4-9.2 20.6-20.5 20.6-11.4 0-20.6-9.2-20.6-20.5s9.2-20.6 20.5-20.6c11.4 0 20.6 9.1 20.6 20.5m60.9-30.4c0 11.4-9.2 20.6-20.5 20.6-11.4 0-20.6-9.2-20.6-20.5 0-11.4 9.2-20.6 20.5-20.6 11.3-.1 20.5 9.1 20.6 20.5m-.1 60c0 11.4-9.2 20.6-20.6 20.6s-20.6-9.2-20.6-20.6c0-11.4 9.2-20.6 20.6-20.6s20.6 9.3 20.6 20.6m120.9-60c0 11.4-9.2 20.6-20.6 20.6-11.4 0-20.6-9.2-20.6-20.6s9.2-20.6 20.6-20.6c11.4 0 20.6 9.2 20.6 20.6m0 60c0 11.4-9.2 20.6-20.6 20.6-11.4 0-20.6-9.2-20.6-20.6 0-11.4 9.2-20.6 20.6-20.6 11.4.1 20.6 9.3 20.6 20.6" style="fill:#141414"/></svg>