<svg viewBox="0 0 130 139" xmlns="http://www.w3.org/2000/svg" xml:space="preserve" style="fill-rule:evenodd;clip-rule:evenodd;stroke-linejoin:round;stroke-miterlimit:2"><path d="M127.6 25.6c-1.4-5.3-5.9-10.6-14-16.5-6.5-4.7-13.4-7.4-18.9-7.4-1.1 0-2.1.1-3.1.3-2.5.5-4.7 2.3-6.1 5-1.7 3.2-2.1 7.5-1 10.1.4.8.9 1.8 1.5 2.7-5.3 3.2-8.3 4.1-8.7 4.2 13.8 4.6 25.3 14.2 32.5 26.7l.1-1.2c.3-3.3 1.3-7.1 2.7-11 1.4.4 2.8.6 4.2.6 3.7 0 6.9-1.5 8.9-4.2s2.8-6.3 1.9-9.3Z" style="fill:#5e12a0;fill-rule:nonzero"/><path d="M113.2 35.6c9.1 2.5 12.8-4.5 11.6-9.2-1.3-4.7-5.5-9.5-12.9-14.9S97 3.9 92.2 4.9c-4.8 1-6.2 8.3-5 11.1.5 1.1 1.6 2.7 3.1 4.5-1.9 1.3-3.7 2.3-5.2 3.2 9.2 4.1 17.2 10.5 23.2 18.5.7-2.7 1.7-5.1 2.6-7.2.7.1 1.5.3 2.3.6Z" style="fill:url(#a);fill-rule:nonzero"/><path d="M61.1 133.6c30.873 0 55.9-25.027 55.9-55.9 0-30.873-25.027-55.9-55.9-55.9-30.873 0-55.9 25.027-55.9 55.9 0 30.873 25.027 55.9 55.9 55.9Z" style="fill:url(#b);fill-rule:nonzero"/><path d="M120.2 21.8c-7.6-8-14-10.1-21.7-11.8-6-1.4-4.4-4.8 2.9-4.1-3.5-1.2-6.8-1.5-9.2-1-4.8 1-6.2 8.3-5 11.1.5 1.1 1.6 2.7 3.1 4.5-2.7 1.8-5 3.1-6.9 4.1.9.4 2 .9 3.3 1.6 3.4 1.8 7.1 4.8 7.1 4.8-5.6-4.8-4.4-7 3.3-12.4 2.4-1.7 6.8-1.5 10.9.6 4.1 2.1 8.9 7.4 8.9 7.4l-4.6 8.8.9.3c2.9.8 5.2.6 7-.1 2.1-1.3 7.6-5.7 0-13.8Z" style="fill:#a98698;fill-opacity:.6;fill-rule:nonzero"/><path d="M98.4 14.8c2 .8 4.6 2.2 7.8 4.3 3.8 2.5 7.1 5.3 9.2 7.5-3.5 4.6-5.8 10.9-7.2 15.3.7 1 1.5 2 2.2 3 .7-2.5 1.9-6.2 3.5-9.9.4.1.9.1 1.4.1 1.2 0 2.6-.2 3.7-1.1.8-.6 1.7-1.7 1.6-3.7 0-1.9-1.5-4.3-4.6-7.2-2.2-2.1-5.2-4.4-8.2-6.5-8.6-5.7-14.6-7.3-17.3-4.6-1.8 1.8-1.6 4-1 5.6-3.2 2.1-5.9 3.6-7.7 4.6 1.2.4 2.3.9 3.5 1.4 3.2-1.7 7.8-4.6 13.1-8.8Zm18.9 14.3c.3.5.4 1 .4 1.3 0 .9-.3 1.2-.5 1.4-.4.3-1.2.5-1.9.5.6-1.2 1.3-2.2 2-3.2ZM92.6 14.2c.3-.3 1.1-.5 2.4-.3-1 .8-2 1.5-3 2.2-.1-.7 0-1.4.6-1.9Z" style="fill:#5e12a0;fill-rule:nonzero"/><path d="M61.1 18.5C28.4 18.5 1.9 45 1.9 77.7s26.5 59.2 59.2 59.2 59.2-26.5 59.2-59.2-26.6-59.2-59.2-59.2Zm0 115.1c-30.9 0-55.9-25-55.9-55.9s25-55.9 55.9-55.9 55.9 25 55.9 55.9-25.1 55.9-55.9 55.9Z" style="fill:#5e12a0;fill-rule:nonzero"/><path d="M61.1 133.6c30.873 0 55.9-25.027 55.9-55.9 0-30.873-25.027-55.9-55.9-55.9-30.873 0-55.9 25.027-55.9 55.9 0 30.873 25.027 55.9 55.9 55.9Z" style="fill:url(#c);fill-rule:nonzero"/><path d="M60.7 126.8c-30.5-4.9-51.2-33.6-46.2-64.1 2.2-13.5 9-25 18.6-33.3-14 8.1-24.4 22.2-27.2 39.4C1 99.3 21.7 128 52.1 132.9c17 2.8 33.4-2.5 45.5-12.9-10.7 6.2-23.7 8.9-36.9 6.8Z" style="fill:#a98698;fill-opacity:.6;fill-rule:nonzero"/><path d="M70 22.6c-14.1-2.3-27.8.9-39 8l-.4.4c4.3-2.6 10.6-4.9 10.6-4.9C25 35.5 20 46.2 20 46.2 26.3 34 44.8 25.4 59.3 24.8c14.5-.6 24 3.7 35.6 13 11.6 9.4 18.6 28.6 17.9 43.8-.6 15.2-8.6 27.5-8.6 27.5 5.5-7.1 8.8-12.3 10.9-17.6.4-1.6.8-3.2 1-4.9 5-30.4-15.6-59.1-46.1-64Z" style="fill:url(#d);fill-rule:nonzero"/><path d="M114.2 77.2c0 29.3-23.8 53.1-53.1 53.1S7.9 106.5 7.9 77.2h106.3Z" style="fill:url(#e);fill-rule:nonzero"/><path d="M110 77.2c0 28.6-22.6 52-51 53.1h2.1c29.3 0 53.1-23.8 53.1-53.1H110Z" style="fill:url(#f);fill-rule:nonzero"/><path d="M15.4 77.2H7.9c0 29.3 23.8 53.1 53.1 53.1 1.3 0 2.5 0 3.7-.1-27.5-2-49.3-25-49.3-53Z" style="fill:url(#g);fill-rule:nonzero"/><path d="M114.1 77.7c0-6.1-10.6-9.6-24.7-10.8-10.2-.8-20.5.2-32.3 3.8-10.2 3-19.4 2.5-26.1 1.7-14.9-1.7-23.1-1.9-23.1 5.3 0 10.4 21.2 23.4 53 18.9 16.1-2.3 24.4-7 33.9-10.2 10.3-3.4 19.3-3.3 19.3-8.7Z" style="fill:url(#h);fill-rule:nonzero"/><path d="M78.5 52.5a9 9 0 0 0 9-9 9 9 0 0 0-9-9 9 9 0 0 0-9 9 9 9 0 0 0 9 9Zm14.7 6.7a3.8 3.8 0 1 0 0-7.6 3.8 3.8 0 0 0 0 7.6Z" style="fill:#fff;fill-rule:nonzero"/><path d="M106.8 36.3h-.2c-.6-.1-1-.7-.9-1.4.9-4.6 4.7-9 4.9-9.2.4-.5 1.2-.5 1.6-.1.5.4.5 1.2.1 1.6-.1.1-3.6 4.2-4.4 8.2-.1.6-.6.9-1.1.9Z" style="fill:url(#i);fill-rule:nonzero"/><path d="M94.7 1.7c5.6 0 12.5 2.7 18.9 7.4 8.1 5.9 12.6 11.1 14 16.5.8 3.1.1 6.6-1.9 9.2-2.1 2.7-5.2 4.2-8.9 4.2-1.3 0-2.7-.2-4.2-.6-.9 2.3-1.6 4.6-2.1 6.8 6.1 9.3 9.7 20.5 9.7 32.5 0 32.7-26.5 59.2-59.2 59.2S1.9 110.4 1.9 77.7s26.5-59.2 59.2-59.2c7.2 0 14.1 1.3 20.5 3.7 1.2-.6 2.7-1.4 4.4-2.4-.6-.9-1.2-1.8-1.5-2.7-1.1-2.7-.7-6.9 1-10.1 1.4-2.6 3.5-4.4 6.1-5 .9-.2 2-.3 3.1-.3Zm0-1.7c-1.2 0-2.4.1-3.5.4-3 .7-5.6 2.7-7.3 5.9-1.9 3.7-2.4 8.5-1.1 11.6.2.4.4.9.7 1.4-.7.4-1.4.8-2.1 1.1-6.6-2.3-13.4-3.5-20.4-3.5-8.2 0-16.2 1.6-23.7 4.8-7.3 3.1-13.8 7.5-19.4 13.1-5.6 5.6-10 12.1-13.1 19.4C1.6 61.7 0 69.7 0 77.9s1.6 16.2 4.8 23.7c3.1 7.3 7.5 13.8 13.1 19.4 5.6 5.6 12.1 10 19.4 13.1 7.5 3.2 15.5 4.8 23.7 4.8s16.2-1.6 23.7-4.8c7.3-3.1 13.8-7.5 19.4-13.1 5.6-5.6 10-12.1 13.1-19.4 3.2-7.5 4.8-15.5 4.8-23.7 0-11.7-3.3-23-9.6-32.8.3-1.5.8-3 1.3-4.5 1 .2 2.1.3 3.1.3 4.2 0 7.9-1.7 10.3-4.9 2.3-3 3.2-7.2 2.2-10.7-1.6-5.8-6.2-11.3-14.7-17.4-6.7-5.1-14-7.9-19.9-7.9Z" style="fill:#fff;fill-rule:nonzero"/><path d="M57.4 119.4a2.8 2.8 0 1 0-.001-5.601 2.8 2.8 0 0 0 .001 5.601Z" style="fill:#fff;fill-opacity:.2;fill-rule:nonzero"/><path d="M55.8 118.4c-1.1-1.1-1.1-2.9 0-4 .2-.2.4-.3.6-.5-.4.1-.7.3-1 .6-1.1 1.1-1.1 2.9 0 4 .9.9 2.3 1.1 3.4.5-1 .4-2.2.2-3-.6Z" style="fill:url(#j);fill-rule:nonzero"/><path d="M58.4 115.8a.6.6 0 1 0-.001-1.201.6.6 0 0 0 .001 1.201Z" style="fill:#fff;fill-opacity:.3;fill-rule:nonzero"/><path d="M72 118a2.8 2.8 0 1 0-.001-5.601A2.8 2.8 0 0 0 72 118Z" style="fill:#fff;fill-opacity:.2;fill-rule:nonzero"/><path d="M70.4 117c-1.1-1.1-1.1-2.9 0-4 .2-.2.4-.3.6-.5-.4.1-.7.3-1 .6-1.1 1.1-1.1 2.9 0 4 .9.9 2.3 1.1 3.4.5-1 .4-2.2.2-3-.6Z" style="fill:url(#k);fill-rule:nonzero"/><path d="M73 114.4a.6.6 0 1 0-.001-1.201A.6.6 0 0 0 73 114.4Z" style="fill:#fff;fill-opacity:.3;fill-rule:nonzero"/><path d="M64.8 124.5a2.1 2.1 0 1 0 0-4.2 2.1 2.1 0 0 0 0 4.2Z" style="fill:#fff;fill-opacity:.2;fill-rule:nonzero"/><path d="M63.6 123.7c-.8-.8-.8-2.2 0-3 .1-.1.3-.2.4-.3-.3.1-.5.3-.7.5-.8.8-.8 2.2 0 3 .7.7 1.7.8 2.6.3-.8.3-1.7.1-2.3-.5Z" style="fill:url(#l);fill-rule:nonzero"/><path d="M65.5 121.7a.4.4 0 1 0 0-.8.4.4 0 0 0 0 .8Z" style="fill:#fff;fill-opacity:.3;fill-rule:nonzero"/><path d="M77.7 123a2.1 2.1 0 1 0 0-4.2 2.1 2.1 0 0 0 0 4.2Z" style="fill:#fff;fill-opacity:.2;fill-rule:nonzero"/><path d="M76.5 122.2c-.8-.8-.8-2.2 0-3 .1-.1.3-.2.4-.3-.3.1-.5.3-.7.5-.8.8-.8 2.2 0 3 .7.7 1.7.8 2.6.3-.8.3-1.7.1-2.3-.5Z" style="fill:url(#m);fill-rule:nonzero"/><path d="M78.4 120.2a.4.4 0 1 0 0-.8.4.4 0 0 0 0 .8Z" style="fill:#fff;fill-opacity:.3;fill-rule:nonzero"/><path d="M45.5 118.4a4.6 4.6 0 1 0 .001-9.199 4.6 4.6 0 0 0-.001 9.199Z" style="fill:#fff;fill-opacity:.2;fill-rule:nonzero"/><path d="M42.9 116.7c-1.8-1.8-1.8-4.7 0-6.5.3-.3.6-.5 1-.7-.6.2-1.1.6-1.6 1-1.8 1.8-1.8 4.7 0 6.5 1.5 1.5 3.8 1.8 5.6.7-1.7.7-3.7.4-5-1Z" style="fill:url(#n);fill-rule:nonzero"/><path d="M47.1 112.4a1 1 0 1 0 0-2 1 1 0 0 0 0 2Z" style="fill:#fff;fill-opacity:.3;fill-rule:nonzero"/><path d="M86.6 107.1a4.6 4.6 0 1 0 .001-9.199 4.6 4.6 0 0 0-.001 9.199Z" style="fill:#fff;fill-opacity:.2;fill-rule:nonzero"/><path d="M83.9 105.4c-1.8-1.8-1.8-4.7 0-6.5.3-.3.6-.5 1-.7-.6.2-1.1.6-1.6 1-1.8 1.8-1.8 4.7 0 6.5 1.5 1.5 3.8 1.8 5.6.7-1.7.7-3.6.4-5-1Z" style="fill:url(#o);fill-rule:nonzero"/><path d="M88.2 101.1a1 1 0 1 0 0-2 1 1 0 0 0 0 2Z" style="fill:#fff;fill-opacity:.3;fill-rule:nonzero"/><defs><linearGradient id="c" x1="0" y1="0" x2="1" y2="0" gradientUnits="userSpaceOnUse" gradientTransform="rotate(-80.793 104.148 35.759) scale(111.7467)"><stop offset="0" style="stop-color:#81ffff;stop-opacity:.6"/><stop offset=".62" style="stop-color:white;stop-opacity:0"/><stop offset="1" style="stop-color:white;stop-opacity:0"/></linearGradient><linearGradient id="d" x1="0" y1="0" x2="1" y2="0" gradientUnits="userSpaceOnUse" gradientTransform="rotate(137.463 42.514 39.427) scale(62.733)"><stop offset="0" style="stop-color:white;stop-opacity:.6"/><stop offset=".29" style="stop-color:white;stop-opacity:.6"/><stop offset=".78" style="stop-color:white;stop-opacity:0"/><stop offset="1" style="stop-color:white;stop-opacity:0"/></linearGradient><linearGradient id="e" x1="0" y1="0" x2="1" y2="0" gradientUnits="userSpaceOnUse" gradientTransform="translate(7.945 103.719) scale(106.229)"><stop offset="0" style="stop-color:#0002e9;stop-opacity:1"/><stop offset="1" style="stop-color:#ff00c7;stop-opacity:1"/><stop offset="1" style="stop-color:#ff00c7;stop-opacity:1"/></linearGradient><linearGradient id="f" x1="0" y1="0" x2="1" y2="0" gradientUnits="userSpaceOnUse" gradientTransform="rotate(136.618 43.321 64.65) scale(79.5556)"><stop offset="0" style="stop-color:white;stop-opacity:.6"/><stop offset=".29" style="stop-color:white;stop-opacity:.6"/><stop offset=".78" style="stop-color:white;stop-opacity:0"/><stop offset="1" style="stop-color:white;stop-opacity:0"/></linearGradient><linearGradient id="g" x1="0" y1="0" x2="1" y2="0" gradientUnits="userSpaceOnUse" gradientTransform="translate(7.945 103.719) scale(56.8321)"><stop offset="0" style="stop-color:#000292;stop-opacity:.7"/><stop offset="1" style="stop-color:#7d00c7;stop-opacity:.7"/><stop offset="1" style="stop-color:#7d00c7;stop-opacity:.7"/></linearGradient><linearGradient id="h" x1="0" y1="0" x2="1" y2="0" gradientUnits="userSpaceOnUse" gradientTransform="translate(8.016 82.111) scale(106.087)"><stop offset="0" style="stop-color:#000292;stop-opacity:1"/><stop offset="1" style="stop-color:#be00c7;stop-opacity:1"/><stop offset="1" style="stop-color:#be00c7;stop-opacity:1"/></linearGradient><linearGradient id="i" x1="0" y1="0" x2="1" y2="0" gradientUnits="userSpaceOnUse" gradientTransform="rotate(121.6 49.137 44.002) scale(14.548)"><stop offset="0" style="stop-color:white;stop-opacity:.6"/><stop offset=".29" style="stop-color:white;stop-opacity:.6"/><stop offset=".78" style="stop-color:white;stop-opacity:0"/><stop offset="1" style="stop-color:white;stop-opacity:0"/></linearGradient><linearGradient id="j" x1="0" y1="0" x2="1" y2="0" gradientUnits="userSpaceOnUse" gradientTransform="translate(54.572 116.686) scale(4.2309)"><stop offset="0" style="stop-color:white;stop-opacity:.6"/><stop offset=".29" style="stop-color:white;stop-opacity:.6"/><stop offset=".78" style="stop-color:white;stop-opacity:0"/><stop offset="1" style="stop-color:white;stop-opacity:0"/></linearGradient><linearGradient id="k" x1="0" y1="0" x2="1" y2="0" gradientUnits="userSpaceOnUse" gradientTransform="translate(69.162 115.267) scale(4.2309)"><stop offset="0" style="stop-color:white;stop-opacity:.6"/><stop offset=".29" style="stop-color:white;stop-opacity:.6"/><stop offset=".78" style="stop-color:white;stop-opacity:0"/><stop offset="1" style="stop-color:white;stop-opacity:0"/></linearGradient><linearGradient id="l" x1="0" y1="0" x2="1" y2="0" gradientUnits="userSpaceOnUse" gradientTransform="translate(62.687 122.424) scale(3.1763)"><stop offset="0" style="stop-color:white;stop-opacity:.6"/><stop offset=".29" style="stop-color:white;stop-opacity:.6"/><stop offset=".78" style="stop-color:white;stop-opacity:0"/><stop offset="1" style="stop-color:white;stop-opacity:0"/></linearGradient><linearGradient id="m" x1="0" y1="0" x2="1" y2="0" gradientUnits="userSpaceOnUse" gradientTransform="translate(75.544 120.92) scale(3.1763)"><stop offset="0" style="stop-color:white;stop-opacity:.6"/><stop offset=".29" style="stop-color:white;stop-opacity:.6"/><stop offset=".78" style="stop-color:white;stop-opacity:0"/><stop offset="1" style="stop-color:white;stop-opacity:0"/></linearGradient><linearGradient id="n" x1="0" y1="0" x2="1" y2="0" gradientUnits="userSpaceOnUse" gradientTransform="translate(40.904 113.917) scale(6.9094)"><stop offset="0" style="stop-color:white;stop-opacity:.6"/><stop offset=".29" style="stop-color:white;stop-opacity:.6"/><stop offset=".78" style="stop-color:white;stop-opacity:0"/><stop offset="1" style="stop-color:white;stop-opacity:0"/></linearGradient><linearGradient id="o" x1="0" y1="0" x2="1" y2="0" gradientUnits="userSpaceOnUse" gradientTransform="translate(81.942 102.614) scale(6.9094)"><stop offset="0" style="stop-color:white;stop-opacity:.6"/><stop offset=".29" style="stop-color:white;stop-opacity:.6"/><stop offset=".78" style="stop-color:white;stop-opacity:0"/><stop offset="1" style="stop-color:white;stop-opacity:0"/></linearGradient><radialGradient id="a" cx="0" cy="0" r="1" gradientUnits="userSpaceOnUse" gradientTransform="translate(122.976 20.1) scale(44.6944)"><stop offset="0" style="stop-color:#ffeaff;stop-opacity:.6"/><stop offset=".68" style="stop-color:#a087c9;stop-opacity:1"/><stop offset="1" style="stop-color:#10002f;stop-opacity:1"/></radialGradient><radialGradient id="b" cx="0" cy="0" r="1" gradientUnits="userSpaceOnUse" gradientTransform="translate(98.11 39.161) scale(109.351)"><stop offset="0" style="stop-color:#ffeaff;stop-opacity:.6"/><stop offset=".68" style="stop-color:#a087c9;stop-opacity:1"/><stop offset="1" style="stop-color:#10002f;stop-opacity:1"/></radialGradient></defs></svg>