<?xml version="1.0" encoding="utf-8"?>
<!-- Generator: Adobe Illustrator 27.4.0, SVG Export Plug-In . SVG Version: 6.00 Build 0)  -->
<svg version="1.1" id="Layer_1" xmlns="http://www.w3.org/2000/svg" xmlns:xlink="http://www.w3.org/1999/xlink" x="0px" y="0px"
	 viewBox="0 0 130 139" style="enable-background:new 0 0 130 139;" xml:space="preserve">
<style type="text/css">
	.st0{fill:#5E12A0;}
	.st1{fill:url(#SVGID_1_);}
	.st2{fill:url(#SVGID_00000155136953287195740780000011564809894405089675_);}
	.st3{fill:#A98698;fill-opacity:0.6;}
	.st4{fill:url(#SVGID_00000098943918738233208330000001402654701270493371_);}
	.st5{fill:url(#SVGID_00000131328923158864724770000017090796074560708754_);}
	.st6{fill:url(#SVGID_00000127741597112616795920000003787101935948541342_);}
	.st7{fill:url(#SVGID_00000005264307875473657810000012107166197846725052_);}
	.st8{fill:url(#SVGID_00000005987958420100643780000002294685432850878384_);}
	.st9{fill:url(#SVGID_00000037687277628210046910000000315885158318638724_);}
	.st10{fill:#FFFFFF;}
	.st11{fill:url(#SVGID_00000118378721899412817120000018159092765005914533_);}
	.st12{fill:#FFFFFF;fill-opacity:0.2;}
	.st13{fill:url(#SVGID_00000118364787212778895100000003043602959255654284_);}
	.st14{fill:#FFFFFF;fill-opacity:0.3;}
	.st15{fill:url(#SVGID_00000100357165177134803370000010718634853949011130_);}
	.st16{fill:url(#SVGID_00000044158426017765790670000006111493948921456793_);}
	.st17{fill:url(#SVGID_00000152233464174164497770000014529129214717206402_);}
	.st18{fill:url(#SVGID_00000037662934549181031290000009637234332599971247_);}
	.st19{fill:url(#SVGID_00000079462892561430318030000014796328178091751090_);}
</style>
<path class="st0" d="M127.6,25.6c-1.4-5.3-5.9-10.6-14-16.5c-6.5-4.7-13.4-7.4-18.9-7.4c-1.1,0-2.1,0.1-3.1,0.3
	c-2.5,0.5-4.7,2.3-6.1,5c-1.7,3.2-2.1,7.5-1,10.1c0.4,0.8,0.9,1.8,1.5,2.7c-5.3,3.2-8.3,4.1-8.7,4.2c13.8,4.6,25.3,14.2,32.5,26.7
	l0.1-1.2c0.3-3.3,1.3-7.1,2.7-11c1.4,0.4,2.8,0.6,4.2,0.6c3.7,0,6.9-1.5,8.9-4.2S128.5,28.6,127.6,25.6z"/>
<radialGradient id="SVGID_1_" cx="51.8142" cy="83.2977" r="1" gradientTransform="matrix(44.6944 0 0 -44.6944 -2192.8271 3743.0408)" gradientUnits="userSpaceOnUse">
	<stop  offset="0" style="stop-color:#FFEAFF;stop-opacity:0.6"/>
	<stop  offset="0.68" style="stop-color:#A087C9"/>
	<stop  offset="1" style="stop-color:#10002F"/>
</radialGradient>
<path class="st1" d="M113.2,35.6c9.1,2.5,12.8-4.5,11.6-9.2c-1.3-4.7-5.5-9.5-12.9-14.9S97,3.9,92.2,4.9s-6.2,8.3-5,11.1
	c0.5,1.1,1.6,2.7,3.1,4.5c-1.9,1.3-3.7,2.3-5.2,3.2c9.2,4.1,17.2,10.5,23.2,18.5c0.7-2.7,1.7-5.1,2.6-7.2
	C111.6,35.1,112.4,35.3,113.2,35.6z"/>
<radialGradient id="SVGID_00000076592552464938714810000014277910297160398227_" cx="52.5153" cy="82.5304" r="1" gradientTransform="matrix(109.351 0 0 -109.351 -5644.4927 9063.9424)" gradientUnits="userSpaceOnUse">
	<stop  offset="0" style="stop-color:#FFEAFF;stop-opacity:0.6"/>
	<stop  offset="0.68" style="stop-color:#A087C9"/>
	<stop  offset="1" style="stop-color:#10002F"/>
</radialGradient>
<path style="fill:url(#SVGID_00000076592552464938714810000014277910297160398227_);" d="M61.1,133.6c30.9,0,55.9-25,55.9-55.9
	S92,21.8,61.1,21.8S5.2,46.8,5.2,77.7S30.2,133.6,61.1,133.6z"/>
<path class="st3" d="M120.2,21.8c-7.6-8-14-10.1-21.7-11.8c-6-1.4-4.4-4.8,2.9-4.1c-3.5-1.2-6.8-1.5-9.2-1c-4.8,1-6.2,8.3-5,11.1
	c0.5,1.1,1.6,2.7,3.1,4.5c-2.7,1.8-5,3.1-6.9,4.1c0.9,0.4,2,0.9,3.3,1.6c3.4,1.8,7.1,4.8,7.1,4.8c-5.6-4.8-4.4-7,3.3-12.4
	c2.4-1.7,6.8-1.5,10.9,0.6s8.9,7.4,8.9,7.4l-4.6,8.8l0.9,0.3c2.9,0.8,5.2,0.6,7-0.1C122.3,34.3,127.8,29.9,120.2,21.8L120.2,21.8z"
	/>
<path class="st0" d="M98.4,14.8c2,0.8,4.6,2.2,7.8,4.3c3.8,2.5,7.1,5.3,9.2,7.5c-3.5,4.6-5.8,10.9-7.2,15.3c0.7,1,1.5,2,2.2,3
	c0.7-2.5,1.9-6.2,3.5-9.9c0.4,0.1,0.9,0.1,1.4,0.1c1.2,0,2.6-0.2,3.7-1.1c0.8-0.6,1.7-1.7,1.6-3.7c0-1.9-1.5-4.3-4.6-7.2
	c-2.2-2.1-5.2-4.4-8.2-6.5c-8.6-5.7-14.6-7.3-17.3-4.6c-1.8,1.8-1.6,4-1,5.6c-3.2,2.1-5.9,3.6-7.7,4.6c1.2,0.4,2.3,0.9,3.5,1.4
	C88.5,21.9,93.1,19,98.4,14.8z M117.3,29.1c0.3,0.5,0.4,1,0.4,1.3c0,0.9-0.3,1.2-0.5,1.4c-0.4,0.3-1.2,0.5-1.9,0.5
	C115.9,31.1,116.6,30.1,117.3,29.1z M92.6,14.2c0.3-0.3,1.1-0.5,2.4-0.3c-1,0.8-2,1.5-3,2.2C91.9,15.4,92,14.7,92.6,14.2z"/>
<path class="st0" d="M61.1,18.5C28.4,18.5,1.9,45,1.9,77.7s26.5,59.2,59.2,59.2s59.2-26.5,59.2-59.2S93.7,18.5,61.1,18.5z
	 M61.1,133.6c-30.9,0-55.9-25-55.9-55.9s25-55.9,55.9-55.9s55.9,25,55.9,55.9S91.9,133.6,61.1,133.6z"/>
<linearGradient id="SVGID_00000178889501479127799750000007306849755425969547_" gradientUnits="userSpaceOnUse" x1="53.436" y1="82.5514" x2="54.4366" y2="82.5514" gradientTransform="matrix(17.8797 -110.307 -110.307 -17.8797 8202.7393 7503.2495)">
	<stop  offset="0" style="stop-color:#81FFFF;stop-opacity:0.6"/>
	<stop  offset="0.62" style="stop-color:#FFFFFF;stop-opacity:0"/>
	<stop  offset="1" style="stop-color:#FFFFFF;stop-opacity:0"/>
</linearGradient>
<path style="fill:url(#SVGID_00000178889501479127799750000007306849755425969547_);" d="M61.1,133.6c30.9,0,55.9-25,55.9-55.9
	S92,21.8,61.1,21.8S5.2,46.8,5.2,77.7S30.2,133.6,61.1,133.6z"/>
<path class="st3" d="M60.7,126.8c-30.5-4.9-51.2-33.6-46.2-64.1c2.2-13.5,9-25,18.6-33.3c-14,8.1-24.4,22.2-27.2,39.4
	C1,99.3,21.7,128,52.1,132.9c17,2.8,33.4-2.5,45.5-12.9C86.9,126.2,73.9,128.9,60.7,126.8z"/>
<linearGradient id="SVGID_00000155120858865199646030000004037634970070394536_" gradientUnits="userSpaceOnUse" x1="52.9975" y1="80.7468" x2="53.9975" y2="80.7468" gradientTransform="matrix(-46.2242 42.4117 42.4117 46.2242 -874.3762 -5940.4697)">
	<stop  offset="0" style="stop-color:#FFFFFF;stop-opacity:0.6"/>
	<stop  offset="0.29" style="stop-color:#FFFFFF;stop-opacity:0.6"/>
	<stop  offset="0.78" style="stop-color:#FFFFFF;stop-opacity:0"/>
	<stop  offset="1" style="stop-color:#FFFFFF;stop-opacity:0"/>
</linearGradient>
<path style="fill:url(#SVGID_00000155120858865199646030000004037634970070394536_);" d="M70,22.6c-14.1-2.3-27.8,0.9-39,8L30.6,31
	c4.3-2.6,10.6-4.9,10.6-4.9C25,35.5,20,46.2,20,46.2C26.3,34,44.8,25.4,59.3,24.8s24,3.7,35.6,13c11.6,9.4,18.6,28.6,17.9,43.8
	c-0.6,15.2-8.6,27.5-8.6,27.5c5.5-7.1,8.8-12.3,10.9-17.6c0.4-1.6,0.8-3.2,1-4.9C121.1,56.2,100.5,27.5,70,22.6z"/>
<linearGradient id="SVGID_00000183209160463069919520000007871298769287683713_" gradientUnits="userSpaceOnUse" x1="52.5007" y1="82.5457" x2="53.5013" y2="82.5457" gradientTransform="matrix(106.229 0 0 -106.229 -5569.1919 8872.4971)">
	<stop  offset="0" style="stop-color:#0002E9"/>
	<stop  offset="1" style="stop-color:#FF00C7"/>
	<stop  offset="1" style="stop-color:#FF00C7"/>
</linearGradient>
<path style="fill:url(#SVGID_00000183209160463069919520000007871298769287683713_);" d="M114.2,77.2c0,29.3-23.8,53.1-53.1,53.1
	S7.9,106.5,7.9,77.2C7.9,77.2,114.2,77.2,114.2,77.2z"/>
<linearGradient id="SVGID_00000112627190620244972410000011113925500791438232_" gradientUnits="userSpaceOnUse" x1="52.9834" y1="81.0128" x2="53.9834" y2="81.0128" gradientTransform="matrix(-57.8203 54.6435 54.6435 57.8203 -1244.082 -7497.4844)">
	<stop  offset="0" style="stop-color:#FFFFFF;stop-opacity:0.6"/>
	<stop  offset="0.29" style="stop-color:#FFFFFF;stop-opacity:0.6"/>
	<stop  offset="0.78" style="stop-color:#FFFFFF;stop-opacity:0"/>
	<stop  offset="1" style="stop-color:#FFFFFF;stop-opacity:0"/>
</linearGradient>
<path style="fill:url(#SVGID_00000112627190620244972410000011113925500791438232_);" d="M110,77.2c0,28.6-22.6,52-51,53.1h2.1
	c29.3,0,53.1-23.8,53.1-53.1C114.2,77.2,110,77.2,110,77.2z"/>
<linearGradient id="SVGID_00000059310939216103490020000002272710301376124549_" gradientUnits="userSpaceOnUse" x1="52.0666" y1="83.02" x2="53.0661" y2="83.02" gradientTransform="matrix(56.8321 0 0 -56.8321 -2951.1562 4821.9512)">
	<stop  offset="0" style="stop-color:#000292;stop-opacity:0.7"/>
	<stop  offset="1" style="stop-color:#7D00C7;stop-opacity:0.7"/>
	<stop  offset="1" style="stop-color:#7D00C7;stop-opacity:0.7"/>
</linearGradient>
<path style="fill:url(#SVGID_00000059310939216103490020000002272710301376124549_);" d="M15.4,77.2H7.9c0,29.3,23.8,53.1,53.1,53.1
	c1.3,0,2.5,0,3.7-0.1C37.2,128.2,15.4,105.2,15.4,77.2L15.4,77.2z"/>
<linearGradient id="SVGID_00000010288784119939128670000003539477147389702840_" gradientUnits="userSpaceOnUse" x1="52.5004" y1="82.547" x2="53.5004" y2="82.547" gradientTransform="matrix(106.087 0 0 -106.087 -5561.5947 8839.2451)">
	<stop  offset="0" style="stop-color:#000292"/>
	<stop  offset="1" style="stop-color:#BE00C7"/>
	<stop  offset="1" style="stop-color:#BE00C7"/>
</linearGradient>
<path style="fill:url(#SVGID_00000010288784119939128670000003539477147389702840_);" d="M114.1,77.7c0-6.1-10.6-9.6-24.7-10.8
	c-10.2-0.8-20.5,0.2-32.3,3.8c-10.2,3-19.4,2.5-26.1,1.7c-14.9-1.7-23.1-1.9-23.1,5.3c0,10.4,21.2,23.4,53,18.9
	c16.1-2.3,24.4-7,33.9-10.2C105.1,83,114.1,83.1,114.1,77.7z"/>
<path class="st10" d="M78.5,52.5c5,0,9-4,9-9s-4-9-9-9s-9,4-9,9S73.5,52.5,78.5,52.5z M93.2,59.2c2.1,0,3.8-1.7,3.8-3.8
	c0-2.1-1.7-3.8-3.8-3.8c0,0,0,0,0,0c-2.1,0-3.8,1.7-3.8,3.8C89.4,57.5,91.1,59.2,93.2,59.2z"/>
<linearGradient id="SVGID_00000176752989220757609250000008641587219820701824_" gradientUnits="userSpaceOnUse" x1="51.5133" y1="76.8101" x2="52.5133" y2="76.8101" gradientTransform="matrix(-7.6229 12.3909 12.3909 7.6229 -446.6778 -1198.5935)">
	<stop  offset="0" style="stop-color:#FFFFFF;stop-opacity:0.6"/>
	<stop  offset="0.29" style="stop-color:#FFFFFF;stop-opacity:0.6"/>
	<stop  offset="0.78" style="stop-color:#FFFFFF;stop-opacity:0"/>
	<stop  offset="1" style="stop-color:#FFFFFF;stop-opacity:0"/>
</linearGradient>
<path style="fill:url(#SVGID_00000176752989220757609250000008641587219820701824_);" d="M106.8,36.3h-0.2c-0.6-0.1-1-0.7-0.9-1.4
	c0.9-4.6,4.7-9,4.9-9.2c0.4-0.5,1.2-0.5,1.6-0.1c0.5,0.4,0.5,1.2,0.1,1.6c-0.1,0.1-3.6,4.2-4.4,8.2C107.8,36,107.3,36.3,106.8,36.3z
	"/>
<path class="st12" d="M57.4,119.4c1.5,0,2.8-1.3,2.8-2.8c0-1.5-1.3-2.8-2.8-2.8c-1.5,0-2.8,1.3-2.8,2.8
	C54.6,118.1,55.9,119.4,57.4,119.4z"/>
<linearGradient id="SVGID_00000071558434522756122640000010706831366657562026_" gradientUnits="userSpaceOnUse" x1="40.4738" y1="95.7239" x2="41.4738" y2="95.7239" gradientTransform="matrix(4.2309 0 0 -4.2309 -116.6657 521.6198)">
	<stop  offset="0" style="stop-color:#FFFFFF;stop-opacity:0.6"/>
	<stop  offset="0.29" style="stop-color:#FFFFFF;stop-opacity:0.6"/>
	<stop  offset="0.78" style="stop-color:#FFFFFF;stop-opacity:0"/>
	<stop  offset="1" style="stop-color:#FFFFFF;stop-opacity:0"/>
</linearGradient>
<path style="fill:url(#SVGID_00000071558434522756122640000010706831366657562026_);" d="M55.8,118.4c-1.1-1.1-1.1-2.9,0-4
	c0.2-0.2,0.4-0.3,0.6-0.5c-0.4,0.1-0.7,0.3-1,0.6c-1.1,1.1-1.1,2.9,0,4c0.9,0.9,2.3,1.1,3.4,0.5C57.8,119.4,56.6,119.2,55.8,118.4z"
	/>
<path class="st14" d="M58.4,115.8c0.3,0,0.6-0.3,0.6-0.6c0-0.3-0.3-0.6-0.6-0.6s-0.6,0.3-0.6,0.6C57.8,115.5,58.1,115.8,58.4,115.8z
	"/>
<path class="st12" d="M72,118c1.5,0,2.8-1.3,2.8-2.8c0-1.5-1.3-2.8-2.8-2.8c-1.5,0-2.8,1.3-2.8,2.8C69.2,116.7,70.5,118,72,118z"/>
<linearGradient id="SVGID_00000084517956648229697970000010725175634111337404_" gradientUnits="userSpaceOnUse" x1="40.4731" y1="95.7194" x2="41.4731" y2="95.7194" gradientTransform="matrix(4.2309 0 0 -4.2309 -102.0757 520.2008)">
	<stop  offset="0" style="stop-color:#FFFFFF;stop-opacity:0.6"/>
	<stop  offset="0.29" style="stop-color:#FFFFFF;stop-opacity:0.6"/>
	<stop  offset="0.78" style="stop-color:#FFFFFF;stop-opacity:0"/>
	<stop  offset="1" style="stop-color:#FFFFFF;stop-opacity:0"/>
</linearGradient>
<path style="fill:url(#SVGID_00000084517956648229697970000010725175634111337404_);" d="M70.4,117c-1.1-1.1-1.1-2.9,0-4
	c0.2-0.2,0.4-0.3,0.6-0.5c-0.4,0.1-0.7,0.3-1,0.6c-1.1,1.1-1.1,2.9,0,4c0.9,0.9,2.3,1.1,3.4,0.5C72.4,118,71.2,117.8,70.4,117z"/>
<path class="st14" d="M73,114.4c0.3,0,0.6-0.3,0.6-0.6c0-0.3-0.3-0.6-0.6-0.6s-0.6,0.3-0.6,0.6S72.7,114.4,73,114.4z"/>
<path class="st12" d="M64.8,124.5c1.2,0,2.1-0.9,2.1-2.1s-0.9-2.1-2.1-2.1c0,0,0,0,0,0c-1.2,0-2.1,0.9-2.1,2.1
	C62.7,123.6,63.6,124.5,64.8,124.5z"/>
<linearGradient id="SVGID_00000032633392998564550150000004713385952349168772_" gradientUnits="userSpaceOnUse" x1="36.3139" y1="100.2501" x2="37.3139" y2="100.2501" gradientTransform="matrix(3.1763 0 0 -3.1763 -52.6569 440.8806)">
	<stop  offset="0" style="stop-color:#FFFFFF;stop-opacity:0.6"/>
	<stop  offset="0.29" style="stop-color:#FFFFFF;stop-opacity:0.6"/>
	<stop  offset="0.78" style="stop-color:#FFFFFF;stop-opacity:0"/>
	<stop  offset="1" style="stop-color:#FFFFFF;stop-opacity:0"/>
</linearGradient>
<path style="fill:url(#SVGID_00000032633392998564550150000004713385952349168772_);" d="M63.6,123.7c-0.8-0.8-0.8-2.2,0-3
	c0.1-0.1,0.3-0.2,0.4-0.3c-0.3,0.1-0.5,0.3-0.7,0.5c-0.8,0.8-0.8,2.2,0,3c0.7,0.7,1.7,0.8,2.6,0.3C65.1,124.5,64.2,124.3,63.6,123.7
	z"/>
<path class="st14" d="M65.5,121.7c0.2,0,0.4-0.2,0.4-0.4s-0.2-0.4-0.4-0.4s-0.4,0.2-0.4,0.4S65.3,121.7,65.5,121.7L65.5,121.7z"/>
<path class="st12" d="M77.7,123c1.2,0,2.1-0.9,2.1-2.1s-0.9-2.1-2.1-2.1c0,0,0,0,0,0c-1.2,0-2.1,0.9-2.1,2.1
	C75.6,122.1,76.5,123,77.7,123z"/>
<linearGradient id="SVGID_00000168086820130903209970000005062314344527892153_" gradientUnits="userSpaceOnUse" x1="36.3139" y1="100.2488" x2="37.3139" y2="100.2488" gradientTransform="matrix(3.1763 0 0 -3.1763 -39.7999 439.3766)">
	<stop  offset="0" style="stop-color:#FFFFFF;stop-opacity:0.6"/>
	<stop  offset="0.29" style="stop-color:#FFFFFF;stop-opacity:0.6"/>
	<stop  offset="0.78" style="stop-color:#FFFFFF;stop-opacity:0"/>
	<stop  offset="1" style="stop-color:#FFFFFF;stop-opacity:0"/>
</linearGradient>
<path style="fill:url(#SVGID_00000168086820130903209970000005062314344527892153_);" d="M76.5,122.2c-0.8-0.8-0.8-2.2,0-3
	c0.1-0.1,0.3-0.2,0.4-0.3c-0.3,0.1-0.5,0.3-0.7,0.5c-0.8,0.8-0.8,2.2,0,3c0.7,0.7,1.7,0.8,2.6,0.3C78,123,77.1,122.8,76.5,122.2z"/>
<path class="st14" d="M78.4,120.2c0.2,0,0.4-0.2,0.4-0.4s-0.2-0.4-0.4-0.4s-0.4,0.2-0.4,0.4S78.2,120.2,78.4,120.2z"/>
<path class="st12" d="M45.5,118.4c2.5,0,4.6-2,4.7-4.5c0-2.5-2-4.6-4.5-4.7c0,0-0.1,0-0.1,0c-2.5,0-4.6,2.1-4.5,4.7
	C41,116.4,43,118.4,45.5,118.4z"/>
<linearGradient id="SVGID_00000004546943688176456730000017977959771765205410_" gradientUnits="userSpaceOnUse" x1="45.3293" y1="90.3924" x2="46.3293" y2="90.3924" gradientTransform="matrix(6.9094 0 0 -6.9094 -272.2942 738.4878)">
	<stop  offset="0" style="stop-color:#FFFFFF;stop-opacity:0.6"/>
	<stop  offset="0.29" style="stop-color:#FFFFFF;stop-opacity:0.6"/>
	<stop  offset="0.78" style="stop-color:#FFFFFF;stop-opacity:0"/>
	<stop  offset="1" style="stop-color:#FFFFFF;stop-opacity:0"/>
</linearGradient>
<path style="fill:url(#SVGID_00000004546943688176456730000017977959771765205410_);" d="M42.9,116.7c-1.8-1.8-1.8-4.7,0-6.5
	c0.3-0.3,0.6-0.5,1-0.7c-0.6,0.2-1.1,0.6-1.6,1c-1.8,1.8-1.8,4.7,0,6.5c1.5,1.5,3.8,1.8,5.6,0.7C46.2,118.4,44.2,118.1,42.9,116.7z"
	/>
<path class="st14" d="M47.1,112.4c0.6,0,1-0.4,1-1s-0.4-1-1-1s-1,0.4-1,1S46.5,112.4,47.1,112.4z"/>
<path class="st12" d="M86.6,107.1c2.5,0,4.6-2,4.7-4.5c0-2.5-2-4.6-4.5-4.7c0,0-0.1,0-0.1,0c-2.5,0-4.6,2.1-4.5,4.7
	C82.1,105.1,84.1,107.1,86.6,107.1z"/>
<linearGradient id="SVGID_00000044879865308056853820000004212855664238005428_" gradientUnits="userSpaceOnUse" x1="45.3293" y1="90.392" x2="46.3293" y2="90.392" gradientTransform="matrix(6.9094 0 0 -6.9094 -231.2562 727.1848)">
	<stop  offset="0" style="stop-color:#FFFFFF;stop-opacity:0.6"/>
	<stop  offset="0.29" style="stop-color:#FFFFFF;stop-opacity:0.6"/>
	<stop  offset="0.78" style="stop-color:#FFFFFF;stop-opacity:0"/>
	<stop  offset="1" style="stop-color:#FFFFFF;stop-opacity:0"/>
</linearGradient>
<path style="fill:url(#SVGID_00000044879865308056853820000004212855664238005428_);" d="M83.9,105.4c-1.8-1.8-1.8-4.7,0-6.5
	c0.3-0.3,0.6-0.5,1-0.7c-0.6,0.2-1.1,0.6-1.6,1c-1.8,1.8-1.8,4.7,0,6.5c1.5,1.5,3.8,1.8,5.6,0.7C87.2,107.1,85.3,106.8,83.9,105.4z"
	/>
<path class="st14" d="M88.2,101.1c0.6,0,1-0.4,1-1s-0.4-1-1-1s-1,0.4-1,1S87.6,101.1,88.2,101.1z"/>
</svg>
