<?xml version="1.0" encoding="utf-8"?>
<!-- Generator: Adobe Illustrator 27.4.0, SVG Export Plug-In . SVG Version: 6.00 Build 0)  -->
<svg version="1.1" id="Layer_1" xmlns="http://www.w3.org/2000/svg" xmlns:xlink="http://www.w3.org/1999/xlink" x="0px" y="0px"
	 viewBox="0 0 50 50" style="enable-background:new 0 0 50 50;" xml:space="preserve">
<style type="text/css">
	.st0{fill:#FFFFFF;}
	.st1{fill:#E50913;}
</style>
<ellipse class="st0" cx="25" cy="25" rx="25" ry="25"/>
<path class="st1" d="M35.5,8H14.1v4.2h21.4V8z"/>
<path d="M25.1,42.1c-2,0-3.8-0.3-5.3-1c-1.6-0.7-2.8-1.6-3.8-2.9c-0.9-1.3-1.4-2.8-1.5-4.7h7c0.1,1,0.5,1.8,1,2.4
	c0.6,0.5,1.4,0.8,2.3,0.8c1,0,1.8-0.2,2.3-0.7c0.6-0.5,0.9-1.1,0.9-1.9c0-0.7-0.2-1.3-0.7-1.7c-0.4-0.4-1-0.8-1.7-1.1
	c-0.6-0.3-1.6-0.6-2.8-1c-1.8-0.6-3.2-1.1-4.3-1.7c-1.1-0.6-2.1-1.4-2.9-2.4c-0.8-1.1-1.2-2.5-1.2-4.2c0-2.6,0.9-4.6,2.7-6
	c1.8-1.5,4.2-2.2,7.2-2.2c3,0,5.4,0.7,7.2,2.2c1.8,1.4,2.8,3.5,2.9,6.1h-7.2c-0.1-0.9-0.4-1.6-1-2.1c-0.6-0.5-1.4-0.8-2.3-0.8
	c-0.8,0-1.4,0.2-1.9,0.7c-0.5,0.4-0.7,1-0.7,1.9c0,0.9,0.4,1.6,1.2,2.1c0.8,0.5,2.1,1,3.9,1.6c1.8,0.6,3.2,1.2,4.3,1.7
	c1.1,0.6,2.1,1.4,2.9,2.4c0.8,1.1,1.2,2.4,1.2,4.1c0,1.6-0.4,3-1.2,4.3c-0.8,1.3-1.9,2.3-3.4,3.1C28.9,41.7,27.1,42.1,25.1,42.1z"/>
</svg>
