<?xml version="1.0" encoding="utf-8"?>
<!-- Generator: Adobe Illustrator 27.4.0, SVG Export Plug-In . SVG Version: 6.00 Build 0)  -->
<svg version="1.1" id="Layer_1" xmlns="http://www.w3.org/2000/svg" xmlns:xlink="http://www.w3.org/1999/xlink" x="0px" y="0px"
	 viewBox="0 0 64 64" style="enable-background:new 0 0 64 64;" xml:space="preserve">
<style type="text/css">
	.st0{fill-rule:evenodd;clip-rule:evenodd;fill:#949494;}
	.st1{fill-rule:evenodd;clip-rule:evenodd;fill:url(#SVGID_1_);}
	.st2{fill-rule:evenodd;clip-rule:evenodd;fill:url(#SVGID_00000005964550880889593520000012319609404653583023_);}
	.st3{fill-rule:evenodd;clip-rule:evenodd;fill:url(#SVGID_00000018922486195165446940000004716999575895290814_);}
	.st4{fill-rule:evenodd;clip-rule:evenodd;fill:url(#SVGID_00000080920739144221926890000016005421851284070044_);}
	.st5{fill-rule:evenodd;clip-rule:evenodd;fill:#F1F0F1;}
	.st6{fill-rule:evenodd;clip-rule:evenodd;fill:url(#SVGID_00000078752666316217576440000001488058133134794411_);}
	.st7{fill-rule:evenodd;clip-rule:evenodd;fill:url(#SVGID_00000145017798628716802520000010329410889822825608_);}
	.st8{fill-rule:evenodd;clip-rule:evenodd;fill:url(#SVGID_00000120548857148150079920000007316299368274162094_);}
	.st9{fill-rule:evenodd;clip-rule:evenodd;fill:url(#SVGID_00000067955830987232236990000015535259653661301431_);}
	.st10{fill-rule:evenodd;clip-rule:evenodd;fill:url(#SVGID_00000018938732189471345240000001476916266246499475_);}
	.st11{fill-rule:evenodd;clip-rule:evenodd;fill:url(#SVGID_00000036214465636364903310000004781000377136659870_);}
	.st12{fill-rule:evenodd;clip-rule:evenodd;fill:url(#SVGID_00000108305459227395422740000017171352680007477160_);}
	.st13{fill-rule:evenodd;clip-rule:evenodd;fill:url(#SVGID_00000102509791688130320060000000274251045212147594_);}
	.st14{fill-rule:evenodd;clip-rule:evenodd;fill:url(#SVGID_00000079462322565559908050000004576146554448474019_);}
</style>
<g>
	<g>
		<path class="st0" d="M54.1,37.1c3.3,1.5,5.6,5,5.6,9c0,5.4-4.3,9.9-9.5,9.9c-3,0-5.8-1.5-7.5-3.8c-0.6-0.8-1-2.6,0.5-4.3
			c0.8-1,2.7-2.2,5.4-3.4c2.1-1,4.1-2.1,5.4-3.5c0.5-0.5,0.8-1.1,1-1.6C55.1,38.5,54.8,37.5,54.1,37.1z"/>
		
			<linearGradient id="SVGID_1_" gradientUnits="userSpaceOnUse" x1="58.0961" y1="122.8242" x2="53.4542" y2="119.4394" gradientTransform="matrix(1 0 0 -1 0 166.154)">
			<stop  offset="0" style="stop-color:#C8C8C8"/>
			<stop  offset="1" style="stop-color:#B8B8B8"/>
		</linearGradient>
		<path class="st1" d="M54.7,39.7c2.8,1.8,3,4.7,3.1,6.3c0.1,1.8-1.1,6.9-6.4,7.7c-5.2,0.8-7.6-3.1-8.4-5.9c0,0,0.1-0.1,0.1-0.1
			c0.8-1,2.7-2.2,5.4-3.4c2.1-1,4.1-2.1,5.4-3.5C54.2,40.6,54.5,40.2,54.7,39.7L54.7,39.7z"/>
		
			<linearGradient id="SVGID_00000067952291900232864780000013768799150888696740_" gradientUnits="userSpaceOnUse" x1="51.4582" y1="117.7385" x2="57.6472" y2="121.4133" gradientTransform="matrix(1 0 0 -1 0 166.154)">
			<stop  offset="0" style="stop-color:#6B6A6B"/>
			<stop  offset="1" style="stop-color:#6B6A6B"/>
		</linearGradient>
		<path style="fill-rule:evenodd;clip-rule:evenodd;fill:url(#SVGID_00000067952291900232864780000013768799150888696740_);" d="
			M51.5,42.8c0.1,0.2,0.2,0.3,0.3,0.5c2.2,2.5,3.4,0.3,4.7,1.7c0.7,0.7,1.1,1.2,1.2,2.1c-0.3,2.2-1.8,6.1-6.4,6.8
			c-5.2,0.8-7.6-3.1-8.4-5.9c0,0,0.1-0.1,0.1-0.1c0.8-1,2.7-2.2,5.4-3.4C49.5,43.9,50.6,43.3,51.5,42.8L51.5,42.8z"/>
		
			<linearGradient id="SVGID_00000148658360956236740090000011507675534480323208_" gradientUnits="userSpaceOnUse" x1="45.9037" y1="115.3617" x2="54.7035" y2="119.0364" gradientTransform="matrix(1 0 0 -1 0 166.154)">
			<stop  offset="5.000000e-03" style="stop-color:#030303"/>
			<stop  offset="1" style="stop-color:#494949"/>
		</linearGradient>
		<path style="fill-rule:evenodd;clip-rule:evenodd;fill:url(#SVGID_00000148658360956236740090000011507675534480323208_);" d="
			M50.7,43.2c1,0.6,2.1,1.5,3.1,3.4c0.9,1.6,2,2.6,3.2,3.1c-0.9,1.8-2.6,3.6-5.6,4.1c-5.2,0.8-7.6-3.1-8.4-5.9c0,0,0.1-0.1,0.1-0.1
			c0.8-1,2.7-2.2,5.4-3.4C49.2,44,50,43.6,50.7,43.2L50.7,43.2z"/>
		
			<linearGradient id="SVGID_00000037650212976564923160000014590634291977148549_" gradientUnits="userSpaceOnUse" x1="42.3111" y1="117.2388" x2="52.3306" y2="113.9794" gradientTransform="matrix(1 0 0 -1 0 166.154)">
			<stop  offset="0" style="stop-color:#686868"/>
			<stop  offset="1" style="stop-color:#282828"/>
		</linearGradient>
		<path style="fill-rule:evenodd;clip-rule:evenodd;fill:url(#SVGID_00000037650212976564923160000014590634291977148549_);" d="
			M44.3,46.8c0.9,0.7,1,1.4,1.4,3.1c0.4,1.8,3.6,5,8,3.3c-0.7,0.3-1.4,0.6-2.3,0.7c-5.2,0.8-7.6-3.1-8.4-5.9c0,0,0.1-0.1,0.1-0.1
			C43.4,47.5,43.8,47.1,44.3,46.8z"/>
		<path class="st5" d="M50.3,44c0.9-0.5,1.2-0.1,1.3,0.1c0.1,0.2-0.2,1.2-0.9,1.5c-0.7,0.3-1.3,0.2-1.5,0
			C49.1,45.5,49.6,44.5,50.3,44z"/>
		
			<linearGradient id="SVGID_00000070834328715825044640000002198484839140360884_" gradientUnits="userSpaceOnUse" x1="52.429" y1="121.8915" x2="53.3865" y2="119.3461" gradientTransform="matrix(1 0 0 -1 0 166.154)">
			<stop  offset="0" style="stop-color:#F0EFF0"/>
			<stop  offset="1" style="stop-color:#DCDBDC"/>
		</linearGradient>
		<path style="fill-rule:evenodd;clip-rule:evenodd;fill:url(#SVGID_00000070834328715825044640000002198484839140360884_);" d="
			M52.4,44.3c0.4-0.3,1.2,0.6,1.3,1.3c0.1,0.8-0.2,1.1-0.5,1.2c-0.3,0.1-0.8-0.6-0.9-1.4C52.1,44.9,52,44.6,52.4,44.3L52.4,44.3z"/>
		
			<linearGradient id="SVGID_00000101072987833937551190000018272358649082571154_" gradientUnits="userSpaceOnUse" x1="49.3419" y1="127.6805" x2="52.5845" y2="123.8397" gradientTransform="matrix(1 0 0 -1 0 166.154)">
			<stop  offset="0" style="stop-color:#C4C4C4"/>
			<stop  offset="0.995" style="stop-color:#8E8E8E"/>
		</linearGradient>
		<path style="fill-rule:evenodd;clip-rule:evenodd;fill:url(#SVGID_00000101072987833937551190000018272358649082571154_);" d="
			M48.3,44.5L48.3,44.5c0.1-2,0.6-4.1,1.5-5.7c0.8-1.5,2.8-2.3,4.1-1.8l0.2,0.1c0.8,0.4,1.1,1.4,0.8,2.2c-0.2,0.5-0.5,1.1-1,1.6
			c-1.3,1.4-3.3,2.5-5.4,3.5L48.3,44.5L48.3,44.5z"/>
		
			<linearGradient id="SVGID_00000112592795919245879830000007899794536796007046_" gradientUnits="userSpaceOnUse" x1="4.3037" y1="125.118" x2="48.3802" y2="150.3916" gradientTransform="matrix(1 0 0 -1 0 166.154)">
			<stop  offset="0" style="stop-color:#BCBCBC"/>
			<stop  offset="0.995" style="stop-color:#989898"/>
		</linearGradient>
		<path style="fill-rule:evenodd;clip-rule:evenodd;fill:url(#SVGID_00000112592795919245879830000007899794536796007046_);" d="
			M18.9,55.3C10.3,51.4,4.3,42.8,4.3,32.8C4.3,19.1,15.4,8.1,29,8.1c7.9,0,14.9,3.7,19.4,9.5c1.5,2.1,2.5,6.4-1.3,10.9
			c-2.1,2.5-7,5.4-13.8,8.5c-5.3,2.4-10.6,5.3-14,8.7c-1.3,1.3-2.1,2.7-2.5,4.1C16.1,51.7,16.8,54.3,18.9,55.3L18.9,55.3z"/>
		
			<linearGradient id="SVGID_00000029749375710954987940000012524311571521258383_" gradientUnits="userSpaceOnUse" x1="7.7015" y1="132.8244" x2="47.9513" y2="141.7841" gradientTransform="matrix(1 0 0 -1 0 166.154)">
			<stop  offset="0" style="stop-color:#C8C8C8"/>
			<stop  offset="1" style="stop-color:#B8B8B8"/>
		</linearGradient>
		<path style="fill-rule:evenodd;clip-rule:evenodd;fill:url(#SVGID_00000029749375710954987940000012524311571521258383_);" d="
			M17.1,48.8c-2.6-1.8-4.6-4.4-6.7-9.5c-3-7.2-0.8-25.9,17.9-27.9c8.5-0.9,17.6,6.5,19.8,15.7c-0.3,0.5-0.6,0.9-1,1.4
			c-2.1,2.5-7,5.4-13.8,8.5c-5.3,2.4-10.6,5.3-14,8.7C18.3,46.6,17.6,47.7,17.1,48.8L17.1,48.8z"/>
		
			<linearGradient id="SVGID_00000074421418499973453940000018081725800544492735_" gradientUnits="userSpaceOnUse" x1="9.4123" y1="129.8794" x2="26.2893" y2="129.8794" gradientTransform="matrix(1 0 0 -1 0 166.154)">
			<stop  offset="0" style="stop-color:#919191"/>
			<stop  offset="1" style="stop-color:#323232"/>
		</linearGradient>
		<path style="fill-rule:evenodd;clip-rule:evenodd;fill:url(#SVGID_00000074421418499973453940000018081725800544492735_);" d="
			M9.5,35.3c0.9-4,3.1-8,8-10.1c1.2-0.5,7.2-2.1,11.7-1.1c4.4,0.9,4.4,3.9,8.5,3.9c3,0,5-0.1,6,0.4c0.6,0.4,1.3,0.9,2,1.4
			c-2.5,2.1-6.8,4.5-12.4,7.1c-5.3,2.4-10.6,5.3-14,8.7c-1,1-1.7,2.1-2.2,3.1c-2.6-1.8-4.6-4.4-6.7-9.5C10,38.2,9.7,36.8,9.5,35.3
			L9.5,35.3z"/>
		
			<linearGradient id="SVGID_00000140006612797897830120000012619639753301639313_" gradientUnits="userSpaceOnUse" x1="14.524" y1="127.4963" x2="45.4485" y2="138.6423" gradientTransform="matrix(1 0 0 -1 0 166.154)">
			<stop  offset="5.000000e-03" style="stop-color:#030303"/>
			<stop  offset="1" style="stop-color:#494949"/>
		</linearGradient>
		<path style="fill-rule:evenodd;clip-rule:evenodd;fill:url(#SVGID_00000140006612797897830120000012619639753301639313_);" d="
			M30.7,24.6c2.9,1.2,3.4,3.4,6.9,3.5c3,0,5-0.1,6,0.4c0.6,0.4,1.3,0.9,2,1.4c-2.5,2.1-6.8,4.5-12.4,7.1c-5.3,2.4-10.6,5.3-14,8.7
			c-0.3,0.3-0.6,0.6-0.8,0.9c-2.2-3.2-4.5-9-1.5-14.2C20.2,26.9,25,24.7,30.7,24.6z"/>
		
			<linearGradient id="SVGID_00000146499903838544932650000015353806312013131395_" gradientUnits="userSpaceOnUse" x1="30.7518" y1="114.6895" x2="22.9315" y2="123.7938" gradientTransform="matrix(1 0 0 -1 0 166.154)">
			<stop  offset="0" style="stop-color:#C4C4C4"/>
			<stop  offset="0.995" style="stop-color:#8E8E8E"/>
		</linearGradient>
		<path style="fill-rule:evenodd;clip-rule:evenodd;fill:url(#SVGID_00000146499903838544932650000015353806312013131395_);" d="
			M33.7,36.7L33.7,36.7c-0.2,5-1.6,10.4-3.7,14.2c-2.1,3.8-7.2,5.8-10.6,4.4l-0.4-0.2c-2-1-2.7-3.6-2.1-5.6c0.4-1.4,1.3-2.8,2.5-4.1
			c3.4-3.4,8.6-6.3,14-8.7L33.7,36.7L33.7,36.7z"/>
		<path class="st5" d="M25.8,31.5c-1-1.5,0.5-3.6,2.2-4.3c1.6-0.7,3.2-0.8,4,0c0.8,0.8,0.4,3.1-1.8,4.3
			C27.8,32.7,26.6,32.6,25.8,31.5z"/>
		
			<linearGradient id="SVGID_00000111189521649401266960000005555343877889976503_" gradientUnits="userSpaceOnUse" x1="45.9617" y1="137.3862" x2="32.7796" y2="136.3877" gradientTransform="matrix(1 0 0 -1 0 166.154)">
			<stop  offset="0" style="stop-color:#919191"/>
			<stop  offset="1" style="stop-color:#323232"/>
		</linearGradient>
		<path style="fill-rule:evenodd;clip-rule:evenodd;fill:url(#SVGID_00000111189521649401266960000005555343877889976503_);" d="
			M31,24.7c2.7,1.2,3.2,3.3,6.7,3.3c3,0,5-0.1,6,0.4c0.6,0.4,1.3,0.9,2,1.4c-1.7,1.5-4.3,3.1-7.6,4.8C35.8,30.4,33.3,28.3,31,24.7z"
			/>
		
			<linearGradient id="SVGID_00000120522603709020327360000000845271534664650916_" gradientUnits="userSpaceOnUse" x1="33.8939" y1="138.5728" x2="36.4481" y2="131.9317" gradientTransform="matrix(1 0 0 -1 0 166.154)">
			<stop  offset="0" style="stop-color:#F0EFF0"/>
			<stop  offset="1" style="stop-color:#DCDBDC"/>
		</linearGradient>
		<path style="fill-rule:evenodd;clip-rule:evenodd;fill:url(#SVGID_00000120522603709020327360000000845271534664650916_);" d="
			M34,28c0.9-0.3,2.2,0.6,2.9,2.1c0.7,1.6,0.8,3.5-1.2,4.1c-1.6,0.4-2.1-2.1-2.3-3.3C33.3,29.8,33.1,28.3,34,28z"/>
	</g>
</g>
</svg>
