<svg version="1.1" id="Layer_1" xmlns="http://www.w3.org/2000/svg" x="0" y="0" viewBox="0 0 43 43" style="enable-background:new 0 0 43 43" xml:space="preserve"><style>.st1{fill-rule:evenodd;clip-rule:evenodd;fill:url(#SVGID_00000155854620092831835860000008974239811900613515_)}.st2{fill:url(#SVGID_00000008150074509325616490000005793096136701269675_)}.st3{fill-rule:evenodd;clip-rule:evenodd;fill:url(#SVGID_00000083795510356693340590000009362947064892466364_)}</style><linearGradient id="SVGID_1_" gradientUnits="userSpaceOnUse" x1="19.977" y1="45.007" x2="35.553" y2="4.555" gradientTransform="matrix(1 0 0 -1 0 44)"><stop offset="0" style="stop-color:#3a447c"/><stop offset=".524" style="stop-color:#252945"/><stop offset="1" style="stop-color:#121114"/></linearGradient><path d="M14.7 1c8.4-.4 13.9 3.4 19.2 12.2C40.4 24 37 35 30.1 41.5c4.4-9.1 3.4-12.8-6.2-20.7S13.7 6.3 14.7 1z" style="fill:url(#SVGID_1_)"/><linearGradient id="SVGID_00000164477394289342684580000016297246811914150790_" gradientUnits="userSpaceOnUse" x1="24.039" y1="46.521" x2="39.803" y2="6.155" gradientTransform="matrix(1 0 0 -1 0 44)"><stop offset="0" style="stop-color:#7387f6"/><stop offset=".474" style="stop-color:#4b548d"/><stop offset="1" style="stop-color:#1f1d23"/></linearGradient><path style="fill-rule:evenodd;clip-rule:evenodd;fill:url(#SVGID_00000164477394289342684580000016297246811914150790_)" d="M43 21.7c0 8.8-5.3 16.4-12.9 19.8 4.9-4.5 10.8-16.3 4-27.3C28.2 4.4 19.4 1.9 14.7 1c2.1-.7 4.3-1 6.6-1C33.3 0 43 9.7 43 21.7z"/><linearGradient id="SVGID_00000172418264034566649800000010275460539342620300_" gradientUnits="userSpaceOnUse" x1="22.912" y1="-.049" x2="7.336" y2="40.403" gradientTransform="matrix(1 0 0 -1 0 44)"><stop offset="0" style="stop-color:#53347a"/><stop offset=".524" style="stop-color:#37244d"/><stop offset="1" style="stop-color:#16141b"/></linearGradient><path style="fill:url(#SVGID_00000172418264034566649800000010275460539342620300_)" d="M28.3 42c-5.7 1-12.6-2.6-19.2-12.2C2 19.4 6 8 12.9 1.5c-4.4 9.1-3.4 12.8 6.2 20.7 9.6 7.9 10.2 14.5 9.2 19.8z"/><linearGradient id="SVGID_00000015351852310556470900000009725570757911161750_" gradientUnits="userSpaceOnUse" x1="18.961" y1="-1.521" x2="3.197" y2="38.845" gradientTransform="matrix(1 0 0 -1 0 44)"><stop offset="0" style="stop-color:#a868f5"/><stop offset=".474" style="stop-color:#684692"/><stop offset="1" style="stop-color:#25222a"/></linearGradient><path style="fill-rule:evenodd;clip-rule:evenodd;fill:url(#SVGID_00000015351852310556470900000009725570757911161750_)" d="M0 21.3C0 12.5 5.3 4.9 12.9 1.5 8 6 2.1 17.8 8.9 28.8 14.8 38.6 23.6 41 28.3 42c-2.1.7-4.3 1-6.6 1C9.7 43 0 33.3 0 21.3z"/></svg>