<svg version="1.1" id="Layer_1" xmlns="http://www.w3.org/2000/svg" x="0" y="0" viewBox="0 0 200 200" style="enable-background:new 0 0 200 200" xml:space="preserve"><style>.st1{fill:#eaeaea}.st2{fill:#fff}</style><path d="M0 46.2C0 20.7 20.7 0 46.2 0h107.7C179.3 0 200 20.7 200 46.2v107.7c0 25.5-20.7 46.2-46.2 46.2H46.2C20.7 200 0 179.3 0 153.8V46.2z" style="fill:#28282e"/><path class="st1" d="m61.5 67.1 28 16.2v27.4l-28-16.2V67.1z"/><path class="st2" d="M110.6 38.5 138 54 89.5 83.2 61.5 67l49.1-28.5z"/><path class="st1" d="m138 132.9-28-16.2V89.4l28 16.2v27.3z"/><path class="st2" d="M88.9 161.5 61.5 146l48.5-29.2 28 16.2-49.1 28.5z"/></svg>