<?xml version="1.0" encoding="UTF-8"?>
<svg xmlns="http://www.w3.org/2000/svg" width="75" height="75" viewBox="0 0 75 75" fill="none">
  <path d="M37.5 75C58.2107 75 75 58.2107 75 37.5C75 16.7893 58.2107 0 37.5 0C16.7893 0 0 16.7893 0 37.5C0 58.2107 16.7893 75 37.5 75Z" fill="url(#paint0_linear_135_9)"></path>
  <path fill-rule="evenodd" clip-rule="evenodd" d="M5.80968 17.3819L31.3721 50.8151C34.586 54.5111 37.5976 55.4369 41.2471 53.9679C45.1469 51.675 45.2901 47.0891 41.4617 43.2914C38.4823 40.9272 36.442 39.3423 32.3023 36.2333C18.9926 26.2374 31.9446 10.1867 44.2167 18.1404C45.8432 19.4169 46.6313 20.1737 47.7588 21.6157L71.8061 52.9893C71.1272 54.4911 70.3529 55.9403 69.4908 57.3291L43.9662 24.0878C42.9445 22.8692 42.4357 22.3918 41.5691 21.8306C33.0895 17.2447 27.8658 26.8107 34.5206 32.2206C35.3799 32.8736 36.1816 33.4772 36.9388 34.0473C39.7126 36.1357 41.8889 37.7743 44.1093 39.7444C50.9431 45.0111 49.834 54.4695 43.68 57.7299C38.8498 60.4886 32.2666 59.5212 28.0089 53.8246L3.44873 21.7172C4.14242 20.2159 4.93202 18.7682 5.80968 17.3819Z" fill="white"></path>
  <defs>
    <linearGradient id="paint0_linear_135_9" x1="11.5714" y1="11" x2="59.2857" y2="66.1429" gradientUnits="userSpaceOnUse">
      <stop stop-color="#02B8FF"></stop>
      <stop offset="0.555208" stop-color="#2436FF"></stop>
      <stop offset="1" stop-color="#7026FE"></stop>
    </linearGradient>
  </defs>
</svg>
