<svg xmlns="http://www.w3.org/2000/svg" viewBox="0 0 432 432" style="enable-background:new 0 0 432 432" xml:space="preserve"><circle cx="216" cy="216" r="181.9" style="fill:#191919"/><linearGradient id="a" gradientUnits="userSpaceOnUse" x1="47.482" y1="380.358" x2="432.071" y2="475.392" gradientTransform="translate(0 -206)"><stop offset="0" style="stop-color:#fef5a0"/><stop offset=".635" style="stop-color:#93d4cb"/><stop offset="1" style="stop-color:#719ad1"/></linearGradient><path d="M216 414c-52.9 0-102.6-20.6-140-58s-58-87.1-58-140S38.6 113.4 76 76s87.1-58 140-58 102.6 20.6 140 58 58 87.1 58 140-20.6 102.6-58 140-87.1 58-140 58zm0-379.9C115.7 34.1 34.1 115.7 34.1 216S115.7 397.9 216 397.9 397.9 316.3 397.9 216 316.3 34.1 216 34.1zM192.4 158 76.8 129.4l76.8 91.1-63 101.2L201 276.8l76.8 91.1-8.6-118.8 110.4-44.9L264 175.6l-8.6-118.8-63 101.2z" style="fill:url(#a)"/></svg>