<svg width="40" height="40" fill="none" xmlns="http://www.w3.org/2000/svg"><path d="M21.073 38.855C31.526 38.855 40 30.38 40 19.927 40 9.474 31.526 1 21.073 1 10.619 1 2.145 9.474 2.145 19.927c0 10.454 8.474 18.928 18.928 18.928Z" fill="url(#a)"/><path d="M21.073 37.435c9.669 0 17.508-7.838 17.508-17.508 0-9.669-7.84-17.507-17.508-17.507-9.67 0-17.508 7.838-17.508 17.507 0 9.67 7.838 17.508 17.508 17.508Z" fill="#000"/><path d="M6.136 14.69a6.136 6.136 0 1 0 0-12.27 6.136 6.136 0 0 0 0 12.27Z" fill="url(#b)"/><g filter="url(#c)"><path d="M4.833 3.628c-.317 1.508.19 3.05 2.02 4.554 2.366 1.943 2.481 2.726 1.442 4.93 1.963-.87 3.665-3.277 2.655-6.468C9.854 4.092 7.2 2.932 4.833 3.628Z" fill="url(#d)"/></g><g filter="url(#e)"><path d="M7.721 13.324c.321-1.514-.192-3.062-2.043-4.571-2.393-1.951-2.51-2.737-1.46-4.95-1.984.873-3.706 3.29-2.684 6.493 1.109 2.562 3.794 3.727 6.187 3.028Z" fill="#070707"/><path d="M5.673 8.759c.925.754 1.515 1.517 1.834 2.28.318.762.366 1.525.207 2.279-2.388.694-5.066-.468-6.173-3.025C.525 7.105 2.23 4.698 4.203 3.82c-.52 1.096-.75 1.843-.553 2.56.197.719.827 1.405 2.023 2.38Z" stroke="#fff" stroke-opacity=".1" stroke-width=".217"/></g><path d="M4.836 3.579c1.754.35 2.862.848 4.227 2.716 1.452 2.588.9 5.219-.712 6.743.932-2.392.872-2.861-1.38-4.802C4.72 6.296 4.585 4.83 4.836 3.58Z" fill="url(#f)" fill-opacity=".8"/><path d="M7.644 13.262c-1.758-.35-2.869-.848-4.238-2.717-1.457-2.588-.863-5.218.754-6.742-.935 2.392-.914 2.86 1.343 4.801 2.258 1.941 2.393 3.408 2.141 4.658Z" fill="url(#g)" fill-opacity=".5"/><path d="M27.15 20.668c-1.281-1.144-2.959-1.908-4.584-2.648l-.012-.004c-2.867-1.308-5.345-2.44-5.17-5.116.077-1.02.818-1.636 1.426-1.968.685-.376 1.594-.6 2.434-.6.1 0 .2.004.297.008 2.446.164 4.375 1.2 6.261 3.352l.112.132.132-.112.737-.64.132-.116-.116-.132c-2.102-2.408-4.384-3.62-7.174-3.808A3.928 3.928 0 0 0 21.236 9c-.084 0-.176 0-.272.004h-.12c-1.83 0-3.835.6-5.36 1.608-1.822 1.204-2.843 2.86-2.871 4.664-.072 4.388 3.519 5.864 6.686 7.172l.008.004.032.012c2.802 1.16 5.22 2.16 5.168 4.84-.024 1.768-2.554 2.744-4.292 2.744h-.244v.004c-2.59-.076-4.904-1.192-6.878-3.308l-.12-.128-.128.116-.717.664-.128.12.12.128c2.242 2.412 5.009 3.708 8.003 3.744h.136c1.934 0 4.036-.52 5.622-1.396 1.985-1.084 3.142-2.664 3.262-4.448.136-1.96-.516-3.556-1.993-4.876Zm-9.297-3.816c1.141.976 2.687 1.676 4.18 2.352l.028.012c1.581.728 3.079 1.416 4.164 2.372 1.2 1.056 1.71 2.28 1.601 3.852-.1 1.556-1.257 2.596-2.31 3.224.204-.416.316-.868.329-1.348.024-1.616-.597-2.908-1.902-3.956-1.141-.916-2.655-1.536-4.12-2.14-3.047-1.252-5.925-2.436-5.873-5.932.016-1.344.825-2.616 2.278-3.58.048-.032.096-.064.148-.096a3.26 3.26 0 0 0-.292 1.18c-.116 1.62.464 2.948 1.77 4.06Z" fill="#fff"/><filter id="c" filterUnits="userSpaceOnUse"><feBlend in="SourceGraphic" in2="BackgroundImageFix" result="shape"/><feColorMatrix in="SourceAlpha" values="0 0 0 0 0 0 0 0 0 0 0 0 0 0 0 0 0 0 127 0" result="hardAlpha"/><feOffset dy="4.333"/><feGaussianBlur stdDeviation="1.733"/><feComposite in2="hardAlpha" operator="arithmetic" k2="-1" k3="1"/><feColorMatrix values="0 0 0 0 0 0 0 0 0 0 0 0 0 0 0 0 0 0 0.8 0"/><feBlend in2="shape" result="effect1_innerShadow_4159_2699"/></filter><filter id="e"><feBlend in="SourceGraphic" in2="BackgroundImageFix" result="shape"/><feColorMatrix in="SourceAlpha" values="0 0 0 0 0 0 0 0 0 0 0 0 0 0 0 0 0 0 127 0" result="hardAlpha"/><feOffset dy="4.333"/><feGaussianBlur stdDeviation="1.733"/><feComposite in2="hardAlpha" operator="arithmetic" k2="-1" k3="1"/><feColorMatrix values="0 0 0 0 0 0 0 0 0 0 0 0 0 0 0 0 0 0 0.8 0"/><feBlend in2="shape" result="effect1_innerShadow_4159_2699"/></filter><linearGradient id="a" x1="21.073" y1="1" x2="21.073" y2="38.855" gradientUnits="userSpaceOnUse"><stop stop-color="#B977FF"/><stop offset="1" stop-color="#606DC8"/></linearGradient><linearGradient id="b" x1="2.429" y1="2.42" x2="8.991" y2="14.691" gradientUnits="userSpaceOnUse"><stop stop-color="#B977FF"/><stop offset="1" stop-color="#606DC8"/></linearGradient><linearGradient id="d" x1="7.997" y1="3.429" x2="7.997" y2="13.112" gradientUnits="userSpaceOnUse"><stop stop-color="#747474"/><stop offset=".211" stop-color="#4F4E4E"/><stop offset="1" stop-color="#020202"/></linearGradient><linearGradient id="f" x1="7.825" y1="5.182" x2="8.263" y2="12.657" gradientUnits="userSpaceOnUse"><stop/><stop offset="1" stop-color="#0E0E0E"/></linearGradient><linearGradient id="g" x1="4.647" y1="11.658" x2="4.21" y2="4.184" gradientUnits="userSpaceOnUse"><stop stop-color="#444"/><stop offset=".79" stop-color="#A2A2A2"/><stop offset="1" stop-color="#ADADAD"/></linearGradient></svg>