<?xml version="1.0" encoding="utf-8"?>
<!-- Generator: Adobe Illustrator 27.4.0, SVG Export Plug-In . SVG Version: 6.00 Build 0)  -->
<svg version="1.1" id="Layer_1" xmlns="http://www.w3.org/2000/svg" xmlns:xlink="http://www.w3.org/1999/xlink" x="0px" y="0px"
	 viewBox="0 0 24 24" style="enable-background:new 0 0 24 24;" xml:space="preserve">
<style type="text/css">
	.st0{fill:#E91079;}
	.st1{fill:#FEFEFF;}
</style>
<path class="st0" d="M12,24L12,24C5.4,24,0,18.6,0,12v0C0,5.4,5.4,0,12,0h0c6.6,0,12,5.4,12,12v0C24,18.6,18.6,24,12,24z"/>
<path class="st1" d="M12.3,18.8c-2.5,0-5.5-1.1-6-3.8c0-0.3,0-0.4,0.3-0.5C7.3,14.3,8,14.1,8.8,14c0.3-0.1,0.4,0,0.6,0.3
	c0.4,1.7,2.3,2.2,3.8,1.9c0.4-0.1,0.8-0.2,1.1-0.6c1.6-2.6-2.7-1.5-6-3.5c-2.3-1.4-2-4.9,0.2-6.1c2.7-1.5,7.2-1,8.6,2.2
	c0.1,0.2,0.1,0.5-0.2,0.6c-0.7,0.3-1.5,0.5-2.2,0.7c-0.7,0.2-0.6-0.7-1-1c-0.9-0.9-3.1-1-3.7,0.2c-0.4,1.2,1.1,1.6,2,1.8
	c1.4,0.3,2.9,0.6,4.2,1.3c1.5,0.8,1.8,2.7,1.3,4.2C16.8,18.1,14.3,18.8,12.3,18.8z"/>
</svg>
