<?xml version="1.0" encoding="utf-8"?>
<!-- Generator: Adobe Illustrator 27.4.0, SVG Export Plug-In . SVG Version: 6.00 Build 0)  -->
<svg version="1.1" id="Layer_1" xmlns="http://www.w3.org/2000/svg" xmlns:xlink="http://www.w3.org/1999/xlink" x="0px" y="0px"
	 viewBox="0 0 65 64" style="enable-background:new 0 0 65 64;" xml:space="preserve">
<style type="text/css">
	.st0{fill:#FFFFFF;}
	.st1{fill:#E50913;}
</style>
<circle class="st0" cx="32" cy="32" r="32"/>
<path d="M46.4,31.4c0,2.1-0.5,4.1-1.5,5.8c-1,1.7-2.5,3.1-4.5,4.2c-2,1.1-4.5,1.6-7.5,1.6h-5.5v13.1h-8.9V19.6h14.4
	c2.9,0,5.4,0.5,7.4,1.5c2,1,3.5,2.4,4.5,4.2C45.9,27,46.4,29.1,46.4,31.4z M32.3,35.9c1.7,0,3-0.4,3.8-1.2c0.8-0.8,1.2-1.9,1.2-3.4
	s-0.4-2.6-1.2-3.4c-0.8-0.8-2.1-1.2-3.8-1.2h-4.8v9.2H32.3z"/>
<path class="st1" d="M46.4,10.3H18.5v5.9h27.8V10.3z"/>
</svg>
