<svg xmlns="http://www.w3.org/2000/svg" width="24" height="24" viewBox="0 0 24 24" style="fill: var(--svg-color-fg,currentColor);">
	<path d="M20.3,4.3H3.7C2.8,4.3,2,5,2,5.9v12.2c0,0.9,0.8,1.7,1.7,1.7h16.7c0.9,0,1.7-0.8,1.7-1.7V5.9C22,5,21.2,4.3,20.3,4.3z M20.3,18.1H3.7V5.9h16.7V18.1z M9.2,12c1.2,0,2.2-1,2.2-2.2s-1-2.2-2.2-2.2S7,8.6,7,9.8S8,12,9.2,12z M6.1,16.4h6.2 c0.4,0,0.8-0.3,0.8-0.7v-0.7c0-1.1-1.1-2-2.3-2c-0.4,0-0.7,0.2-1.6,0.2S8,13.1,7.6,13.1c-1.2,0-2.3,0.9-2.3,2v0.7 C5.3,16.2,5.7,16.4,6.1,16.4z M14.5,14.3h3.9c0.2,0,0.2-0.2,0.2-0.2v-0.6c0-0.2-0.1-0.3-0.2-0.3h-3.9c-0.2,0-0.2,0.2-0.2,0.3V14 C14.2,14.1,14.3,14.3,14.5,14.3z M14.5,12h3.9c0.2,0,0.2-0.2,0.2-0.2v-0.6c0-0.2-0.1-0.2-0.2-0.2h-3.9c-0.2,0-0.2,0.2-0.2,0.2v0.6 C14.2,11.8,14.3,12,14.5,12z M14.5,9.8h3.9c0.2,0,0.2-0.1,0.2-0.2V8.9c0-0.2-0.1-0.2-0.2-0.2h-3.9c-0.2,0-0.2,0.2-0.2,0.2v0.6 C14.2,9.7,14.3,9.8,14.5,9.8z"/>
</svg>
