<svg xmlns="http://www.w3.org/2000/svg" width="24" height="24" viewBox="0 0 24 24">
	<path style="fill: var(--svg-color-fg, currentColor);" d="M20.2,10.9c0.2-0.4,0.2-0.8,0.2-1.3c0-2-1.6-3.6-3.6-3.6c-0.7,0-1.4,0.2-2,0.6c-1-1.8-3-3-5.2-3c-3.3,0-6,2.7-6,6
	c0,0.1,0,0.2,0,0.3C1.5,10.6,0,12.6,0,15c0,3,2.4,5.4,5.4,5.4h13.8c2.7,0,4.8-2.1,4.8-4.8C24,13.3,22.4,11.3,20.2,10.9z M15.2,14.2
	l-4,4c-0.2,0.2-0.6,0.2-0.8,0l-4-4c-0.4-0.4-0.1-1,0.4-1h2.5V9c0-0.3,0.3-0.6,0.6-0.6h1.8c0.3,0,0.6,0.3,0.6,0.6v4.2h2.5
	C15.3,13.2,15.6,13.8,15.2,14.2z"/>
</svg>
