<svg xmlns="http://www.w3.org/2000/svg" width="24" height="24" viewBox="0 0 24 24" style="fill: var(--svg-color-fg,currentColor);">
	<path d="M14.3,1.6c-0.5-0.2-1.1,0.2-1.2,0.7l-4,14c-0.2,0.5,0.2,1.1,0.7,1.2c0.5,0.2,1.1-0.2,1.2-0.7l4-14 C15.1,2.3,14.8,1.8,14.3,1.6L14.3,1.6z M16.8,5.4c-0.4,0.4-0.4,1,0,1.4l2.8,2.8l-2.8,2.8c-0.4,0.4-0.4,1,0,1.4s1,0.4,1.4,0l3.5-3.5 c0.4-0.4,0.4-1,0-1.4l-3.5-3.5C17.8,5,17.2,5,16.8,5.4L16.8,5.4z M7.2,5.4C6.8,5,6.2,5,5.8,5.4L2.3,8.9c-0.4,0.4-0.4,1,0,1.4 l3.5,3.5c0.4,0.4,1,0.4,1.4,0c0.4-0.4,0.4-1,0-1.4L4.4,9.6l2.8-2.8C7.6,6.4,7.6,5.8,7.2,5.4L7.2,5.4z"/>
</svg>
