<svg xmlns="http://www.w3.org/2000/svg" width="24" height="24" viewBox="0 0 24 24" style="fill: var(--svg-color-fg,currentColor);">
	<g>
		<path d="M20,11.8h-4.3c-0.4-2.4-2.8-4.5-5.2-4.5c-0.4,0-0.8,0.3-0.8,0.8s0.3,0.8,0.8,0.8c1.8,0,3.8,1.9,3.8,3.8s-1.9,3.8-3.8,3.8 c-0.4,0-0.8,0.3-0.8,0.8s0.3,0.8,0.8,0.8c2.4,0,4.7-2.1,5.2-4.5H20c0.4,0,0.8-0.3,0.8-0.8S20.4,11.8,20,11.8z"/>
		<path d="M10.5,14.2c1,0,1.8-0.8,1.8-1.8s-0.8-1.8-1.8-1.8c-0.7,0-1.3,0.4-1.6,1H4c-0.4,0-0.8,0.3-0.8,0.8s0.3,0.8,0.8,0.8h4.9 C9.2,13.8,9.8,14.2,10.5,14.2z"/>
	</g>
</svg>
