<svg xmlns="http://www.w3.org/2000/svg" width="24" height="24" viewBox="0 0 24 24" style="fill: var(--svg-color-fg, currentColor);">
	<path d="M7.8,14.8c0.5,0,0.8,0.4,0.8,0.8c0,0.5-0.4,0.8-0.8,0.8H6.2c-0.5,0-0.8-0.4-0.8-0.8c0-0.5,0.4-0.8,0.8-0.8H7.8z M14.5,14.8
	c0.5,0,0.8,0.4,0.8,0.8c0,0.5-0.4,0.8-0.8,0.8h-3.9c-0.5,0-0.8-0.4-0.8-0.8c0-0.5,0.4-0.8,0.8-0.8H14.5z M19.8,4.2
	c1.2,0,2.2,1,2.2,2.2v11.1c0,1.2-1,2.2-2.2,2.2H4.2c-1.2,0-2.2-1-2.2-2.2V6.4c0-1.2,1-2.2,2.2-2.2H19.8z M19.8,5.9H4.2
	c-0.3,0-0.6,0.2-0.6,0.6v1.1h16.7V6.4C20.3,6.1,20.1,5.9,19.8,5.9z M20.3,10.9H3.7v6.7c0,0.3,0.2,0.6,0.6,0.6h15.6
	c0.3,0,0.6-0.2,0.6-0.6V10.9z"/>
</svg>
