<svg xmlns="http://www.w3.org/2000/svg" width="24" height="24" viewBox="0 0 24 24">
	<path style="fill: var(--svg-color-fg, currentColor);" d="M23.4,10.5H22c-0.7-4.4-4.1-7.9-8.5-8.5V0.6c0-0.3-0.3-0.6-0.6-0.6h-1.9c-0.3,0-0.6,0.3-0.6,0.6V2C6.1,2.6,2.6,6.1,2,10.5
	H0.6c-0.3,0-0.6,0.3-0.6,0.6v1.9c0,0.3,0.3,0.6,0.6,0.6H2c0.7,4.4,4.1,7.9,8.5,8.5v1.4c0,0.3,0.3,0.6,0.6,0.6h1.9
	c0.3,0,0.6-0.3,0.6-0.6V22c4.4-0.7,7.9-4.1,8.5-8.5h1.4c0.3,0,0.6-0.3,0.6-0.6v-1.9C24,10.8,23.7,10.5,23.4,10.5z M13.5,19v-1.9
	c0-0.3-0.3-0.6-0.6-0.6h-1.9c-0.3,0-0.6,0.3-0.6,0.6V19c-2.7-0.6-4.9-2.7-5.5-5.5h1.9c0.3,0,0.6-0.3,0.6-0.6v-1.9
	c0-0.3-0.3-0.6-0.6-0.6H5C5.6,7.8,7.8,5.6,10.5,5v1.9c0,0.3,0.3,0.6,0.6,0.6h1.9c0.3,0,0.6-0.3,0.6-0.6V5c2.7,0.6,4.9,2.7,5.5,5.5
	h-1.9c-0.3,0-0.6,0.3-0.6,0.6v1.9c0,0.3,0.3,0.6,0.6,0.6H19C18.4,16.2,16.2,18.4,13.5,19z M13.5,12c0,0.8-0.7,1.5-1.5,1.5
	s-1.5-0.7-1.5-1.5s0.7-1.5,1.5-1.5S13.5,11.2,13.5,12z"/>
</svg>
