<svg xmlns="http://www.w3.org/2000/svg" width="24" height="24" viewBox="0 0 24 24">
	<path style="fill: var(--svg-color-fg,currentColor);" d="M12.1,4.9l2.7,1L12,7L9.2,5.9l2.7-1C12,4.9,12.1,4.9,12.1,4.9L12.1,4.9z M6.8,6.4v3.9c0,0-0.1,0-0.1,0l-3.3,1.3 c-0.8,0.3-1.3,1-1.3,1.8v4.1c0,0.8,0.5,1.5,1.2,1.8l3.3,1.5c0.5,0.2,1.1,0.2,1.6,0l3.9-1.7l3.9,1.7c0.5,0.2,1.1,0.2,1.6,0l3.3-1.5 c0.7-0.3,1.2-1,1.2-1.8v-4.1c0-0.8-0.5-1.5-1.3-1.8l-3.3-1.3c0,0-0.1,0-0.1,0V6.4c0-0.8-0.5-1.5-1.3-1.8l-3.3-1.3 c-0.4-0.2-0.9-0.2-1.4,0L8,4.6C7.3,4.9,6.8,5.6,6.8,6.4z M15.7,10.5l-2.9,1.1V8.5l2.9-1.1V10.5z M7.4,11.9l2.7,1L7.3,14L4.5,13 l2.7-1C7.3,11.9,7.4,11.9,7.4,11.9L7.4,11.9z M8.1,19v-3.5l2.9-1.1v3.3L8.1,19L8.1,19z M16.7,11.9c0.1,0,0.1,0,0.2,0l2.7,1L16.8,14 L14,13L16.7,11.9L16.7,11.9z M20.2,17.8L17.5,19v-3.5l2.9-1.1v3.1C20.4,17.7,20.3,17.8,20.2,17.8z"/>
</svg>
