<svg xmlns="http://www.w3.org/2000/svg" width="24" height="24" viewBox="0 0 24 24">
	<path style="fill: var(--svg-color-fg, currentColor);" d="M12,11.5c-0.6,0-1.1,0.5-1.1,1.1c0.1,3.4-0.4,6.7-1.3,9.9C9.5,23,9.7,24,10.7,24c0.5,0,0.9-0.3,1.1-0.8
	c0.6-2.2,1.5-5.9,1.4-10.5C13.1,12,12.6,11.5,12,11.5L12,11.5z M12,7.7c-2.9,0-4.9,2.2-4.8,4.7c0,2.2-0.2,4.5-0.6,6.7
	c-0.1,0.6,0.3,1.2,0.9,1.3c0.6,0.1,1.2-0.3,1.3-0.9c0.5-2.3,0.7-4.8,0.7-7.2c0-1.2,0.9-2.5,2.6-2.5c1.5,0,2.7,1.2,2.7,2.6
	c0,2.3-0.1,4.5-0.5,6.7c-0.1,0.6,0.3,1.2,0.9,1.3c0.9,0.2,1.3-0.7,1.3-0.9c0.4-2.3,0.6-4.7,0.5-7.1C16.8,9.9,14.6,7.7,12,7.7L12,7.7
	z M6.8,6.8C6.3,6.4,5.6,6.5,5.2,6.9C4,8.4,3.4,10.3,3.4,12.2c0,1.8-0.1,3.5-0.4,5.3c-0.1,0.6,0.3,1.2,0.9,1.3
	c0.9,0.2,1.3-0.7,1.3-0.9c0.3-1.9,0.5-3.8,0.5-5.7c0-1.4,0.4-2.7,1.3-3.8C7.3,7.9,7.3,7.2,6.8,6.8L6.8,6.8z M11.9,3.8
	c-0.7,0-1.4,0.1-2.1,0.2c-0.6,0.1-1,0.7-0.8,1.4c0.1,0.6,0.8,1,1.4,0.8c0.5-0.1,1.1-0.2,1.6-0.2c3.5,0.1,6.5,2.9,6.5,6.3
	c0,1.8-0.1,3.6-0.3,5.3c-0.1,0.6,0.4,1.2,1,1.2c0.8,0.1,1.2-0.6,1.2-1c0.2-1.9,0.3-3.7,0.3-5.6C20.6,7.7,16.7,3.9,11.9,3.8L11.9,3.8
	z M23.7,9.5c-0.1-0.6-0.7-1-1.3-0.9c-0.6,0.1-1,0.7-0.9,1.3c0.2,1,0.2,1.8,0.2,2.9c0,0.6,0.5,1.1,1.1,1.1h0c0.6,0,1.1-0.5,1.1-1.1
	C24,11.9,24,10.9,23.7,9.5L23.7,9.5z M21.8,5.3c-2.3-3.3-6-5.2-10-5.3C8.6,0,5.6,1.2,3.3,3.4C1.1,5.6,0,8.5,0,11.6l0,1
	c0,0.6,0.5,1.1,1.1,1.2c0,0,0,0,0,0c0.6,0,1.1-0.5,1.1-1.1l0-1.1c0-2.5,0.9-4.8,2.6-6.5c1.8-1.8,4.3-2.8,6.9-2.8
	c3.3,0,6.3,1.7,8.2,4.3c0.4,0.5,1.1,0.6,1.6,0.3C22.1,6.5,22.2,5.8,21.8,5.3L21.8,5.3z"/>
</svg>
