<svg xmlns="http://www.w3.org/2000/svg" width="24" height="24" viewBox="0 0 24 24">
	<path style="fill: var(--svg-color-fg,currentColor);" d="M4.5,2.9C4.5,2.4,4.9,2,5.4,2h13.1c0.5,0,0.9,0.4,0.9,0.9s-0.4,0.9-0.9,0.9h-0.3v0.7c0,1.6-0.7,3.1-1.7,4.2L13.3,12l3.2,3.2 c1.1,1.1,1.7,2.6,1.7,4.2v0.7h0.3c0.5,0,0.9,0.4,0.9,0.9S19.1,22,18.6,22H5.4c-0.5,0-0.9-0.4-0.9-0.9s0.4-0.9,0.9-0.9h0.3v-0.7 c0-1.6,0.6-3.1,1.7-4.2l3.2-3.2L7.5,8.8C6.4,7.7,5.8,6.2,5.8,4.6V3.9H5.4C4.9,3.9,4.5,3.5,4.5,2.9L4.5,2.9z M8.4,17h7.2 c-0.1-0.2-0.3-0.3-0.4-0.5L12,13.3l-3.2,3.2C8.7,16.7,8.5,16.8,8.4,17L8.4,17z M15.6,7c0.5-0.7,0.8-1.5,0.8-2.4V3.9H7.6v0.7 c0,0.9,0.3,1.7,0.8,2.4H15.6z"/>
</svg>
