<svg xmlns="http://www.w3.org/2000/svg" width="24" height="24" viewBox="0 0 24 24" style="fill: var(--svg-color-fg,currentColor);">
	<path d="M8.9,2.9C8.9,2.4,8.5,2,7.9,2S7,2.4,7,2.9v1.6C5.6,4.5,4.5,5.6,4.5,7H2.9C2.4,7,2,7.4,2,7.9s0.4,0.9,0.9,0.9h1.6v2.2H2.9 C2.4,11.1,2,11.5,2,12s0.4,0.9,0.9,0.9h1.6v2.2H2.9c-0.5,0-0.9,0.4-0.9,0.9S2.4,17,2.9,17h1.6c0,1.4,1.1,2.5,2.5,2.5v1.6 C7,21.6,7.4,22,7.9,22s0.9-0.4,0.9-0.9v-1.6h2.2v1.6c0,0.5,0.4,0.9,0.9,0.9s0.9-0.4,0.9-0.9v-1.6h2.2v1.6c0,0.5,0.4,0.9,0.9,0.9 s0.9-0.4,0.9-0.9v-1.6c1.4,0,2.5-1.1,2.5-2.5h1.6c0.5,0,0.9-0.4,0.9-0.9s-0.4-0.9-0.9-0.9h-1.6v-2.2h1.6c0.5,0,0.9-0.4,0.9-0.9 s-0.4-0.9-0.9-0.9h-1.6V8.9h1.6c0.5,0,0.9-0.4,0.9-0.9S21.6,7,21.1,7h-1.6c0-1.4-1.1-2.5-2.5-2.5V2.9C17,2.4,16.6,2,16.1,2 s-0.9,0.4-0.9,0.9v1.6h-2.2V2.9C12.9,2.4,12.5,2,12,2s-0.9,0.4-0.9,0.9v1.6H8.9V2.9z M8.2,7h7.5C16.4,7,17,7.6,17,8.2v7.5 c0,0.7-0.6,1.2-1.2,1.2H8.2C7.6,17,7,16.4,7,15.8V8.2C7,7.6,7.6,7,8.2,7z M15.8,8.2H8.2v7.5h7.5V8.2z" />
</svg>
