<svg xmlns="http://www.w3.org/2000/svg" width="24" height="24" viewBox="0 0 24 24" style="fill:var(--svg-color-fg, currentColor)">
	<path d="M14.8,17.8c-0.9,0.3-1.8,0.5-2.8,0.5s-1.9-0.2-2.8-0.5c0,0,0,0,0,0c-1.2-0.4-2.2-1.1-3.1-2c-1.4-1.5-2.3-3.4-2.3-5.6,C3.9,5.6,7.5,2,12,2s8.1,3.6,8.1,8.1c0,2.2-0.9,4.2-2.3,5.6c0,0-0.1,0.1-0.1,0.1C16.9,16.7,15.9,17.4,14.8,17.8L14.8,17.8z M12,5.6,c-0.4,0-0.8,0.4-0.8,0.8v0.2c-0.2,0-0.4,0.1-0.6,0.2C10,7.1,9.5,7.6,9.4,8.3c-0.1,0.4,0,0.8,0.1,1.1c0.2,0.3,0.4,0.6,0.7,0.8,c0.5,0.3,1.1,0.5,1.5,0.6l0.1,0c0.5,0.2,0.9,0.3,1.1,0.5c0.1,0.1,0.1,0.1,0.1,0.2c0,0,0,0.1,0,0.3c0,0.1-0.1,0.2-0.3,0.3,c-0.2,0.1-0.6,0.2-1.1,0.1c-0.2,0-0.7-0.2-1-0.3l0,0l0,0l0,0c-0.1,0-0.2-0.1-0.2-0.1c-0.4-0.1-0.9,0.1-1,0.5c-0.1,0.4,0.1,0.9,0.5,1,c0,0,0.1,0,0.2,0.1c0.3,0.1,0.8,0.3,1.2,0.4v0.2c0,0.4,0.4,0.8,0.8,0.8s0.8-0.4,0.8-0.8v-0.2c0.2,0,0.4-0.1,0.6-0.2,c0.6-0.3,1.1-0.8,1.2-1.5c0.1-0.4,0-0.8-0.1-1.1c-0.2-0.4-0.4-0.6-0.7-0.8c-0.5-0.3-1.1-0.5-1.6-0.7l0,0c-0.6-0.2-0.9-0.3-1.2-0.4,c-0.1-0.1-0.1-0.1-0.1-0.1c0,0,0-0.1,0-0.2c0-0.1,0.1-0.2,0.3-0.3c0.2-0.1,0.6-0.2,1.1-0.1c0.2,0,0.7,0.1,0.8,0.2,c0.4,0.1,0.8-0.1,1-0.6c0.1-0.4-0.1-0.8-0.6-1c-0.2,0-0.6-0.1-0.8-0.2V6.4C12.8,5.9,12.4,5.6,12,5.6L12,5.6z M3.9,15.8h0.6,c0.8,1,1.7,1.9,2.8,2.5H4.5v1.2H12h7.5v-1.2h-2.8c1.1-0.6,2.1-1.5,2.8-2.5h0.6c1,0,1.9,0.8,1.9,1.9v2.5c0,1-0.8,1.9-1.9,1.9H3.9,c-1,0-1.9-0.8-1.9-1.9v-2.5C2,16.6,2.8,15.8,3.9,15.8z"/>
</svg>
