<svg xmlns="http://www.w3.org/2000/svg" width="24" height="24" viewBox="0 0 24 24" style="fill:var(--svg-color-fg, currentColor)">
	<path d="M18.7,5.3c-0.3-0.3-0.3-0.8,0-1.1c0.3-0.3,0.8-0.3,1.1,0l2,2C21.9,6.4,22,6.6,22,6.8s-0.1,0.4-0.2,0.5l-2,2 c-0.3,0.3-0.8,0.3-1.1,0c-0.3-0.3-0.3-0.8,0-1.1l0.7-0.7l-5.4,0c-0.4,0-0.8-0.3-0.8-0.8S13.5,6,14,6h5.4L18.7,5.3z M5.2,15.8 l-0.7,0.7H10c0.4,0,0.8,0.3,0.8,0.8S10.4,18,10,18H4.5l0.7,0.7c0.3,0.3,0.3,0.8,0,1.1c-0.3,0.3-0.8,0.3-1.1,0l-2-2 C2,17.6,2,17.5,2,17.3c0-0.2,0.1-0.4,0.2-0.5l2-2c0.3-0.3,0.8-0.3,1.1,0C5.5,15,5.5,15.5,5.2,15.8L5.2,15.8z M5,6h7.6 c-0.1,0.2-0.2,0.5-0.2,0.8c0,0.9,0.7,1.6,1.6,1.6h3.7c-0.1,0.5,0,1.1,0.4,1.5c0.6,0.6,1.7,0.6,2.3,0L21,9.3V16c0,1.1-0.9,2-2,2h-7.6 c0.1-0.2,0.2-0.5,0.2-0.8c0-0.9-0.7-1.6-1.6-1.6H6.3c0.1-0.5,0-1.1-0.4-1.5c-0.6-0.6-1.7-0.6-2.3,0L3,14.7V8C3,6.9,3.8,6,5,6z M7,8 H5v2C6.1,10,7,9.1,7,8z M19,14c-1.1,0-2,0.9-2,2h2V14z M12,15c1.7,0,3-1.3,3-3s-1.3-3-3-3s-3,1.3-3,3S10.3,15,12,15z" />
</svg>
