<svg xmlns="http://www.w3.org/2000/svg" width="24" height="24" viewBox="0 0 24 24" style="fill: var(--svg-color-fg, currentColor);">
	<path d="M12,19.5c-4.1,0-7.5-3.4-7.5-7.5S7.9,4.5,12,4.5s7.5,3.4,7.5,7.5S16.1,19.5,12,19.5z M12,22c5.5,0,10-4.5,10-10S17.5,2,12,2 S2,6.5,2,12S6.5,22,12,22z M9.8,12c0-0.8,0.4-1.5,1.1-1.9L9.5,7.7C9.2,7.1,8.4,6.9,7.9,7.3c-1,0.9-1.7,2.1-2,3.4 C5.7,11.4,6.3,12,7,12H9.8z M10.9,13.9l-1.4,2.4c-0.3,0.6-0.1,1.4,0.5,1.6c0.6,0.2,1.3,0.3,2,0.3s1.4-0.1,2-0.3 c0.7-0.2,0.9-1,0.5-1.6l-1.4-2.4c-0.3,0.2-0.7,0.3-1.1,0.3S11.2,14.1,10.9,13.9z M14.2,12H17c0.7,0,1.3-0.6,1.1-1.2 c-0.3-1.4-1-2.6-2-3.4c-0.5-0.5-1.3-0.2-1.6,0.4l-1.4,2.4C13.7,10.5,14.2,11.2,14.2,12L14.2,12z M12,13.2c0.7,0,1.2-0.6,1.2-1.2 s-0.6-1.2-1.2-1.2s-1.2,0.6-1.2,1.2S11.3,13.2,12,13.2z"/>
</svg>
