<svg xmlns="http://www.w3.org/2000/svg" width="24" height="24" viewBox="0 0 24 24" style="fill: var(--svg-color-fg,currentColor);">
	<path d="M11.6,21.5c-2.5,0-4.9-1-6.7-2.8C1.3,15,1.3,9.1,5,5.4c1.7-1.7,4.1-2.7,6.6-2.7c2.5,0,4.9,1,6.7,2.7l0.2,0.2l2-2 c0.1-0.1,0.4-0.2,0.6-0.2c0.1,0,0.2,0,0.3,0.1c0.3,0.1,0.5,0.4,0.5,0.8v5.5c0,0.4-0.3,0.8-0.8,0.8h-5.6c-0.4,0-0.6-0.1-0.8-0.5 c-0.2-0.4,0-0.7,0.2-0.8l2-2.1l-0.2-0.2c-1.4-1.4-3.1-2.1-5-2.1c-1.9,0-3.7,0.7-5,2.1S4.4,10.1,4.4,12s0.7,3.7,2.1,5.1 c1.4,1.4,3.2,2.1,5.1,2.1c1.9,0,3.7-0.7,5.1-2.1c0.2-0.2,0.5-0.3,0.9-0.3c0.3,0,0.6,0.1,0.8,0.3c0.4,0.5,0.4,1.2,0,1.6 C16.5,20.5,14.2,21.5,11.6,21.5z"/>
</svg>
