<svg xmlns="http://www.w3.org/2000/svg" width="24" height="24" viewBox="0 0 24 24" style="fill: var(--svg-color-fg,currentColor);">
	<path d="M11.6,21.2c-2.4,0-4.8-1-6.5-2.7c-3.6-3.6-3.6-9.4,0-13c1.7-1.7,4-2.6,6.4-2.6c2.4,0,4.7,0.9,6.5,2.6l0.4,0.3l2.1-2.1 c0.1-0.1,0.2-0.2,0.4-0.2c0.1,0,0.2,0,0.2,0.1c0.2,0.1,0.3,0.3,0.3,0.6v5.5c0,0.2-0.2,0.5-0.5,0.5h-5.6c-0.3,0-0.4-0.1-0.6-0.3 c0-0.1-0.1-0.3,0.1-0.5l2.1-2.3l-0.3-0.3c-1.4-1.4-3.2-2.2-5.2-2.2S7.7,5.3,6.3,6.7C4.9,8.1,4.2,10,4.2,12c0,2,0.8,3.9,2.2,5.3 c1.4,1.4,3.3,2.2,5.3,2.2c2,0,3.9-0.8,5.3-2.2c0.2-0.1,0.4-0.2,0.7-0.2c0.2,0,0.5,0.1,0.6,0.2c0.3,0.4,0.3,1,0,1.3 C16.4,20.3,14.1,21.2,11.6,21.2z"/>
</svg>
