<svg xmlns="http://www.w3.org/2000/svg" width="24" height="24" viewBox="0 0 24 24">
	<path style="fill: var(--svg-color-fg, currentColor);" d="M14.2,9v1.5c0,0.3-0.3,0.6-0.6,0.6h-2.6v2.6c0,0.3-0.3,0.6-0.6,0.6H9c-0.3,0-0.6-0.3-0.6-0.6v-2.6H5.8
	c-0.3,0-0.6-0.3-0.6-0.6V9c0-0.3,0.3-0.6,0.6-0.6h2.6V5.8c0-0.3,0.3-0.6,0.6-0.6h1.5c0.3,0,0.6,0.3,0.6,0.6v2.6h2.6
	C14,8.5,14.2,8.7,14.2,9z M23.7,22.4l-1.3,1.3c-0.4,0.4-1.2,0.4-1.6,0L16.1,19c-0.2-0.2-0.3-0.5-0.3-0.8v-0.8
	c-1.7,1.3-3.7,2.1-6,2.1C4.4,19.5,0,15.2,0,9.8S4.4,0,9.7,0s9.7,4.4,9.7,9.7c0,2.3-0.8,4.3-2.1,6h0.8c0.3,0,0.6,0.1,0.8,0.3l4.7,4.7
	C24.1,21.2,24.1,21.9,23.7,22.4z M16.1,9.8c0-3.5-2.8-6.4-6.4-6.4S3.4,6.2,3.4,9.8s2.8,6.4,6.4,6.4S16.1,13.3,16.1,9.8z"/>
</svg>
