<svg xmlns="http://www.w3.org/2000/svg" width="640" height="640" viewBox="0 0 640 640">
  <rect width="640" height="640" style="fill: #0f1317"/>
  <g>
    <path d="M322.42,626.15c113.76-15.92,37.92-150.34,0-191.93l-4.84-.37c-37.92,41.66-113.76,176.35,0,192.3Z" style="fill: #757575"/>
    <ellipse cx="320" cy="534.84" rx="4.84" ry="82.26" style="fill: #bdcad9"/>
    <path d="M276.45,567c0,42.76,35,50.1,38.54,50.1s-28.9-7.34-28.9-50.1,22.94-95.06,19.39-95.06S276.45,524.24,276.45,567Z" style="fill: #bdcad9"/>
    <path d="M363.55,567c0,42.76-35,50.1-38.54,50.1s28.9-7.34,28.9-50.1S331,471.94,334.52,471.94,363.55,524.24,363.55,567Z" style="fill: #bdcad9"/>
  </g>
  <g>
    <g>
      <path d="M319.81,418.7V163.18" style="fill: none;stroke: #f7f7f7;stroke-linecap: round;stroke-miterlimit: 10;stroke-width: 8.526548624038696px"/>
      <path d="M319.81,144l12.79,25.58-12.79-6.4L307,169.58Z" style="fill: #f7f7f7;stroke: #f7f7f7;stroke-miterlimit: 10;stroke-width: 8.526548624038696px"/>
      <path d="M319.81,418.7Q319.81,305,248.76,305T177.7,220" style="fill: none;stroke: #f7f7f7;stroke-linecap: round;stroke-miterlimit: 10;stroke-width: 8.526548624038696px"/>
      <path d="M177.7,200.84l12.82,25.58L177.7,220l-12.79,6.42Z" style="fill: #f7f7f7;stroke: #f7f7f7;stroke-miterlimit: 10;stroke-width: 8.526548624038696px"/>
      <path d="M319.81,418.7q0-85.27,71.06-85.27t71.05-56.56" style="fill: none;stroke: #f7f7f7;stroke-linecap: round;stroke-miterlimit: 10;stroke-width: 8.526548624038696px"/>
      <path d="M461.92,257.69l12.82,25.58-12.82-6.4-12.79,6.43Z" style="fill: #f7f7f7;stroke: #f7f7f7;stroke-miterlimit: 10;stroke-width: 8.526548624038696px"/>
    </g>
    <path d="M177.83,124.39a27.94,27.94,0,1,0-27.94-27.94A27.67,27.67,0,0,0,177.83,124.39ZM167.77,135a39.23,39.23,0,0,0-39.12,39.12,6.79,6.79,0,0,0,6.71,6.7h84.93a6.79,6.79,0,0,0,6.71-6.7A39.23,39.23,0,0,0,187.88,135Z" style="fill: #bdcad9"/>
    <path d="M319.81,68.12a27.66,27.66,0,0,0,27.94-27.94,27.94,27.94,0,1,0-55.88,0A27.67,27.67,0,0,0,319.81,68.12ZM309.76,78.74a39.23,39.23,0,0,0-39.12,39.12,6.79,6.79,0,0,0,6.71,6.7h84.93a6.79,6.79,0,0,0,6.71-6.7,39.23,39.23,0,0,0-39.12-39.12Z" style="fill: #bdcad9"/>
    <path d="M461.66,180.72a27.94,27.94,0,1,0-28-27.94A27.67,27.67,0,0,0,461.66,180.72ZM451.6,191.34a39.23,39.23,0,0,0-39.12,39.12,6.79,6.79,0,0,0,6.71,6.7h84.93a6.79,6.79,0,0,0,6.71-6.7,39.23,39.23,0,0,0-39.12-39.12Z" style="fill: #bdcad9"/>
  </g>
</svg>
