<svg xmlns="http://www.w3.org/2000/svg" width="24" height="24" viewBox="0 0 24 24">
	<path style="fill: var(--svg-color-fg, currentColor);" d="M22.5,7.5h-21C0.7,7.5,0,6.8,0,6V3c0-0.8,0.7-1.5,1.5-1.5h21C23.3,1.5,24,2.2,24,3v3C24,6.8,23.3,7.5,22.5,7.5z M20.2,3.4
	c-0.6,0-1.1,0.5-1.1,1.1s0.5,1.1,1.1,1.1s1.1-0.5,1.1-1.1S20.9,3.4,20.2,3.4z M17.2,3.4c-0.6,0-1.1,0.5-1.1,1.1s0.5,1.1,1.1,1.1
	s1.1-0.5,1.1-1.1S17.9,3.4,17.2,3.4z M22.5,15h-21C0.7,15,0,14.3,0,13.5v-3C0,9.7,0.7,9,1.5,9h21c0.8,0,1.5,0.7,1.5,1.5v3
	C24,14.3,23.3,15,22.5,15z M20.2,10.9c-0.6,0-1.1,0.5-1.1,1.1s0.5,1.1,1.1,1.1s1.1-0.5,1.1-1.1S20.9,10.9,20.2,10.9z M17.2,10.9
	c-0.6,0-1.1,0.5-1.1,1.1s0.5,1.1,1.1,1.1s1.1-0.5,1.1-1.1S17.9,10.9,17.2,10.9z M22.5,22.5h-21C0.7,22.5,0,21.8,0,21v-3
	c0-0.8,0.7-1.5,1.5-1.5h21c0.8,0,1.5,0.7,1.5,1.5v3C24,21.8,23.3,22.5,22.5,22.5z M20.2,18.4c-0.6,0-1.1,0.5-1.1,1.1
	s0.5,1.1,1.1,1.1s1.1-0.5,1.1-1.1S20.9,18.4,20.2,18.4z M17.2,18.4c-0.6,0-1.1,0.5-1.1,1.1s0.5,1.1,1.1,1.1s1.1-0.5,1.1-1.1
	S17.9,18.4,17.2,18.4z"/>
</svg>
