<svg xmlns="http://www.w3.org/2000/svg" width="24" height="24" viewBox="0 0 24 24" style="fill: var(--svg-color-fg, currentColor);">
	<path d="M15.3,4c0-0.3,0.2-0.6,0.5-0.8s0.7-0.1,0.9,0.2l5,4.7C21.9,8.2,22,8.5,22,8.7c0,0.2-0.1,0.4-0.3,0.6l-5,4.7 c-0.2,0.2-0.6,0.3-0.9,0.2c-0.3-0.1-0.5-0.4-0.5-0.8v-2.5h-1.1h-0.5c-1.6,0-2.8,1.3-2.8,2.8c0,0.8,0.4,1.2,0.7,1.4 c0.2,0.2,0.4,0.4,0.4,0.7c0,0.3-0.3,0.6-0.6,0.6h-0.1c-0.1,0-0.2,0-0.2,0c-0.6-0.3-3.5-1.7-3.5-5c0-2.8,2.2-5,5-5h2.8V4z M2,8.1 c0-1.5,1.2-2.8,2.8-2.8h0.6c0.6,0,1.1,0.5,1.1,1.1S5.9,7.6,5.3,7.6H4.8c-0.3,0-0.6,0.2-0.6,0.6v10c0,0.3,0.2,0.6,0.6,0.6h10 c0.3,0,0.6-0.3,0.6-0.6v-0.6c0-0.6,0.5-1.1,1.1-1.1s1.1,0.5,1.1,1.1v0.6c0,1.5-1.2,2.8-2.8,2.8h-10c-1.5,0-2.8-1.2-2.8-2.8V8.1z"/>
</svg>
