<svg xmlns="http://www.w3.org/2000/svg" width="24" height="24" viewBox="0 0 24 24" style="fill: var(--svg-color-fg,currentColor);">
<path d="M7.1,19.1c-1.2,0-2.1-0.9-2.1-2.1v-2.3c0-0.6,0.2-1.2,0.6-1.7c0.4-0.5,0.9-0.9,1.5-1L10,11l0-0.2c0.2-0.9,0.2-1.8,0.2-2.7
	V7.8c0-0.7-0.6-1.3-1.3-1.3S7.6,7.1,7.6,7.8v1c0,0.4-0.4,0.8-0.8,0.8S6,9.3,6,8.9v-1c0-1.6,1.3-2.9,2.9-2.9s2.9,1.3,2.9,2.9v0.3
	c0,0.7,0,1.3-0.1,2l0,0.4L16,9.2c0.1,0,0.1,0,0.2,0c0.2,0,0.4,0.1,0.6,0.2c0.2,0.2,0.3,0.5,0.2,0.8l-0.7,2.1h3.1
	c0.4,0,0.8,0.4,0.8,0.8c0,0.4-0.4,0.8-0.8,0.8h-4.2c-0.3,0-0.5-0.1-0.6-0.3c-0.1-0.2-0.2-0.5-0.1-0.7l0.6-1.7l-3.7,1.1l0,0.1
	c-0.4,1.7-1,3.3-1.9,4.8L8.9,18C8.6,18.7,7.9,19.1,7.1,19.1z M7.5,13.3c-0.5,0.2-0.9,0.7-0.9,1.3V17c0,0.3,0.2,0.5,0.5,0.5
	c0.2,0,0.4-0.1,0.5-0.3L8,16.4c0.6-1,1.1-2.1,1.4-3.2l0.1-0.5l-1.9,0.6l0,0L7.5,13.3z"/>
<path d="M2.8,15.4c-0.4,0-0.8,0.3-0.8,0.8s0.3,0.8,0.8,0.8H4c0-0.1,0-0.2,0-0.3v-1.2H2.8z"/>
<path d="M21.2,16.9c0.4,0,0.8-0.3,0.8-0.8s-0.3-0.8-0.8-0.8h-9.7c-0.2,0.5-0.4,1-0.7,1.5H21.2z"/>
</svg>
