<svg xmlns="http://www.w3.org/2000/svg" width="16" height="16" viewBox="0 0 16 16" fill="none">
	<style>
		.star-action-unwrap-fg {
			fill: var(--svg-color-fg, currentColor);
		}
	</style>
	<path class="star-action-unwrap-fg" d="M12,7.8c0.3-0.3,0.3-0.8,0-1.1L8.3,3C8,2.7,7.5,2.7,7.2,3L3.5,6.8C3.2,7,3.2,7.5,3.5,7.8c0.3,0.3,0.8,0.3,1.1,0
	l3.2-3.1L11,7.8C11.3,8.1,11.8,8.1,12,7.8z M12.6,12.4c0,0.4-0.3,0.8-0.7,0.8H3.7c-0.4,0-0.8-0.4-0.8-0.8l0,0l0,0v-1.6
	c0-0.4,0.4-0.8,0.8-0.8s0.8,0.4,0.8,0.8v0.8H11v-0.8c0-0.4,0.4-0.8,0.8-0.8s0.8,0.4,0.8,0.8V12.4L12.6,12.4L12.6,12.4z" />
</svg>
