<svg xmlns="http://www.w3.org/2000/svg" width="24" height="24" viewBox="0 0 24 24" style="fill: var(--svg-color-fg,currentColor);">
	<path d="M22,12c0,0.1-0.1,0.2-0.1,0.2L19.1,14c0,0-0.1,0-0.1,0c0,0-0.1,0-0.1,0c-0.1-0.1-0.1-0.1-0.1-0.2v-1.1h-7.4 c0.8,1.2,1.3,3.3,2.2,3.3h0.8v-0.8c0-0.2,0.1-0.3,0.3-0.3h2.8c0.2,0,0.3,0.1,0.3,0.3v2.8c0,0.2-0.1,0.3-0.3,0.3h-2.8 c-0.2,0-0.3-0.1-0.3-0.3V17h-0.8c-2.4,0-2.5-4.4-3.9-4.4H6.4c-0.3,1-1.1,1.7-2.2,1.7C3,14.3,2,13.3,2,12s1-2.2,2.2-2.2 c1,0,1.9,0.7,2.2,1.7c1.2,0,1.4,0.3,2.3-1.9c1.3-2.8,1.8-2.6,3.4-2.6c0.2-0.7,0.8-1.1,1.6-1.1c0.9,0,1.7,0.7,1.7,1.7 s-0.7,1.7-1.7,1.7c-0.7,0-1.3-0.5-1.6-1.1h-0.9c-0.9,0-1.4,2.1-2.2,3.3h9.7v-1.1c0-0.1,0.1-0.2,0.1-0.2s0.2,0,0.3,0l2.8,1.7 C21.9,11.9,22,12,22,12L22,12z"/>
</svg>
