<svg xmlns="http://www.w3.org/2000/svg" width="24" height="24" viewBox="0 0 24 24" style="fill: var(--svg-color-fg,currentColor);">
<path d="M12.9,8c0,2.2-1.8,4-4,4s-4-1.8-4-4s1.8-4,4-4S12.9,5.8,12.9,8z M1.9,19.1c0-3.1,2.5-5.6,5.6-5.6h2.9c3.1,0,5.6,2.5,5.6,5.6
	c0,0.5-0.4,0.9-0.9,0.9H2.9C2.3,20,1.9,19.6,1.9,19.1z M16.6,8.5c0.3-0.3,0.8-0.3,1.1,0l1.5,1.5l1.5-1.5c0.3-0.3,0.8-0.3,1.1,0
	c0.3,0.3,0.3,0.8,0,1.1L20.2,11l1.5,1.5c0.3,0.3,0.3,0.8,0,1.1c-0.3,0.3-0.8,0.3-1.1,0l-1.5-1.5l-1.5,1.5c-0.3,0.3-0.8,0.3-1.1,0
	c-0.3-0.3-0.3-0.8,0-1.1l1.5-1.5l-1.5-1.5C16.4,9.2,16.4,8.8,16.6,8.5z"/>
</svg>
