<svg xmlns="http://www.w3.org/2000/svg" width="24" height="24" viewBox="0 0 24 24" style="fill: var(--svg-color-fg,currentColor);">
<path d="M9,12c2.2,0,4-1.8,4-4s-1.8-4-4-4S5,5.8,5,8S6.7,12,9,12z M7.5,13.5c-3.1,0-5.6,2.5-5.6,5.6c0,0.5,0.4,0.9,0.9,0.9H12
	c-0.1-0.3-0.1-0.6,0-0.9l0.5-1.9c0.1-0.4,0.3-0.7,0.5-0.9l1.3-1.3c-1-1-2.4-1.6-3.9-1.6H7.5z M21.1,11.4c-0.5-0.5-1.3-0.5-1.8,0
	l-0.9,0.9l2.2,2.2l0.9-0.9c0.5-0.5,0.5-1.3,0-1.8L21.1,11.4L21.1,11.4z M13.7,17c-0.1,0.1-0.2,0.3-0.3,0.5L13,19.4
	c0,0.2,0,0.4,0.1,0.5c0.1,0.1,0.3,0.2,0.5,0.1l1.9-0.5c0.2,0,0.3-0.1,0.5-0.3l4-4L17.7,13L13.7,17z"/>
</svg>
