<svg xmlns="http://www.w3.org/2000/svg" width="24" height="24" viewBox="0 0 24 24" style="fill: var(--svg-color-fg,currentColor);">
<path d="M13,8c0,2.2-1.8,4-4,4s-4-1.8-4-4s1.8-4,4-4S13,5.8,13,8z M2,19.1c0-3.1,2.5-5.6,5.6-5.6h2.9c3.1,0,5.6,2.5,5.6,5.6
	c0,0.5-0.4,0.9-0.9,0.9H2.9C2.4,20,2,19.6,2,19.1z M17.8,13.8v-2h-2c-0.4,0-0.8-0.3-0.8-0.8s0.3-0.8,0.8-0.8h2v-2
	c0-0.4,0.3-0.8,0.8-0.8s0.8,0.3,0.8,0.8v2h2c0.4,0,0.8,0.3,0.8,0.8s-0.3,0.8-0.8,0.8h-2v2c0,0.4-0.3,0.8-0.8,0.8
	S17.8,14.2,17.8,13.8z"/>
</svg>
