<svg xmlns="http://www.w3.org/2000/svg" width="24" height="24" viewBox="0 0 24 24">
	<path style="fill: var(--svg-color-fg, currentColor);" d="M24,12.3h-2.7v2.7h0.9c0.2,0,0.4,0.2,0.4,0.3v0.7c0,0.2-0.2,0.3-0.4,0.3H1.7c-0.2,0-0.4-0.1-0.4-0.3v-0.7
	c0-0.2,0.2-0.3,0.4-0.3h0.9v-2.7H0c-0.7,0-1.3,0.6-1.3,1.3v4c0,0.7,0.6,1.3,1.3,1.3h24c0.7,0,1.3-0.6,1.3-1.3v-4
	C25.3,12.9,24.7,12.3,24,12.3z M20,14.9V1.6c0-0.7-0.6-1.3-1.3-1.3H5.3C4.6,0.3,4,0.9,4,1.6v13.3H20z M7.5,7.3l1.1-1.1
	c0.2-0.2,0.5-0.2,0.6,0L10.9,8l4-3.9c0.2-0.2,0.5-0.2,0.6,0l1.1,1.1c0.2,0.2,0.2,0.5,0,0.6l-5.3,5.3c-0.2,0.2-0.5,0.2-0.6,0L7.5,8
	C7.3,7.8,7.3,7.5,7.5,7.3L7.5,7.3z"/>
</svg>
