<svg xmlns="http://www.w3.org/2000/svg" width="24" height="24" viewBox="0 0 24 24" style="fill: var(--svg-color-fg,currentColor);">
	<path d="M12,3.2c0.6,0,1.1,0.3,1.3,0.8l8.4,14.4c0.3,0.5,0.3,1.1,0,1.6s-0.8,0.8-1.4,0.8H3.6c-0.6,0-1.1-0.3-1.4-0.8s-0.3-1.1,0-1.6 L10.7,4C11,3.5,11.5,3.2,12,3.2z M12,8.2c-0.5,0-0.9,0.4-0.9,0.9v4.4c0,0.5,0.4,0.9,0.9,0.9s0.9-0.4,0.9-0.9V9.2 C13,8.7,12.5,8.2,12,8.2z M13.3,17c0-0.7-0.6-1.3-1.3-1.3c-0.7,0-1.3,0.6-1.3,1.3c0,0.7,0.6,1.3,1.3,1.3 C12.7,18.3,13.3,17.7,13.3,17z"/>
</svg>
