<svg xmlns="http://www.w3.org/2000/svg" width="16" height="16" viewBox="0 0 16 16" fill="none">
	<path style="fill: var(--svg-color-fg, currentColor);" d="M11,3.6L7.8,6.7L4.6,3.6c-0.3-0.3-0.8-0.3-1.1,0s-0.3,0.8,0,1.1l3.7,3.7c0.3,0.3,0.8,0.3,1.1,0L12,4.7 c0.3-0.3,0.3-0.8,0-1.1C11.8,3.3,11.3,3.3,11,3.6z M12.6,12.3c0,0.4-0.3,0.8-0.7,0.8H3.7c-0.4,0-0.8-0.4-0.8-0.8l0,0l0,0v-1.6 c0-0.4,0.4-0.8,0.8-0.8s0.8,0.4,0.8,0.8v0.8H11v-0.8c0-0.4,0.4-0.8,0.8-0.8s0.8,0.4,0.8,0.8V12.3C12.7,12.3,12.7,12.3,12.6,12.3 L12.6,12.3z" />
</svg>
