<?xml version="1.0" encoding="utf-8"?>
<!-- Generator: Adobe Illustrator 26.0.3, SVG Export Plug-In . SVG Version: 6.00 Build 0)  -->
<svg version="1.1" id="Layer_1" xmlns="http://www.w3.org/2000/svg" xmlns:xlink="http://www.w3.org/1999/xlink" x="0px" y="0px"
	 viewBox="0 0 32 32" style="enable-background:new 0 0 32 32;" xml:space="preserve">
<style type="text/css">
	.st0{fill:#FFFFFF;}
</style>
<path class="st0" d="M16.1,2.4c5.8,0,10.7,3.8,12.6,9.1c0.2,0.7,0.7,1.2,1.4,1.2c0.7,0,1.4-0.3,1.4-1.2V2.8c0-1.2-0.9-2.1-2-2.1H2.8
	c-1.1,0-2,1-2,2.1v26.3c0,1.2,0.9,2.1,2,2.1h26.7c1.1,0,2-1,2-2.1v-8.7c0-0.8-0.5-1.4-1.3-1.4c-0.8,0-1.3,0.6-1.5,1.4
	c-1.7,5.3-6.7,9.1-12.5,9.1C8.8,29.6,2.8,23.5,2.8,16C2.8,8.5,8.8,2.4,16.1,2.4z"/>
</svg>
