<?xml version="1.0" encoding="utf-8"?>
<!-- Generator: Adobe Illustrator 26.0.3, SVG Export Plug-In . SVG Version: 6.00 Build 0)  -->
<svg version="1.1" id="Layer_1" xmlns="http://www.w3.org/2000/svg" xmlns:xlink="http://www.w3.org/1999/xlink" x="0px" y="0px"
	 viewBox="0 0 868.1 868.1" style="enable-background:new 0 0 868.1 868.1;" xml:space="preserve">
<style type="text/css">
	.st0{fill:none;}
	.st1{fill:#9C6CFF;}
	.st2{fill:#05D2DD;}
</style>
<g id="그룹_3786" transform="translate(-2794 167)">
	<rect id="사각형_2029" x="2716.1" y="-244.9" class="st0" width="1024" height="1024"/>
	<g id="그룹_3785" transform="translate(2872.491 -51.134)">
		<path id="패스_1868" class="st1" d="M583.6-77.9H255.2c-16.6,0-32,8.9-40.4,23.3L50.7,229.7c-8.4,14.4-8.4,32.2,0,46.6
			l164.2,284.3l80.7-46.6L145,253L282.2,15.3h274.6l150.8,261l80.7-46.6L623.9-54.6C615.6-69.1,600.2-77.9,583.6-77.9z"/>
		<path id="패스_1869" class="st2" d="M495.3,76.6l-80.7,46.6l150.8,261L428.1,621.9H153.6L2.8,360.9l-80.7,46.6L86.2,691.8
			c8.3,14.4,23.7,23.3,40.4,23.3h328.3c16.6,0,32-8.9,40.4-23.3l164.2-284.3c8.4-14.4,8.4-32.2,0-46.6L495.3,76.6z"/>
	</g>
</g>
</svg>
