<?xml version="1.0" encoding="utf-8"?>
<!-- Generator: Adobe Illustrator 26.0.3, SVG Export Plug-In . SVG Version: 6.00 Build 0)  -->
<svg version="1.1" id="Layer_1" xmlns="http://www.w3.org/2000/svg" xmlns:xlink="http://www.w3.org/1999/xlink" x="0px" y="0px"
	 viewBox="0 0 40 40" style="enable-background:new 0 0 40 40;" xml:space="preserve">
<style type="text/css">
	.st0{fill:url(#SVGID_1_);}
	.st1{fill:url(#SVGID_00000035525980720074101380000000511856429410735039_);}
	.st2{fill:url(#SVGID_00000178177455354598561580000003651660537864135567_);}
	.st3{fill:url(#SVGID_00000098905930880082206780000005629141887001966252_);}
	.st4{fill:#FFFFFF;}
</style>
<linearGradient id="SVGID_1_" gradientUnits="userSpaceOnUse" x1="20" y1="42" x2="20" y2="2" gradientTransform="matrix(1 0 0 -1 0 42)">
	<stop  offset="0" style="stop-color:#1FD1FF"/>
	<stop  offset="1" style="stop-color:#1BB8FF"/>
</linearGradient>
<path class="st0" d="M0,17c0-6.5,0-9.8,1.5-12.2c0.8-1.3,2-2.5,3.3-3.3C7.2,0,10.5,0,17,0h6c6.5,0,9.8,0,12.2,1.5
	c1.3,0.8,2.5,2,3.3,3.3C40,7.2,40,10.5,40,17v6c0,6.5,0,9.8-1.5,12.2c-0.8,1.3-2,2.5-3.3,3.3C32.8,40,29.5,40,23,40h-6
	c-6.5,0-9.8,0-12.2-1.5c-1.3-0.8-2.5-2-3.3-3.3C0,32.8,0,29.5,0,23V17z"/>
<radialGradient id="SVGID_00000019647902003019577000000008522263707918322108_" cx="-260.4466" cy="334.9301" r="1" gradientTransform="matrix(45.2357 -45.4821 -46.1625 -45.9124 27244.5938 3570.2747)" gradientUnits="userSpaceOnUse">
	<stop  offset="0" style="stop-color:#232DE3"/>
	<stop  offset="1" style="stop-color:#232DE3;stop-opacity:0"/>
</radialGradient>
<path style="fill:url(#SVGID_00000019647902003019577000000008522263707918322108_);" d="M0,17c0-6.5,0-9.8,1.5-12.2
	c0.8-1.3,2-2.5,3.3-3.3C7.2,0,10.5,0,17,0h6c6.5,0,9.8,0,12.2,1.5c1.3,0.8,2.5,2,3.3,3.3C40,7.2,40,10.5,40,17v6
	c0,6.5,0,9.8-1.5,12.2c-0.8,1.3-2,2.5-3.3,3.3C32.8,40,29.5,40,23,40h-6c-6.5,0-9.8,0-12.2-1.5c-1.3-0.8-2.5-2-3.3-3.3
	C0,32.8,0,29.5,0,23V17z"/>
<radialGradient id="SVGID_00000012459242593989759140000008585364483740269214_" cx="-269.7959" cy="341.8391" r="1" gradientTransform="matrix(-30.0161 -26.6028 -40.5618 45.7662 5805.2095 -22782.2168)" gradientUnits="userSpaceOnUse">
	<stop  offset="0" style="stop-color:#8B4DFF"/>
	<stop  offset="1" style="stop-color:#8B4DFF;stop-opacity:0"/>
</radialGradient>
<path style="fill:url(#SVGID_00000012459242593989759140000008585364483740269214_);" d="M0,17c0-6.5,0-9.8,1.5-12.2
	c0.8-1.3,2-2.5,3.3-3.3C7.2,0,10.5,0,17,0h6c6.5,0,9.8,0,12.2,1.5c1.3,0.8,2.5,2,3.3,3.3C40,7.2,40,10.5,40,17v6
	c0,6.5,0,9.8-1.5,12.2c-0.8,1.3-2,2.5-3.3,3.3C32.8,40,29.5,40,23,40h-6c-6.5,0-9.8,0-12.2-1.5c-1.3-0.8-2.5-2-3.3-3.3
	C0,32.8,0,29.5,0,23V17z"/>
<radialGradient id="SVGID_00000056406291667835801500000004436843016534713265_" cx="-250.519" cy="344.3979" r="1" gradientTransform="matrix(1.931060e-15 31.5366 76.5164 -4.685278e-15 -26332.4258 7900.8125)" gradientUnits="userSpaceOnUse">
	<stop  offset="0" style="stop-color:#24D5FF"/>
	<stop  offset="1" style="stop-color:#1BB8FF;stop-opacity:0"/>
</radialGradient>
<path style="fill:url(#SVGID_00000056406291667835801500000004436843016534713265_);" d="M0,17c0-6.5,0-9.8,1.5-12.2
	c0.8-1.3,2-2.5,3.3-3.3C7.2,0,10.5,0,17,0h6c6.5,0,9.8,0,12.2,1.5c1.3,0.8,2.5,2,3.3,3.3C40,7.2,40,10.5,40,17v6
	c0,6.5,0,9.8-1.5,12.2c-0.8,1.3-2,2.5-3.3,3.3C32.8,40,29.5,40,23,40h-6c-6.5,0-9.8,0-12.2-1.5c-1.3-0.8-2.5-2-3.3-3.3
	C0,32.8,0,29.5,0,23V17z"/>
<path class="st4" d="M15.3,31v-9.7l9.5,9.7H30v-0.3L19.1,19.7l10-10.5V9h-5.3l-8.6,9.3V9H11v22H15.3z"/>
</svg>
