<svg xmlns="http://www.w3.org/2000/svg" width="181.04" height="45" viewBox="0 0 181.04 45"><path d="M23.69,1.72c-.74.36-.17-.56-8.32,13.51l-4.76,8.22c-1.32,2.28-2.54,4.51-2.71,5a7.9,7.9,0,0,0-.22,4.2c.52,2.31,1.58,4.85,2.21,5.29a1.15,1.15,0,0,0,1.44-.1c.19-.17,2.2-3.49,4.46-7.37s6-10.26,8.26-14.18,4.27-7.39,4.43-7.74A3,3,0,0,0,28.7,7c-.06-1-.23-1.41-1.49-3.5A4.23,4.23,0,0,0,25.84,1.8,2.37,2.37,0,0,0,23.69,1.72Zm5.74,11.54c-.76.4-1.05.82-3.38,4.83-1.83,3.17-2,3.7-1.69,4.7a2.79,2.79,0,0,0,1.48,1.64c.51.23,1,.26,4.79.26s4.28,0,4.78-.26a3.61,3.61,0,0,0,1.75-1.93c.37-1.3.24-1.65-2.28-5.91-1.93-3.28-2.2-3.54-3.8-3.61A2.57,2.57,0,0,0,29.43,13.26Zm-9.81,17c-.89.44-1,.62-2.93,3.9s-2,3.55-2,4.63A4,4,0,0,0,16,41.69c.28.21,2.58,1.36,5.1,2.55,4.34,2,4.65,2.17,5.61,2.23a2.72,2.72,0,0,0,1.92-.36,8.14,8.14,0,0,0,3-3,4.56,4.56,0,0,0,0-3.48c-.45-1-8.34-8.9-9.38-9.39A2.87,2.87,0,0,0,19.62,30.23Z" transform="translate(-7.5 -1.5)" style="fill:#fff;fill-rule:evenodd"/><path d="M26.53,30.05a1.86,1.86,0,0,1,.82-2.42c.45-.27.66-.28,6.37-.25,5.88,0,5.92,0,6.65.37a4.24,4.24,0,0,1,2.43,3.31c0,1.26-.18,1.54-2.57,3.95-2.56,2.56-3.17,3-4.46,3s-1.73-.27-5.54-4A46.11,46.11,0,0,1,26.53,30.05Z" transform="translate(-7.5 -1.5)" style="fill:#2161ff"/><path d="M67.42,32.91,63,26l-2.22,2.5v4.4h-4.3V15.21h4.3v2.85c0,1.63-.1,3.75-.18,5.4h0a46,46,0,0,1,2.9-3.77l3.67-4.48h5.18l-6.48,7.45,6.7,10.25Z" transform="translate(-7.5 -1.5)" style="fill:#fffbf8"/><path d="M74.07,15.21H85.12l.4,3.65H78.37v3.3h6.4v3.5h-6.4v3.6h7.15l-.4,3.65H74.07Z" transform="translate(-7.5 -1.5)" style="fill:#fffbf8"/><path d="M93,32.91v-7L86.77,15.21h5.15l1.72,3.7c.58,1.3,1,2.3,1.53,3.5h.07c.48-1.2.93-2.2,1.5-3.5l1.73-3.7h5.14L97.34,25.89v7Z" transform="translate(-7.5 -1.5)" style="fill:#fffbf8"/><path d="M103.59,29.74l3-2.08.45.13a3.83,3.83,0,0,0,3.38,2c1.3,0,2.17-.72,2.17-1.65s-.57-1.55-3.6-2.82c-3.37-1.4-4.6-2.95-4.6-5.53,0-2.82,2.6-5,6.25-5a7.19,7.19,0,0,1,6.23,3.15l-2.93,2.17-.45-.1a3.28,3.28,0,0,0-2.82-1.6c-1.18,0-1.83.6-1.83,1.4s.38,1.18,3.53,2.55c3.5,1.53,4.67,3.1,4.67,5.4,0,3.22-2.75,5.67-6.6,5.67A7.63,7.63,0,0,1,103.59,29.74Z" transform="translate(-7.5 -1.5)" style="fill:#fffbf8"/><path d="M124,19.11h-5.5v-3.9h15.32v3.9h-5.47v13.8H124Z" transform="translate(-7.5 -1.5)" style="fill:#fffbf8"/><path d="M135.14,24.06c0-5.4,4.08-9.32,9.65-9.32s9.65,3.92,9.65,9.32-4.1,9.32-9.65,9.32S135.14,29.36,135.14,24.06Zm14.75,0a5.1,5.1,0,1,0-10.2,0,5.1,5.1,0,1,0,10.2,0Z" transform="translate(-7.5 -1.5)" style="fill:#fffbf8"/><path d="M157.32,32.91V15.21h4.25l5.1,6.6c.82,1.1,1.64,2.23,2.79,3.93h0a27,27,0,0,1-.27-4.43v-6.1h4.27V33.06h-3.6l-5.67-7.12c-.85-1.1-1.72-2.23-2.87-3.93h-.08a27.12,27.12,0,0,1,.3,4.43v6.47Z" transform="translate(-7.5 -1.5)" style="fill:#fffbf8"/><path d="M177.09,15.21h11l.4,3.65h-7.15v3.3h6.4v3.5h-6.4v3.6h7.15l-.4,3.65h-11Z" transform="translate(-7.5 -1.5)" style="fill:#fffbf8"/></svg>