<?xml version="1.0" encoding="utf-8"?>
<!-- Generator: Adobe Illustrator 26.0.3, SVG Export Plug-In . SVG Version: 6.00 Build 0)  -->
<svg version="1.1" id="Layer_1" xmlns="http://www.w3.org/2000/svg" xmlns:xlink="http://www.w3.org/1999/xlink" x="0px" y="0px"
	 viewBox="0 0 26.1 23" style="enable-background:new 0 0 26.1 23;" xml:space="preserve">
<style type="text/css">
	.st0{clip-path:url(#SVGID_00000002362040884259130360000015442034985283402375_);}
	.st1{fill:#4BAF74;}
	.st2{fill:#4BC174;}
	.st3{fill:#EEEEEE;}
	.st4{fill:#0D0D0D;}
</style>
<g>
	<defs>
		<rect id="SVGID_1_" x="2.4" y="4.5" width="21.4" height="13.9"/>
	</defs>
	<clipPath id="SVGID_00000102520774452762862810000013296021072583294111_">
		<use xlink:href="#SVGID_1_"  style="overflow:visible;"/>
	</clipPath>
	<g style="clip-path:url(#SVGID_00000102520774452762862810000013296021072583294111_);">
		<path class="st1" d="M21.7,14.1c0,3.1-3.7,4.3-8.4,4.3c-4.6,0-8.4-1.2-8.4-4.3s3.8-5.5,8.4-5.5S21.7,11.1,21.7,14.1z"/>
		<path class="st2" d="M20.8,7.5c0-1.6-1.3-2.9-2.9-2.9c-0.9,0-1.7,0.4-2.3,1.1c-0.7-0.2-1.5-0.3-2.3-0.3c-0.8,0-1.6,0.1-2.3,0.3
			C10.4,5,9.6,4.5,8.7,4.5C7,4.5,5.7,5.9,5.7,7.5c0,0.5,0.1,1,0.4,1.5c-0.2,0.5-0.4,1-0.4,1.6c0,2.8,3.4,5.1,7.5,5.1
			c4.2,0,7.5-2.3,7.5-5.1c0-0.6-0.1-1.1-0.4-1.6C20.7,8.5,20.8,8,20.8,7.5z"/>
		<path class="st3" d="M8.4,9.1c1,0,1.8-0.8,1.8-1.8S9.4,5.5,8.4,5.5S6.6,6.3,6.6,7.3S7.4,9.1,8.4,9.1z"/>
		<path class="st3" d="M18,9.1c1,0,1.8-0.8,1.8-1.8S19,5.5,18,5.5c-1,0-1.8,0.8-1.8,1.8S17,9.1,18,9.1z"/>
		<path class="st2" d="M7.5,18.2c0.4,0,0.7-0.3,0.6-0.7c-0.2-1.3-0.8-4.3-3.8-6c-3.9-2.3-0.8,5.7-0.8,5.7l-0.8,0.5
			c-0.3,0.2-0.2,0.6,0.2,0.6H7.5z"/>
		<path class="st2" d="M19.2,18.2c-0.3,0-0.6-0.3-0.6-0.7c0.1-1.3,0.7-4.3,3.4-6c3.5-2.3,0.7,5.7,0.7,5.7l0.7,0.5
			c0.2,0.2,0.1,0.6-0.1,0.6H19.2z"/>
		<path class="st4" d="M8.4,7.6c0.2,0,0.3-0.1,0.3-0.3C8.7,7.1,8.6,7,8.4,7C8.2,7,8.1,7.1,8.1,7.3C8.1,7.5,8.2,7.6,8.4,7.6z"/>
		<path class="st4" d="M18,7.6c0.2,0,0.3-0.1,0.3-0.3C18.3,7.1,18.2,7,18,7s-0.3,0.1-0.3,0.3C17.7,7.5,17.8,7.6,18,7.6z"/>
	</g>
</g>
</svg>
